<svg xmlns="http://www.w3.org/2000/svg" xmlns:xlink="http://www.w3.org/1999/xlink" width="100" height="100" viewBox="0 0 100 100"><g><g transform="translate(50 50) scale(0.69 0.69) rotate(0) translate(-50 -50)" style="fill:#000000"><svg fill="#000000" xmlns:dc="http://purl.org/dc/elements/1.1/" xmlns:cc="http://creativecommons.org/ns#" xmlns:rdf="http://www.w3.org/1999/02/22-rdf-syntax-ns#" xmlns:svg="http://www.w3.org/2000/svg" xmlns="http://www.w3.org/2000/svg" xmlns:sodipodi="http://sodipodi.sourceforge.net/DTD/sodipodi-0.dtd" xmlns:inkscape="http://www.inkscape.org/namespaces/inkscape" viewBox="0 0 26.458333 26.458334" version="1.1" x="0px" y="0px"><g transform="translate(0,-270.54165)"><path style="color:#000000;font-style:normal;font-variant:normal;font-weight:normal;font-stretch:normal;font-size:medium;line-height:normal;font-family:sans-serif;font-variant-ligatures:normal;font-variant-position:normal;font-variant-caps:normal;font-variant-numeric:normal;font-variant-alternates:normal;font-feature-settings:normal;text-indent:0;text-align:start;text-decoration:none;text-decoration-line:none;text-decoration-style:solid;text-decoration-color:#000000;letter-spacing:normal;word-spacing:normal;text-transform:none;writing-mode:lr-tb;direction:ltr;text-orientation:mixed;dominant-baseline:auto;baseline-shift:baseline;text-anchor:start;white-space:normal;shape-padding:0;clip-rule:nonzero;display:inline;overflow:visible;visibility:visible;opacity:1;isolation:auto;mix-blend-mode:normal;color-interpolation:sRGB;color-interpolation-filters:linearRGB;solid-color:#000000;solid-opacity:1;vector-effect:none;fill:#000000;fill-opacity:1;fill-rule:nonzero;stroke:none;stroke-width:1.05833328;stroke-linecap:round;stroke-linejoin:round;stroke-miterlimit:4;stroke-dasharray:none;stroke-dashoffset:0;stroke-opacity:1;paint-order:stroke fill markers;color-rendering:auto;image-rendering:auto;shape-rendering:auto;text-rendering:auto;enable-background:accumulate" d="m 13.228516,271.33594 c -6.8616237,0 -12.43554725,5.57392 -12.43554725,12.43554 0,6.86163 5.57392355,12.43555 12.43554725,12.43555 6.861623,0 12.435547,-5.57392 12.435546,-12.43555 0,-6.86162 -5.573923,-12.43554 -12.435546,-12.43554 z m 0,1.05859 c 6.289657,0 11.376953,5.0873 11.376953,11.37695 0,6.28966 -5.087296,11.37696 -11.376953,11.37696 -6.2896579,0 -11.3769535,-5.0873 -11.3769535,-11.37696 0,-6.28965 5.0872956,-11.37695 11.3769535,-11.37695 z"></path><path style="color:#000000;font-style:normal;font-variant:normal;font-weight:normal;font-stretch:normal;font-size:medium;line-height:normal;font-family:sans-serif;font-variant-ligatures:normal;font-variant-position:normal;font-variant-caps:normal;font-variant-numeric:normal;font-variant-alternates:normal;font-feature-settings:normal;text-indent:0;text-align:start;text-decoration:none;text-decoration-line:none;text-decoration-style:solid;text-decoration-color:#000000;letter-spacing:normal;word-spacing:normal;text-transform:none;writing-mode:lr-tb;direction:ltr;text-orientation:mixed;dominant-baseline:auto;baseline-shift:baseline;text-anchor:start;white-space:normal;shape-padding:0;clip-rule:nonzero;display:inline;overflow:visible;visibility:visible;opacity:1;isolation:auto;mix-blend-mode:normal;color-interpolation:sRGB;color-interpolation-filters:linearRGB;solid-color:#000000;solid-opacity:1;vector-effect:none;fill:#000000;fill-opacity:1;fill-rule:nonzero;stroke:none;stroke-width:1.05833328;stroke-linecap:round;stroke-linejoin:round;stroke-miterlimit:4;stroke-dasharray:none;stroke-dashoffset:0;stroke-opacity:1;paint-order:stroke fill markers;color-rendering:auto;image-rendering:auto;shape-rendering:auto;text-rendering:auto;enable-background:accumulate" d="m 13.228516,273.18555 c -2.778111,0 -5.5218602,1.13513 -7.4863285,3.09961 -1.9644684,1.96446 -3.0996094,4.70822 -3.0996094,7.48632 0,2.77812 1.135141,5.52187 3.0996094,7.48633 1.9644675,1.96447 4.7082155,3.09962 7.4863285,3.09961 2.778109,0 5.521859,-1.13514 7.486328,-3.09961 1.964468,-1.96446 3.099609,-4.70821 3.099609,-7.48633 0,-2.7781 -1.135141,-5.52186 -3.099609,-7.48632 -1.964469,-1.96448 -4.708219,-3.09961 -7.486328,-3.09961 z m 0,1.05859 c 2.487746,0 4.977273,1.03195 6.736328,2.79102 1.759054,1.75905 2.791015,4.24859 2.791015,6.73632 0,2.48775 -1.031961,4.97728 -2.791015,6.73633 -1.759055,1.75906 -4.248582,2.79102 -6.736328,2.79102 -2.487745,10e-6 -4.9772732,-1.03196 -6.7363285,-2.79102 -1.7590544,-1.75905 -2.7910156,-4.24858 -2.7910156,-6.73633 0,-2.48773 1.0319612,-4.97727 2.7910156,-6.73632 1.7590545,-1.75907 4.2485805,-2.79102 6.7363285,-2.79102 z"></path><path style="opacity:1;fill:#000000;fill-opacity:1;stroke:none;stroke-width:1.05833328;stroke-linecap:round;stroke-linejoin:round;stroke-miterlimit:4;stroke-dasharray:none;stroke-dashoffset:0;stroke-opacity:1;paint-order:stroke fill markers" d="m 5.5548729,283.7738 a 0.52916664,0.52916664 0 0 1 -0.5291666,0.52917 0.52916664,0.52916664 0 0 1 -0.5291666,-0.52917 0.52916664,0.52916664 0 0 1 0.5291666,-0.52916 0.52916664,0.52916664 0 0 1 0.5291666,0.52916 z"></path><path style="opacity:1;fill:#000000;fill-opacity:1;stroke:none;stroke-width:1.05833328;stroke-linecap:round;stroke-linejoin:round;stroke-miterlimit:4;stroke-dasharray:none;stroke-dashoffset:0;stroke-opacity:1;paint-order:stroke fill markers" d="m 21.963174,283.7738 a 0.52916664,0.52916664 0 0 1 -0.529166,0.52917 0.52916664,0.52916664 0 0 1 -0.529167,-0.52917 0.52916664,0.52916664 0 0 1 0.529167,-0.52916 0.52916664,0.52916664 0 0 1 0.529166,0.52916 z"></path><path style="opacity:1;fill:#000000;fill-opacity:1;stroke:none;stroke-width:1.05833328;stroke-linecap:round;stroke-linejoin:round;stroke-miterlimit:4;stroke-dasharray:none;stroke-dashoffset:0;stroke-opacity:1;paint-order:stroke fill markers" d="m 13.755833,283.7738 a 0.52916664,0.52916664 0 0 1 -0.529167,0.52917 0.52916664,0.52916664 0 0 1 -0.529166,-0.52917 0.52916664,0.52916664 0 0 1 0.529166,-0.52916 0.52916664,0.52916664 0 0 1 0.529167,0.52916 z"></path><path style="opacity:1;fill:#000000;fill-opacity:1;stroke:none;stroke-width:1.05833328;stroke-linecap:round;stroke-linejoin:round;stroke-miterlimit:4;stroke-dasharray:none;stroke-dashoffset:0;stroke-opacity:1;paint-order:stroke fill markers" d="m 13.755833,275.57172 a 0.52916664,0.52916664 0 0 1 -0.529167,0.52916 0.52916664,0.52916664 0 0 1 -0.529166,-0.52916 0.52916664,0.52916664 0 0 1 0.529166,-0.52917 0.52916664,0.52916664 0 0 1 0.529167,0.52917 z"></path><path style="opacity:1;fill:#000000;fill-opacity:1;stroke:none;stroke-width:1.05833328;stroke-linecap:round;stroke-linejoin:round;stroke-miterlimit:4;stroke-dasharray:none;stroke-dashoffset:0;stroke-opacity:1;paint-order:stroke fill markers" d="m 13.755833,291.97073 a 0.52916664,0.52916664 0 0 1 -0.529167,0.52917 0.52916664,0.52916664 0 0 1 -0.529166,-0.52917 0.52916664,0.52916664 0 0 1 0.529166,-0.52916 0.52916664,0.52916664 0 0 1 0.529167,0.52916 z"></path><path style="color:#000000;font-style:normal;font-variant:normal;font-weight:normal;font-stretch:normal;font-size:medium;line-height:normal;font-family:sans-serif;font-variant-ligatures:normal;font-variant-position:normal;font-variant-caps:normal;font-variant-numeric:normal;font-variant-alternates:normal;font-feature-settings:normal;text-indent:0;text-align:start;text-decoration:none;text-decoration-line:none;text-decoration-style:solid;text-decoration-color:#000000;letter-spacing:normal;word-spacing:normal;text-transform:none;writing-mode:lr-tb;direction:ltr;text-orientation:mixed;dominant-baseline:auto;baseline-shift:baseline;text-anchor:start;white-space:normal;shape-padding:0;clip-rule:nonzero;display:inline;overflow:visible;visibility:visible;opacity:1;isolation:auto;mix-blend-mode:normal;color-interpolation:sRGB;color-interpolation-filters:linearRGB;solid-color:#000000;solid-opacity:1;vector-effect:none;fill:#000000;fill-opacity:1;fill-rule:nonzero;stroke:none;stroke-width:3.99999976;stroke-linecap:butt;stroke-linejoin:round;stroke-miterlimit:4;stroke-dasharray:none;stroke-dashoffset:0;stroke-opacity:1;color-rendering:auto;image-rendering:auto;shape-rendering:auto;text-rendering:auto;enable-background:accumulate" d="M 50.042969 23 A 2.0002 2.0002 0 0 0 48.121094 24.316406 L 42.529297 39.691406 L 40.416016 37.578125 A 2.0002001 2.0002001 0 0 0 38.976562 36.972656 A 2.0002001 2.0002001 0 0 0 37.582031 40.40625 L 39.703125 42.527344 L 24.316406 48.121094 A 2.0002 2.0002 0 0 0 24.316406 51.878906 L 39.683594 57.466797 L 37.574219 59.576172 A 2.0002001 2.0002001 0 1 0 40.400391 62.404297 L 42.521484 60.283203 L 48.121094 75.683594 A 2.0002 2.0002 0 0 0 51.878906 75.683594 L 57.46875 60.308594 L 59.580078 62.417969 A 2.0017892 2.0017892 0 1 0 62.40625 59.583984 L 60.294922 57.474609 L 75.683594 51.878906 A 2.0002 2.0002 0 0 0 75.683594 48.121094 L 60.298828 42.527344 L 62.414062 40.414062 A 2.0002001 2.0002001 0 0 0 60.958984 36.980469 A 2.0002001 2.0002001 0 0 0 59.585938 37.585938 L 57.472656 39.701172 L 51.878906 24.316406 A 2.0002 2.0002 0 0 0 50.042969 23 z M 50 30.851562 L 54.787109 44.017578 A 2.0002 2.0002 0 0 0 55.982422 45.212891 L 69.148438 50 L 55.982422 54.787109 A 2.0002 2.0002 0 0 0 54.787109 55.982422 L 50 69.148438 L 45.212891 55.982422 A 2.0002 2.0002 0 0 0 44.017578 54.787109 L 30.851562 50 L 44.017578 45.212891 A 2.0002 2.0002 0 0 0 45.212891 44.017578 L 50 30.851562 z " transform="matrix(0.26458333,0,0,0.26458333,0,270.54165)"></path></g></svg></g></g></svg>