<svg xmlns="http://www.w3.org/2000/svg" xmlns:xlink="http://www.w3.org/1999/xlink" width="100" height="100" viewBox="0 0 100 100"><g><g transform="translate(50 50) scale(0.69 0.69) rotate(0) translate(-50 -50)" style="fill:#252627"><svg fill="#252627" xmlns="http://www.w3.org/2000/svg" xmlns:xlink="http://www.w3.org/1999/xlink" version="1.1" x="0px" y="0px" viewBox="0 0 64 64" style="enable-background:new 0 0 64 64;" xml:space="preserve"><path d="M13.974,37.001C14.609,36.162,15,35.13,15,34c0-2.757-2.243-5-5-5s-5,2.243-5,5c0,1.13,0.391,2.162,1.026,3.001  C3.806,37.004,2,38.811,2,41.032V50c0,0.552,0.448,1,1,1h2v11c0,0.552,0.448,1,1,1h8c0.552,0,1-0.448,1-1V51h2c0.552,0,1-0.448,1-1  v-8.968C18,38.811,16.194,37.004,13.974,37.001z M10,31c1.654,0,3,1.346,3,3s-1.346,3-3,3s-3-1.346-3-3S8.346,31,10,31z M16,49h-1  v-8h-2v20h-2V49H9v12H7V41H5v8H4v-7.968C4,39.912,4.912,39,6.032,39h7.936C15.088,39,16,39.912,16,41.032V49z"></path><path d="M35.974,37.001C36.609,36.162,37,35.13,37,34c0-2.757-2.243-5-5-5s-5,2.243-5,5c0,1.13,0.391,2.162,1.026,3.001  C25.806,37.004,24,38.811,24,41.032V50c0,0.552,0.448,1,1,1h2v11c0,0.552,0.448,1,1,1h8c0.552,0,1-0.448,1-1V51h2  c0.552,0,1-0.448,1-1v-8.968C40,38.811,38.194,37.004,35.974,37.001z M32,31c1.654,0,3,1.346,3,3s-1.346,3-3,3s-3-1.346-3-3  S30.346,31,32,31z M38,49h-1v-8h-2v20h-2V49h-2v12h-2V41h-2v8h-1v-7.968C26,39.912,26.912,39,28.032,39h7.936  C37.088,39,38,39.912,38,41.032V49z"></path><path d="M57.974,37.001C58.609,36.162,59,35.13,59,34c0-2.757-2.243-5-5-5s-5,2.243-5,5c0,1.13,0.391,2.162,1.026,3.001  C47.806,37.004,46,38.811,46,41.032V50c0,0.552,0.448,1,1,1h2v11c0,0.552,0.448,1,1,1h8c0.552,0,1-0.448,1-1V51h2  c0.552,0,1-0.448,1-1v-8.968C62,38.811,60.194,37.004,57.974,37.001z M54,31c1.654,0,3,1.346,3,3s-1.346,3-3,3s-3-1.346-3-3  S52.346,31,54,31z M51,41h-2v8h-1v-7.968C48,39.912,48.912,39,50.032,39h7.936C59.088,39,60,39.912,60,41.032V49h-1v-8h-2v20h-2V49  h-2v12h-2"></path><path d="M32,1c-5.514,0-10,4.486-10,10s4.486,10,10,10s10-4.486,10-10S37.514,1,32,1z M32,19c-4.411,0-8-3.589-8-8s3.589-8,8-8  s8,3.589,8,8S36.411,19,32,19z"></path><path d="M7.932,12.442l-0.391,2.396c-0.062,0.378,0.098,0.758,0.411,0.979c0.314,0.22,0.726,0.243,1.06,0.058L11,14.776l1.988,1.099  C13.14,15.958,13.306,16,13.472,16c0.202,0,0.404-0.062,0.576-0.183c0.313-0.22,0.473-0.601,0.411-0.979l-0.391-2.396l1.647-1.688  c0.262-0.268,0.352-0.66,0.232-1.016s-0.427-0.615-0.797-0.671l-2.236-0.342l-1.009-2.15C11.741,6.224,11.388,6,11,6  s-0.741,0.224-0.905,0.575l-1.009,2.15L6.849,9.067C6.479,9.124,6.171,9.383,6.052,9.738s-0.029,0.748,0.232,1.016L7.932,12.442z   M9.915,10.622c0.33-0.051,0.613-0.262,0.754-0.564L11,9.354l0.331,0.705c0.142,0.302,0.424,0.513,0.754,0.564l0.84,0.128  l-0.641,0.657c-0.222,0.227-0.322,0.546-0.271,0.859l0.141,0.862l-0.67-0.37c-0.15-0.083-0.317-0.125-0.484-0.125  s-0.333,0.042-0.484,0.125l-0.67,0.37l0.141-0.862c0.051-0.313-0.049-0.632-0.271-0.859L9.075,10.75L9.915,10.622z"></path><path d="M11,21c5.514,0,10-4.486,10-10S16.514,1,11,1S1,5.486,1,11S5.486,21,11,21z M11,3c4.411,0,8,3.589,8,8s-3.589,8-8,8  s-8-3.589-8-8S6.589,3,11,3z"></path><path d="M53,1c-5.514,0-10,4.486-10,10s4.486,10,10,10s10-4.486,10-10S58.514,1,53,1z M53,19c-4.411,0-8-3.589-8-8s3.589-8,8-8  s8,3.589,8,8S57.411,19,53,19z"></path><path d="M57,7h-8c-0.552,0-1,0.448-1,1v5c0,0.552,0.448,1,1,1h1.92l0.677,2.284c0.113,0.381,0.441,0.659,0.836,0.708  C52.474,16.998,52.515,17,52.556,17c0.35,0,0.678-0.184,0.86-0.49L54.903,14H57c0.552,0,1-0.448,1-1V8C58,7.448,57.552,7,57,7z   M56,12h-1.667c-0.353,0-0.68,0.187-0.86,0.49l-0.61,1.029l-0.238-0.803C52.5,12.291,52.109,12,51.667,12H50V9h6V12z"></path><path d="M32.878,7.879l-0.707,0.707l-0.707-0.707c-1.17-1.17-3.073-1.17-4.243,0c-0.566,0.566-0.878,1.32-0.878,2.121  s0.312,1.555,0.878,2.121l4.243,4.243c0.195,0.195,0.451,0.293,0.707,0.293s0.512-0.098,0.707-0.293l4.243-4.242  C37.688,11.555,38,10.801,38,10s-0.312-1.555-0.878-2.121C35.988,6.745,34.012,6.745,32.878,7.879z M35.707,10.707l-3.536,3.536  l-3.536-3.536c-0.188-0.189-0.292-0.44-0.292-0.707s0.104-0.518,0.292-0.707C28.831,9.098,29.087,9,29.343,9  c0.256,0,0.513,0.098,0.708,0.292l1.414,1.414c0.391,0.391,1.023,0.391,1.414,0l1.415-1.414c0,0,0,0,0,0  c0.377-0.378,1.036-0.378,1.414,0C35.896,9.482,36,9.733,36,10S35.896,10.518,35.707,10.707z"></path><rect x="9" y="22" width="2" height="2"></rect><rect x="31" y="22" width="2" height="2"></rect><rect x="53" y="22" width="2" height="2"></rect><rect x="9" y="26" width="2" height="2"></rect><rect x="31" y="26" width="2" height="2"></rect><rect x="53" y="26" width="2" height="2"></rect></svg></g></g></svg>