<svg fill="#FFFFFF" xmlns="http://www.w3.org/2000/svg" xmlns:xlink="http://www.w3.org/1999/xlink" version="1.1" x="0px" y="0px" viewBox="0 0 283.464 283.464" enable-background="new 0 0 283.464 283.464" xml:space="preserve"><path d="M54.491,133.323c-1.869,0-3.389,1.52-3.389,3.389s1.52,3.389,3.389,3.389s3.389-1.52,3.389-3.389  S56.359,133.323,54.491,133.323z M54.491,138.736c-1.117,0-2.025-0.909-2.025-2.025c0-1.117,0.908-2.025,2.025-2.025  s2.025,0.908,2.025,2.025C56.516,137.828,55.607,138.736,54.491,138.736z"></path><path d="M80.653,136.333l1.355-0.155c-0.341-2.982-2.306-5.471-5.127-6.495l-0.465,1.282  C78.748,131.811,80.372,133.868,80.653,136.333z"></path><path d="M72.743,151.704l0.5,1.27c5.271-2.081,9.498-6.053,11.902-11.182l-1.234-0.579  C81.654,146.026,77.688,149.751,72.743,151.704z"></path><path d="M73.069,142.68c0.598-1.916,0.768-3.979,0.491-5.967l-0.017-0.081c-0.519-1.962-1.76-3.624-3.493-4.679l-0.709,1.165  c1.419,0.865,2.438,2.222,2.874,3.825c0.239,1.764,0.088,3.592-0.437,5.293c-1.766,3.938-5.679,6.439-10.006,6.394l-0.017,1.364  c0.05,0,0.099,0.001,0.148,0.001c4.818,0,9.178-2.83,11.137-7.241L73.069,142.68z"></path><path d="M268.087,116.013l3.651-1.74l-4.02,0.446c-2.775,0.308-5.489,1.013-8.064,2.095c-9.83,4.13-19.149,9.455-27.682,15.814  c-2.594,1.8-5.749,2.614-8.85,2.294c-7.131-1.166-14.261-2.333-21.392-3.5c-1.32-5.2-3.563-10.052-6.689-14.422  c-1.162-1.625-1.832-3.54-1.936-5.535l-0.053-1.025l-0.925,0.446c-7.576,3.657-14.239,9.138-19.298,15.86  c-13.724-0.386-27.445-0.763-41.167-1.14c-0.125-0.35-0.2-0.718-0.213-1.088l-0.01-0.275l-0.198-0.191  c-1.463-1.412-1.893-3.608-1.068-5.467l0.304-0.686l-0.711-0.238c-1.36-0.455-2.105-1.889-1.694-3.263l0.259-0.865l-0.903-0.012  c-1.155-0.015-2.083-0.967-2.068-2.122l0.012-0.877l-0.853,0.205c-0.716,0.171-1.426-0.25-1.619-0.96l-0.237-0.873l-0.774,0.469  c-0.841,0.508-1.866,0.647-2.813,0.383l-0.345-0.097l-0.275,0.229c-4.792,3.996-8.296,9.236-10.167,15.177  c-11.347,0.027-22.72,0.928-33.913,2.692c-16.357,2.577-32.813,5.844-48.909,9.709l-0.175,0.042l-0.131,0.123  c-0.236,0.221-0.372,0.52-0.383,0.842c-0.011,0.323,0.104,0.63,0.325,0.866c0.167,0.179,0.382,0.302,0.622,0.355l0.055,0.01  c4.988,0.683,9.801,2.271,14.197,4.66c-3.13-0.887-6.39-1.3-9.661-1.206c-2.438,0.063-4.826-0.346-7.101-1.229l-0.099-0.039  l-0.106-0.006c-1.628-0.1-3.221,0.516-4.357,1.693l-0.324,0.335l0.196,0.424c0.734,1.593,2.203,2.74,3.927,3.069  c24.772,4.723,50.092,7.937,75.252,9.552c0.625,0.045,1.251,0.083,1.877,0.126c1.222,5.833,3.396,11.376,6.483,16.479l0.317,0.524  l0.556-0.26c4.918-2.307,8.467-6.868,9.496-12.214c0.217-1.226,0.545-2.437,0.967-3.609c19.69,0.688,39.483,0.313,59.069-1.126  c3.644,2.527,7.033,5.439,10.076,8.665c3.021,3.186,6.871,5.427,11.133,6.482l0.784,0.193l0.06-0.805  c0.372-4.994,1.703-9.794,3.957-14.272c0.81-1.646,0.613-3.563-0.401-5.001c7.318-0.739,14.69-0.96,22.074-0.643  c4.128,0.24,8.115,1.871,11.228,4.594c8.94,7.82,19.746,13.524,31.246,16.494l0.465-1.275c-6.264-2.991-10.208-9.398-10.061-16.335  c0.672-4.107-1.19-8.212-4.612-10.444c3.38-1.793,5.38-5.463,4.963-9.368C256.53,127.162,260.832,119.47,268.087,116.013z   M186.842,128.985c2.706-2.998,6.104-5.275,9.914-6.641c0.856,1.597,1.604,3.245,2.245,4.94c-2.389,0.372-4.683,1.261-6.7,2.594  C190.481,129.581,188.662,129.283,186.842,128.985z M199.478,128.596c0.289,0.85,0.544,1.713,0.778,2.585  c-1.954-0.32-3.908-0.64-5.862-0.959C195.978,129.39,197.703,128.841,199.478,128.596z M196.09,121.133  c-4.211,1.549-7.935,4.16-10.832,7.593c-1.6-0.262-3.198-0.523-4.798-0.785c3.095-4.898,7.742-8.602,13.218-10.529  c0.084,0.128,0.166,0.256,0.256,0.381C194.708,118.877,195.427,119.991,196.09,121.133z M191.841,112.55  c0.178,1.278,0.567,2.512,1.144,3.662c-5.841,2.118-10.766,6.165-13.977,11.492c-1.538-0.252-3.076-0.503-4.615-0.755  C179.06,120.94,185.056,115.988,191.841,112.55z M130.106,124.841c0.023,0.244,0.069,0.486,0.127,0.725  c-2.381-0.065-4.763-0.133-7.145-0.198c1.523-2.051,3.313-3.859,5.338-5.41C128.261,121.725,128.852,123.52,130.106,124.841z   M128.246,118.391c-2.648,1.913-4.928,4.24-6.795,6.932c-0.768-0.021-1.535-0.043-2.302-0.064c1.988-3.552,4.503-6.73,7.505-9.472  C126.818,116.826,127.383,117.765,128.246,118.391z M125.995,114.551c-3.401,3.05-6.216,6.629-8.381,10.665  c-0.425-0.012-0.85-0.024-1.274-0.035c-0.369-0.013-0.737-0.021-1.106-0.031c2.126-4.693,5.22-8.957,9.022-12.435  C124.583,113.525,125.206,114.18,125.995,114.551z M123.124,111.908c-3.98,3.694-7.194,8.223-9.361,13.201  c-0.357-0.008-0.714-0.012-1.07-0.018c1.957-5.35,5.168-10.172,9.351-14.04C122.326,111.428,122.698,111.723,123.124,111.908z   M119.072,111.144c0.271,0.054,0.544,0.083,0.818,0.091c-3.856,3.909-6.813,8.639-8.637,13.833  c-0.511-0.006-1.021-0.007-1.533-0.009C111.508,119.642,114.723,114.852,119.072,111.144z M106.913,172.31  c-2.773-4.712-4.753-9.801-5.913-15.142c0.849,0.056,1.698,0.11,2.548,0.162c1.894,4.327,4.349,8.38,7.306,12.063  C109.709,170.554,108.385,171.547,106.913,172.31z M107.637,157.566c2.13,2.011,4.548,3.655,7.196,4.897  c-0.588,2.181-1.637,4.191-3.053,5.906c-2.676-3.362-4.924-7.038-6.698-10.951C105.934,157.468,106.785,157.52,107.637,157.566z   M115.145,161.103c-1.916-0.925-3.7-2.074-5.332-3.433c2.052,0.102,4.105,0.19,6.16,0.269  C115.623,158.974,115.346,160.036,115.145,161.103z M197.234,170.485c-3.7-1.063-7.04-3.087-9.696-5.888  c-2.825-2.995-5.945-5.728-9.286-8.14c1.675-0.442,3.354-0.858,5.04-1.243c4.778,3.396,9.819,6.507,14.997,9.26  C197.787,166.44,197.427,168.445,197.234,170.485z M188.945,154.032c3.446,2.211,7.137,4.04,10.982,5.45  c-0.483,1.195-0.91,2.409-1.272,3.641c-4.666-2.494-9.217-5.283-13.56-8.31C186.375,154.536,187.659,154.276,188.945,154.032z   M200.456,158.223c-3.309-1.209-6.502-2.734-9.517-4.555c1.391-0.244,2.784-0.469,4.18-0.675c2.073,1.019,4.241,1.867,6.455,2.536  c-0.054,0.339-0.155,0.674-0.313,0.994C200.978,157.085,200.709,157.652,200.456,158.223z M201.506,154.08  c-1.315-0.414-2.612-0.893-3.88-1.437c0.929-0.121,1.858-0.235,2.789-0.34C200.961,152.783,201.333,153.406,201.506,154.08z   M257.34,125.692c-7.702,1.695-14.931,5.291-20.921,10.423l0.887,1.036c5.605-4.801,12.323-8.22,19.496-9.937  c-0.756,2.473-1.043,5.109-0.798,7.782c-5.88,0.095-11.749,1.511-17.019,4.121l0.605,1.222c5.1-2.526,10.794-3.904,16.473-3.981  c-0.075,3.285-2.12,6.217-5.259,7.391c-2.463-0.312-4.926-0.621-7.389-0.929l-0.169,1.354c2.48,0.31,4.961,0.621,7.44,0.936  c2.867,1.394,4.746,4.183,5.063,7.259c-4.919-2.62-10.113-4.741-15.463-6.296l-0.381,1.31c5.503,1.6,10.838,3.804,15.871,6.548  c-0.021,0.286-0.051,0.572-0.1,0.859l-0.009,0.097c-0.04,1.676,0.148,3.321,0.53,4.905c-5.8-2.84-11.548-5.932-17.104-9.21  l-0.693,1.175c5.943,3.507,12.104,6.804,18.314,9.807c1.127,3.251,3.114,6.159,5.767,8.383c-9.611-3.139-18.596-8.233-26.205-14.89  c-3.339-2.921-7.617-4.672-12.057-4.929c-2.233-0.097-4.464-0.145-6.693-0.145c-13.842,0-27.596,1.849-40.979,5.513  c-26.125,1.929-52.62,1.96-78.752,0.092c-25.109-1.612-50.373-4.819-75.089-9.531c-1.132-0.216-2.117-0.902-2.714-1.872  c0.793-0.651,1.801-0.997,2.833-0.953c2.414,0.921,4.946,1.353,7.529,1.279c5.356-0.153,10.681,1.109,15.404,3.642  c1.722,1.318,4.024,1.612,6.023,0.761l-0.534-1.255c-1.561,0.664-3.361,0.427-4.697-0.617c-5.694-4.45-12.438-7.393-19.564-8.545  c15.679-3.732,31.687-6.894,47.602-9.401c13.756-2.167,27.787-3.026,41.707-2.55c18.934,0.516,37.866,1.041,56.798,1.574  c16.603,2.718,33.205,5.436,49.848,8.157c3.467,0.357,6.947-0.54,9.826-2.538c8.463-6.307,17.687-11.577,27.414-15.664  c1.321-0.555,2.68-1.006,4.065-1.35C261.115,119.015,258.741,122.146,257.34,125.692z"></path><path d="M90.218,131.884l-0.336,1.322c22.708,5.767,46.1,8.899,69.533,9.31c23.621,0.123,47.57,0.651,71.183,1.569l0.054-1.363  c-23.628-0.918-47.593-1.446-71.221-1.569C136.111,140.743,112.824,137.625,90.218,131.884z"></path><path d="M89.447,141.171l0.215,1.347c7.049-1.124,14.367-0.678,21.231,1.289c-0.648,0.751-1.382,1.42-2.185,1.993  c-4.862-1.698-9.93-2.361-15.072-1.964l0.104,1.359c4.571-0.351,9.08,0.171,13.428,1.536c-0.346,0.179-0.698,0.345-1.062,0.49  c-1.486,0.596-2.866,1.415-4.104,2.413c-2.592-0.598-5.196-1.245-7.747-1.937l-0.356,1.317c2.262,0.612,4.566,1.186,6.867,1.725  c-0.412,0.409-0.806,0.836-1.172,1.288c-3.104,0.255-6.192-0.599-8.73-2.412l-0.793,1.11c2.478,1.77,5.432,2.709,8.451,2.709  c0.497,0,0.997-0.025,1.495-0.076l0.29-0.03l0.179-0.229c1.597-2.051,3.715-3.646,6.128-4.611c2.394-0.959,4.465-2.564,5.99-4.644  l0.566-0.771l-0.915-0.283C104.917,140.521,97.03,139.961,89.447,141.171z"></path><path d="M54.892,146.879c-1.388-2.454-3.572-4.432-6.151-5.57c-3.063-1.352-6.268-2.437-9.525-3.223l-0.32,1.326  c3.178,0.768,6.305,1.826,9.295,3.146c2.312,1.021,4.27,2.793,5.514,4.993c0.562,0.995,1.452,1.788,2.505,2.234l0.531-1.257  C55.964,148.199,55.307,147.613,54.892,146.879z"></path></svg>