<svg xmlns="http://www.w3.org/2000/svg" xmlns:xlink="http://www.w3.org/1999/xlink" width="100" height="100" viewBox="0 0 100 100">
<g>
<g transform="translate(50 50) scale(0.69 0.69) rotate(0) translate(-50 -50)" fill="#0d2765">
<svg fill="#0d2765" xmlns="http://www.w3.org/2000/svg" xmlns:xlink="http://www.w3.org/1999/xlink" version="1.1" x="0px" y="0px" viewBox="0 0 48 48" style="enable-background:new 0 0 48 48;" xml:space="preserve">
<path d="M47.7,41.7l-1.4-1.4L44,42.6C37.3,36.6,33.3,27.1,33,17h2v-2h-2v-2h-2v2H17v-2h-2v2h-2v2h2C14.7,27.1,10.7,36.6,4,42.6  l-2.3-2.3l-1.4,1.4L2.6,44H0v2h17v-1v-1v-8h-2v8H5.5c5.2-4.8,8.9-11.4,10.5-18.9c1.7,7.5,5.3,14.2,10.5,18.9H19v2h29v-2h-2.6  L47.7,41.7z M17,17h14c0.3,10.6,4.5,20.6,11.5,27H29.4l2.3-2.3l-1.4-1.4L28,42.6C21.3,36.6,17.3,27.1,17,17z M26,13h-2  c0-6.6,5.4-12,12-12s12,5.4,12,12s-5.4,12-12,12v-2c5.5,0,10-4.5,10-10S41.5,3,36,3S26,7.5,26,13z M0,12v-2c1.5,0,2.9,0.7,3.8,1.8  C5,9.5,7.3,8,10,8v2c-2.8,0-5,2.2-5,5H3C3,13.3,1.7,12,0,12z">
</path>
</svg>
</g>
</g>
</svg>
