<svg height='100px' width='100px'  fill="#3d59a0" xmlns:cc="http://creativecommons.org/ns#" xmlns:dc="http://purl.org/dc/elements/1.1/" xmlns:inkscape="http://www.inkscape.org/namespaces/inkscape" xmlns:rdf="http://www.w3.org/1999/02/22-rdf-syntax-ns#" xmlns:sodipodi="http://sodipodi.sourceforge.net/DTD/sodipodi-0.dtd" xmlns:svg="http://www.w3.org/2000/svg" xmlns="http://www.w3.org/2000/svg" xmlns:xlink="http://www.w3.org/1999/xlink" version="1.1" x="0px" y="0px" viewBox="0 0 32 32" style="enable-background:new 0 0 32 32;" xml:space="preserve"><g><path d="M8,7C7.5,7,7,7.4,7,8c0,0.3,0.1,0.5,0.3,0.7l7.3,7.3l-7.3,7.3   c-0.4,0.4-0.4,1,0,1.4c0.4,0.4,1,0.4,1.4,0c0,0,0,0,0,0l8-8c0.4-0.4,0.4-1,0-1.4c0,0,0,0,0,0l-8-8C8.5,7.1,8.3,7,8,7z"></path><path d="M13,4c-0.6,0-1,0.4-1,1c0,0.3,0.1,0.5,0.3,0.7L22.6,16L12.3,26.3   c-0.4,0.4-0.4,1,0,1.4c0.4,0.4,1,0.4,1.4,0c0,0,0,0,0,0l11-11c0.4-0.4,0.4-1,0-1.4c0,0,0,0,0,0l-11-11C13.5,4.1,13.3,4,13,4z"></path></g></svg>