<svg xmlns="http://www.w3.org/2000/svg" xmlns:xlink="http://www.w3.org/1999/xlink" width="100" height="100" viewBox="0 0 100 100"><g><g transform="translate(50 50) scale(0.69 0.69) rotate(0) translate(-50 -50)" style="fill:#0d2765"><svg fill="#0d2765" xmlns="http://www.w3.org/2000/svg" data-name="Layer 1" viewBox="0 0 100 100" x="0px" y="0px"><defs><style>.cls-1{fill:#0d2765;}</style></defs><title>58 all</title><path class="cls-1" d="M56.12,25.07a2,2,0,0,0-2.83,2.83L75.39,50,53.29,72.1a2,2,0,1,0,2.83,2.83L79.63,51.41a2,2,0,0,0,0-2.83Z"></path><path class="cls-1" d="M23.2,25.07a2,2,0,0,0-2.83,2.83L42.47,50,20.37,72.1a2,2,0,1,0,2.83,2.83L46.71,51.41a2,2,0,0,0,0-2.83Z"></path></svg></g></g></svg>