<svg xmlns="http://www.w3.org/2000/svg" xmlns:xlink="http://www.w3.org/1999/xlink" width="100" height="100" viewBox="0 0 100 100"><g><g transform="translate(50 50) scale(0.69 0.69) rotate(0) translate(-50 -50)" style="fill:#252627"><svg fill="#252627" xmlns="http://www.w3.org/2000/svg" xmlns:xlink="http://www.w3.org/1999/xlink" version="1.1" x="0px" y="0px" viewBox="0 0 64 64" style="enable-background:new 0 0 64 64;" xml:space="preserve"><g><path d="M26,9c0-4.411-3.589-8-8-8s-8,3.589-8,8v4.826l-5,14V59h3.494c1.542,0,2.956,0.604,3.879,1.658   C13.307,61.727,15.042,63,18,63s4.693-1.273,5.627-2.342C24.55,59.604,25.964,59,27.506,59H31V27.827l-5-14V9z M15,21.411   C15.927,21.788,16.939,22,18,22s2.073-0.212,3-0.589V24h-6V21.411z M23,26v-5.765c0.918-0.737,1.664-1.674,2.186-2.741l0.83,2.325   l-1.296,5.832C24.413,27.034,23.208,28,21.792,28h-7.583c-1.417,0-2.621-0.966-2.929-2.349l-1.296-5.832l0.83-2.325   c0.521,1.068,1.268,2.004,2.186,2.741V26H23z M12,9c0-3.309,2.691-6,6-6s6,2.691,6,6v5c0,3.309-2.691,6-6,6s-6-2.691-6-6V9z    M12,57.867V35c0-0.552,0.449-1,1-1s1,0.448,1,1v24.452c-0.038-0.041-0.086-0.069-0.123-0.111   C13.35,58.739,12.711,58.247,12,57.867z M22.123,59.342c-0.037,0.042-0.084,0.07-0.123,0.111V35c0-0.552,0.449-1,1-1s1,0.448,1,1   v22.867C23.289,58.247,22.65,58.739,22.123,59.342z M29,57h-1.494c-0.514,0-1.018,0.052-1.506,0.15V35c0-1.654-1.346-3-3-3   s-3,1.346-3,3v25.686C19.397,60.88,18.74,61,18,61s-1.397-0.12-2-0.314V35c0-1.654-1.346-3-3-3s-3,1.346-3,3v22.15   C9.512,57.052,9.008,57,8.494,57H7V28.173l1.721-4.819l0.607,2.73C9.84,28.39,11.847,30,14.208,30h7.583   c2.361,0,4.369-1.61,4.881-3.916l0.607-2.73L29,28.173V57z"></path><path d="M54,13.826V9c0-4.411-3.589-8-8-8s-8,3.589-8,8v4.826l-5,14V59h3.494c1.542,0,2.956,0.604,3.879,1.658   C41.307,61.727,43.042,63,46,63s4.693-1.273,5.627-2.342C52.55,59.604,53.964,59,55.506,59H59V27.827L54,13.826z M43,21.411   C43.927,21.788,44.939,22,46,22s2.073-0.212,3-0.589V24h-6V21.411z M51,26v-5.765c0.918-0.737,1.664-1.674,2.186-2.741l0.83,2.325   l-1.296,5.832C52.413,27.034,51.208,28,49.792,28h-7.583c-1.417,0-2.621-0.966-2.929-2.349l-1.296-5.832l0.83-2.325   c0.521,1.068,1.268,2.004,2.186,2.741V26H51z M40,9c0-3.309,2.691-6,6-6s6,2.691,6,6v5c0,3.309-2.691,6-6,6s-6-2.691-6-6V9z    M40,57.867V35c0-0.552,0.449-1,1-1s1,0.448,1,1v24.452c-0.038-0.041-0.086-0.069-0.123-0.111   C41.35,58.739,40.711,58.247,40,57.867z M50.123,59.342c-0.037,0.042-0.084,0.07-0.123,0.111V35c0-0.552,0.449-1,1-1s1,0.448,1,1   v22.867C51.289,58.247,50.65,58.739,50.123,59.342z M57,57h-1.494c-0.514,0-1.018,0.052-1.506,0.15V35c0-1.654-1.346-3-3-3   s-3,1.346-3,3v25.686C47.397,60.88,46.74,61,46,61s-1.397-0.12-2-0.314V35c0-1.654-1.346-3-3-3s-3,1.346-3,3v22.15   C37.512,57.052,37.008,57,36.494,57H35V28.173l1.721-4.819l0.607,2.73C37.84,28.39,39.847,30,42.208,30h7.583   c2.361,0,4.369-1.61,4.881-3.916l0.607-2.73L57,28.173V57z"></path></g></svg></g></g></svg>