<svg xmlns="http://www.w3.org/2000/svg" xmlns:xlink="http://www.w3.org/1999/xlink" width="100" height="100" viewBox="0 0 100 100"><g><g transform="translate(50 50) scale(0.69 0.69) rotate(0) translate(-50 -50)" style="fill:#000000"><svg fill="#000000" xmlns="http://www.w3.org/2000/svg" xmlns:xlink="http://www.w3.org/1999/xlink" version="1.1" x="0px" y="0px" viewBox="0 0 100 100" enable-background="new 0 0 100 100" xml:space="preserve"><g><path d="M89.417,89.811v-7.743h-2.5v5.885L76.715,70.564h6.618v-2.5h-8.085l-2.923-4.981h15.842v-2.5H70.858l-6.656-11.422   l3.106-4.817l-2.102-1.354l-2.411,3.74l-2.134-3.689l-2.164,1.252l2.217,3.832H36.342l2.466-4.572l-2.2-1.187l-2.348,4.353   l-2.348-4.353l-2.2,1.187l3.128,5.799l-6.059,11.231H10.167v2.5h15.266l-2.158,4h-8.941v2.5h7.592l-8.95,16.592v-4.107h-2.5v7.743   H7v2.5h86.333v-2.5H89.417z M32.998,64.307c0,0.185-0.182,18.322-12.91,25.504h-6.233l19.143-35.487V64.307z M34.248,73.395   c1.327,5.318,4.064,11.855,9.707,16.416H24.54C30.184,85.25,32.921,78.713,34.248,73.395z M35.498,64.308V54.279l19.166,35.531   h-6.257C35.68,82.629,35.499,64.491,35.498,64.308z M55.544,82.067v4.106L36.367,50.625h25.75l22.991,39.186H58.044v-7.743H55.544z   "></path><path d="M78.238,41.75c4.479,0,8.688-1.746,11.854-4.916l2.332-2.335l-3.529,0.22c-0.217,0.015-0.435,0.031-0.656,0.031   c-7.857,0-14.25-6.393-14.25-14.25c0-3.802,1.479-7.377,4.166-10.068l2.331-2.335l-3.293,0.204   C68.387,8.847,61.488,16.182,61.488,25C61.488,34.236,69.002,41.75,78.238,41.75z M74.202,11.349   c-1.766,2.698-2.714,5.852-2.714,9.151c0,8.413,6.234,15.397,14.326,16.575c-2.248,1.417-4.854,2.175-7.576,2.175   c-7.857,0-14.25-6.393-14.25-14.25C63.988,18.588,68.277,13.097,74.202,11.349z"></path><path d="M18.034,30.763c0.001,0,0.003,0,0.005,0l1.703,0.038l-0.283-1.51c-0.135-0.723-0.204-1.434-0.204-2.114   c0-6.295,5.122-11.417,11.417-11.417c4.693,0,8.975,2.952,10.655,7.346l0.481,1.258l1.219-0.574   c0.98-0.462,2.017-0.696,3.082-0.696c3.998,0,7.25,3.252,7.25,7.25h2.5c0-5.376-4.374-9.75-9.75-9.75   c-1.008,0-1.997,0.155-2.951,0.462c-2.317-4.709-7.187-7.795-12.486-7.795c-7.674,0-13.917,6.243-13.917,13.917   c0,0.375,0.017,0.756,0.05,1.142c-6.188,0.605-11.04,5.837-11.04,12.181h2.5C8.266,35.131,12.632,30.763,18.034,30.763z"></path></g></svg></g></g></svg>