<svg xmlns="http://www.w3.org/2000/svg" xmlns:xlink="http://www.w3.org/1999/xlink" width="100" height="100" viewBox="0 0 100 100"><g><g transform="translate(50 50) scale(0.69 0.69) rotate(0) translate(-50 -50)" style="fill:#252627"><svg fill="#252627" xmlns="http://www.w3.org/2000/svg" xmlns:xlink="http://www.w3.org/1999/xlink" xml:space="preserve" version="1.1" style="shape-rendering:geometricPrecision;text-rendering:geometricPrecision;image-rendering:optimizeQuality;" viewBox="0 0 60000 60000" x="0px" y="0px" fill-rule="evenodd" clip-rule="evenodd"><defs><style type="text/css">
   
    .fil0 {fill:#252627;fill-rule:nonzero}
   
  </style></defs><g><path class="fil0" d="M35236 4979l47 1951c8,-19 17,-37 28,-54 224,-418 684,-754 1202,-915 324,-101 678,-136 1016,-83 355,56 691,209 961,485 318,325 532,812 554,1500 0,10 0,21 0,31l-112 6115c99,-662 494,-1215 989,-1536 279,-181 593,-290 908,-307 330,-18 658,63 950,267 566,394 977,1251 912,2739l0 5c-82,1947 -88,3961 -94,5996 -12,4105 -24,8295 -651,12144 -1,7 -2,14 -4,21 27,53 53,107 79,161 34,73 49,149 48,225 7,227 7,481 0,754 -24,953 -139,2123 -414,3067 -275,946 -720,1690 -1410,1895 -95,442 -185,840 -293,1244 -129,483 -283,973 -501,1553 191,1729 309,3441 428,5154 240,3470 481,6941 1326,10492 64,269 -103,538 -371,602 -39,9 -77,14 -115,14l0 0 -15452 0c-269,0 -489,-213 -500,-480 -151,-1403 -168,-3077 -185,-4752 -33,-3240 -66,-6479 -1041,-7468 -34,-34 -61,-72 -83,-112l-3433 -6015c-12,-22 -23,-45 -32,-67 -141,-324 -147,-692 -58,-1101 -298,-291 -563,-586 -780,-950 -224,-376 -389,-816 -473,-1382l-2 -13c-120,-817 -212,-1630 -304,-2442 -180,-1591 -360,-3181 -765,-4847 -137,-345 -251,-727 -293,-1133 -44,-430 -6,-883 171,-1344 436,-1134 725,-2264 1015,-3397 196,-766 393,-1534 643,-2331l18 -58c210,-670 258,-823 1018,-1142 193,-81 404,-139 624,-160 329,-31 668,26 982,224 298,187 565,496 764,972 156,372 272,856 332,1477 132,997 134,1900 16,2750 -110,791 -324,1535 -634,2264 227,484 395,1002 525,1537 142,585 237,1190 314,1794 33,258 175,483 355,695 61,-230 111,-461 151,-692l-70 -17c-267,-62 -434,-329 -374,-596l1105 -6871c42,-266 287,-449 553,-417l0 -1 125 15 479 -6017 -106 -14c-264,-36 -452,-272 -431,-535l-1 0 553 -6684c17,-202 152,-366 331,-430l452 -194c71,-648 135,-1192 197,-1662 71,-539 136,-955 201,-1294 315,-1638 1277,-2825 2449,-3490 667,-378 1403,-587 2129,-613 737,-27 1464,134 2100,495 928,527 1654,1470 1924,2866 7,38 10,76 9,114zm-15013 32674c270,-624 671,-1318 1109,-2076 644,-1114 1375,-2380 1853,-3691 -396,-398 -786,-816 -870,-1467 -74,-576 -164,-1153 -299,-1707 -131,-541 -304,-1060 -545,-1535 -59,-116 -55,-248 -1,-356 316,-711 533,-1434 640,-2206 109,-781 106,-1615 -17,-2540 -1,-8 -2,-16 -2,-24 -50,-533 -147,-941 -276,-1247 -129,-309 -285,-499 -451,-603 -150,-94 -318,-121 -485,-105 -129,12 -262,50 -389,104 -415,174 -443,261 -562,642l-18 58c-239,761 -435,1526 -631,2290 -292,1142 -584,2282 -1046,3485 -127,330 -153,661 -121,978 34,331 132,651 250,943 9,23 16,46 21,70 422,1728 605,3345 788,4962 90,798 181,1596 301,2414l2 12c67,453 196,800 370,1093 108,182 237,347 380,506zm15616 -28847c41,79 62,170 56,264l-97 6672c-3,270 -221,488 -490,492l-148 2 492 10819c349,341 723,671 1107,994 127,103 253,208 377,313l0 0c219,180 441,359 662,538 1281,1034 2561,2068 3496,3372 483,-3540 494,-7356 505,-11101 6,-2053 12,-4084 94,-6029l0 -6c50,-1168 -209,-1796 -572,-2049 -138,-96 -295,-135 -453,-126 -173,9 -351,73 -515,179 -404,261 -704,764 -640,1344l-1 0c1,14 2,28 2,42 -3,1904 -73,3694 -192,5451 -120,1764 -289,3501 -490,5290l0 0c-8,70 -34,140 -81,200 -135,174 -385,206 -559,72l-305 -236 0 0c-96,-74 -157,-191 -155,-322l313 -17102c-16,-462 -142,-772 -328,-962 -140,-143 -320,-223 -514,-254 -211,-33 -439,-9 -654,58 -310,96 -578,274 -711,487l-200 1596zm3080 5894l-41 2257c24,-741 38,-1492 41,-2257zm-306 29194c-1009,-1211 -1770,-2334 -2375,-3649 -600,-1303 -1039,-2784 -1410,-4715 -514,-342 -1032,-671 -1551,-987 -4467,2393 -6819,6080 -9070,9608 -127,199 -198,311 -251,395l345 604c1209,1312 1244,4710 1279,8109 15,1479 30,2957 141,4240l14372 0c-749,-3407 -979,-6724 -1209,-10041 -82,-1187 -164,-2374 -271,-3563zm-2597 -7545c310,1372 670,2486 1128,3482 364,791 793,1513 1310,2235 5,-24 12,-48 21,-71 228,-596 384,-1088 512,-1568 124,-464 223,-919 335,-1447 -1084,-959 -2187,-1831 -3306,-2631zm-12145 -3480c741,-748 1517,-1437 2414,-1925 -550,-244 -1100,-482 -1650,-716 -122,903 -404,1790 -764,2640zm3622 -1378c-1484,532 -2660,1788 -3836,3043 -400,427 -799,854 -1188,1234 -102,100 -192,214 -276,338 -63,92 -124,192 -185,297 -740,1286 -1301,2319 -1105,2794l2495 4371c2224,-3486 4552,-7116 8885,-9614 -120,-69 -240,-138 -360,-205 -1462,-826 -2942,-1568 -4430,-2257zm-3202 -2490c2717,1134 5442,2363 8124,3880 2645,1496 5241,3267 7732,5496 223,-196 406,-607 552,-1109 248,-853 352,-1930 374,-2814 6,-221 6,-430 2,-621 -822,-1670 -2361,-2912 -3901,-4155 -228,-184 -456,-368 -682,-554l0 0 -8 -6c-115,-94 -229,-189 -342,-284 -1578,-1284 -3329,-2367 -5135,-3240 -1931,-933 -3924,-1628 -5835,-2074l-882 5480zm1643 -6322c1814,463 3688,1137 5507,2017 1089,527 2160,1127 3187,1800l-467 -10262 -7714 -5 -514 6450zm15 -7447l8860 5 84 -5789 -111 -21 -7986 -22 -380 163 -469 5664zm1301 -6822l7074 20 -83 -3411c-213,-1060 -749,-1767 -1429,-2153 -471,-268 -1016,-387 -1572,-366 -567,21 -1145,185 -1672,484 -936,531 -1706,1486 -1960,2810 -65,338 -127,735 -193,1236 -50,380 -104,834 -165,1381z"></path></g></svg></g></g></svg>