<svg fill="#0D2765" xmlns="http://www.w3.org/2000/svg" xmlns:xlink="http://www.w3.org/1999/xlink" version="1.1" x="0px" y="0px" viewBox="0 0 1133.9 1133.9" enable-background="new 0 0 1133.9 1133.9" xml:space="preserve"><g><path d="M187,720.7c45.7,40.3,122.9,40.3,168.6,0l1.5-1.3c32.5-28.6,91.6-28.6,124,0l1.5,1.3c45.7,40.3,122.9,40.3,168.6,0l1.5-1.3   c32.5-28.6,91.6-28.6,124,0l1.5,1.3c22.8,20.1,53.6,30.2,84.3,30.2c30.7,0,61.5-10.1,84.3-30.2l1.5-1.3c7-6.2,7.6-16.8,1.5-23.8   c-6.2-7-16.8-7.6-23.8-1.5l-1.5,1.3c-30.7,27.1-85.2,28.5-118.5,4.4v-80.4c29.2-20.5,49.5-53.1,53.5-91.2l27.2-259.5   c0.8-7.9-4-15.3-11.5-17.8c-7.5-2.5-15.8,0.6-19.8,7.5c-6.1,10.4-17.3,16.9-29.3,16.9c-14.1,0-26.5-8.5-31.6-21.6   c-2.5-6.5-8.8-10.7-15.7-10.7s-13.2,4.3-15.7,10.7c-5.1,13.1-17.5,21.6-31.6,21.6c-14.1,0-26.5-8.5-31.6-21.6   c-2.5-6.5-8.8-10.7-15.7-10.7c-6.9,0-13.2,4.3-15.7,10.7c-1.6,4.1-4,7.8-7,10.9l9.8-93.9c0.8-7.9-4-15.3-11.5-17.8   c-7.5-2.5-15.8,0.6-19.8,7.5c-8.3,14.2-23.7,23.1-40.1,23.1c-19.2,0-36.2-11.6-43.2-29.6c-2.5-6.5-8.8-10.7-15.7-10.7   c-6.9,0-13.2,4.3-15.7,10.7c-7,18-24,29.6-43.2,29.6c-19.2,0-36.2-11.6-43.2-29.6c-2.5-6.5-8.8-10.7-15.7-10.7   c-6.9,0-13.2,4.3-15.7,10.7c-7,18-24,29.6-43.2,29.6c-16.4,0-31.7-8.8-40.1-23.1c-4-6.9-12.3-10-19.8-7.5   c-7.5,2.5-12.3,9.9-11.5,17.8L327,493.8c5,48,31.5,88.9,69.2,113.6v58.4c-22.7,3.8-44.3,13.2-61.4,28.3l-1.5,1.3   c-32.5,28.6-91.6,28.6-124,0l-1.5-1.3c-7-6.2-17.6-5.5-23.8,1.5c-6.2,7-5.5,17.6,1.5,23.8L187,720.7z M630.4,694.1l-1.5,1.3   c-15.3,13.5-36.5,20.5-58.1,21.3V605.8c16.4-11.2,30.6-25.6,41.7-42.2c9.7,23.5,26,43.3,46.6,57.2v49.5c0,1.8,0.3,3.4,0.9,5   C649.3,680,639.3,686.3,630.4,694.1z M772.4,676.7c-24.3-11.6-52.6-15.3-79.5-11.1v-28.8c11.9,3.7,24.6,5.7,37.7,5.7h2   c13.9,0,27.2-2.2,39.7-6.3V676.7z M684.3,289.7c12.3,12.1,29.1,19.2,47.3,19.2c18.2,0,34.9-7.1,47.3-19.2   c12.3,12.1,29.1,19.2,47.3,19.2c7.9,0,15.7-1.4,22.9-4l-23,219.8c-5,48-45.2,84.2-93.5,84.2h-2c-48.2,0-88.4-36.2-93.5-84.2   l-1.7-16.5c0.9-4.7,1.7-9.4,2.2-14.3l19.7-188.1C667.6,302.5,676.8,297,684.3,289.7z M360.5,490.3l-29.4-280.6   c10.3,4.8,21.7,7.4,33.4,7.4c23,0,44.1-9.6,58.9-25.7c14.8,16.2,35.9,25.7,58.9,25.7s44.1-9.6,58.9-25.7   c14.8,16.2,35.9,25.7,58.9,25.7c11.7,0,23-2.6,33.4-7.4l-29.4,280.6c-6.5,61.9-58.3,108.6-120.5,108.6H481   C418.8,598.9,367,552.2,360.5,490.3z M481,632.6h2.5c18.8,0,36.9-3.4,53.6-9.5v89.5c-12.1-3.5-23.2-9.2-32.3-17.2l-1.5-1.3   c-20.2-17.8-46.5-27.7-73.5-29.8V624C446,629.5,463.2,632.6,481,632.6z"></path><path d="M926.1,814l-1.5,1.3c-32.5,28.6-91.6,28.6-124,0l-1.5-1.3c-45.7-40.3-122.9-40.3-168.6,0l-1.5,1.3   c-32.5,28.6-91.6,28.6-124,0l-1.5-1.3c-45.7-40.3-122.9-40.3-168.6,0l-1.5,1.3c-32.5,28.6-91.6,28.6-124,0l-1.5-1.3   c-7-6.2-17.6-5.5-23.8,1.5c-6.2,7-5.5,17.6,1.5,23.8l1.5,1.3c45.7,40.3,122.9,40.3,168.6,0l1.5-1.3c32.5-28.6,91.6-28.6,124,0   l1.5,1.3c45.7,40.3,122.9,40.3,168.6,0l1.5-1.3c32.5-28.6,91.6-28.6,124,0l1.5,1.3c22.8,20.1,53.6,30.2,84.3,30.2   c30.7,0,61.5-10.1,84.3-30.2l1.5-1.3c7-6.2,7.6-16.8,1.5-23.8C943.7,808.5,933,807.9,926.1,814z"></path><path d="M926.1,934l-1.5,1.3c-32.5,28.6-91.6,28.6-124,0l-1.5-1.3c-45.7-40.3-122.9-40.3-168.6,0l-1.5,1.3   c-32.5,28.6-91.6,28.6-124,0l-1.5-1.3c-45.7-40.3-122.9-40.3-168.6,0l-1.5,1.3c-32.5,28.6-91.6,28.6-124,0l-1.5-1.3   c-7-6.2-17.6-5.5-23.8,1.5c-6.2,7-5.5,17.6,1.5,23.8l1.5,1.3c45.7,40.3,122.9,40.3,168.6,0l1.5-1.3c32.5-28.6,91.6-28.6,124,0   l1.5,1.3c45.7,40.3,122.9,40.3,168.6,0l1.5-1.3c32.5-28.6,91.6-28.6,124,0l1.5,1.3c22.8,20.1,53.6,30.2,84.3,30.2   c30.7,0,61.5-10.1,84.3-30.2l1.5-1.3c7-6.2,7.6-16.8,1.5-23.8C943.7,928.5,933,927.8,926.1,934z"></path><path d="M428.3,237.2c-9.3,0.5-16.4,8.4-15.9,17.7l13.4,252c0.5,9,7.9,16,16.8,16c0.3,0,0.6,0,0.9,0c9.3-0.5,16.4-8.4,15.9-17.7   l-13.4-252C445.5,243.8,437.6,236.7,428.3,237.2z"></path><path d="M521.1,522.9c0.3,0,0.6,0,0.9,0c8.9,0,16.3-7,16.8-16l13.4-252c0.5-9.3-6.6-17.2-15.9-17.7c-9.3-0.5-17.2,6.6-17.7,15.9   l-13.4,252C504.7,514.5,511.8,522.4,521.1,522.9z"></path><path d="M699.8,554.4c0.3,0,0.6,0,0.9,0c9.3-0.5,16.4-8.4,15.9-17.7l-10.8-202.3c-0.5-9.3-8.4-16.4-17.7-15.9   c-9.3,0.5-16.4,8.4-15.9,17.7l10.8,202.3C683.4,547.5,690.9,554.4,699.8,554.4z"></path><path d="M762.6,554.4c0.3,0,0.6,0,0.9,0c8.9,0,16.3-7,16.8-16l10.8-202.3c0.5-9.3-6.6-17.2-15.9-17.7c-9.4-0.5-17.2,6.6-17.7,15.9   l-10.8,202.3C746.2,546,753.3,553.9,762.6,554.4z"></path></g></svg>