<svg fill="#FFFFFF" xmlns="http://www.w3.org/2000/svg" xmlns:xlink="http://www.w3.org/1999/xlink" xml:space="preserve" version="1.1" style="shape-rendering:geometricPrecision;text-rendering:geometricPrecision;image-rendering:optimizeQuality;" viewBox="0 0 180 137" x="0px" y="0px" fill-rule="evenodd" clip-rule="evenodd"><defs><style type="text/css">
   
    .fil0 {fill:#FFFFFF}
   
  </style></defs><g><path class="fil0" d="M62 82c-1,3 -4,4 -7,3 -2,-2 -3,-5 -2,-7 1,-3 4,-4 7,-3 2,2 3,5 2,7z"></path><path class="fil0" d="M64 96c-1,2 -4,3 -6,2 -2,-1 -3,-4 -2,-6 1,-2 4,-3 6,-2 2,1 3,3 2,6z"></path><path class="fil0" d="M51 91c-1,2 -2,3 -4,2 -1,-1 -2,-3 -1,-4 0,-2 2,-2 4,-2 1,1 2,3 1,4z"></path><path class="fil0" d="M166 65c0,-3 -4,-7 -4,-4 0,4 -6,4 -6,0 0,-3 2,-3 2,-4 -1,-3 -16,0 -13,12 3,10 21,10 21,-4z"></path><path class="fil0" d="M140 50c0,0 0,0 0,0 -2,-1 -3,-2 -4,0 -2,2 -4,5 -5,10 0,5 1,8 1,10 0,2 1,1 1,-1 0,-2 0,-6 2,-10 1,-2 1,-3 2,-4 0,0 0,0 0,0 0,0 0,0 1,0 1,-2 2,-3 3,-3 1,-1 0,-1 -1,-2z"></path><path class="fil0" d="M176 89c0,-4 -1,-13 -4,-18 2,-6 1,-14 -5,-18 -6,-5 -14,-4 -14,-4 -1,0 -5,-3 -7,-5 -9,-6 -10,-4 -7,-14 1,-6 1,-6 -2,-12 -2,-5 -4,-6 -6,-8 -3,-3 -2,-4 -3,-8 0,-4 -3,-2 -7,3 -3,5 -10,5 -14,3 -6,-3 -3,1 -9,8 -3,3 -7,6 -11,5 -6,-2 -6,-1 -8,6 -2,8 -5,10 -9,9 -4,-2 -4,1 -4,7 1,10 -1,6 -12,16 -4,4 -14,13 -15,15 -11,14 -25,-30 -31,-33 -3,-2 -6,3 -4,10 1,6 2,14 3,17 0,4 -6,5 -6,9 0,4 1,9 3,13 2,7 -10,13 0,19 7,4 -5,15 11,19 0,0 -1,7 5,8 12,3 20,-18 23,-27 1,-6 6,-3 12,0l11 4c-1,1 -5,2 -2,5 8,8 2,7 2,13 0,4 18,2 26,-5 1,-1 2,-2 3,-3 2,1 8,2 11,2 5,14 34,2 49,-5 13,-8 29,-25 24,-29 -1,-1 -2,-1 -3,-2zm-12 -34c4,2 7,9 5,15 -7,17 -28,12 -28,-4 0,-12 13,-17 23,-11zm-57 -35c3,2 13,2 16,-2l-2 14c0,3 -5,3 -8,2 -4,0 -4,-1 -4,-4l-2 -10zm19 -5c0,-1 0,-3 1,-4 0,-1 0,0 1,2 3,5 7,9 7,13 0,2 -1,3 -1,3 -2,-6 -9,-12 -8,-14zm-1 2c0,0 0,0 1,1 0,1 16,22 1,18 -6,-1 -2,-13 -2,-19zm-17 -2c6,3 14,3 16,-5 0,0 -1,5 -1,5 -1,5 -13,7 -16,3 0,-1 0,-2 1,-3zm-4 15c1,6 -1,5 -12,8 -2,1 -3,0 -4,-2 -1,-1 -2,-6 -2,-8 7,3 15,-2 18,-6 0,3 0,5 0,8zm-19 -5c5,1 14,2 18,-9 0,2 1,3 0,4 -3,5 -12,10 -18,6 0,0 0,-1 0,-1zm-1 8c1,0 3,7 1,8l-12 6c-3,1 -3,-3 -3,-4 6,3 10,-1 12,-5l2 -5zm-14 6c4,0 8,4 12,-10l1 -2c1,3 0,5 0,7 -4,11 -12,9 -13,8 -1,-1 0,-3 0,-3zm-57 14c0,1 0,1 0,1 3,11 8,20 17,26 3,2 3,3 1,4 -2,1 -2,0 -11,-3 -6,-2 -9,-4 -10,-4 9,-9 1,-22 3,-24zm-2 29l18 7c0,0 0,2 0,3 0,0 -17,5 -20,6 4,-5 3,-11 2,-16zm-4 -37c1,0 4,3 4,5 -1,6 1,10 1,14 1,4 0,6 -2,9 0,0 -1,2 -2,2 -1,0 -2,-1 0,-3 2,-2 2,-4 2,-8 -1,-4 -5,-15 -3,-19zm0 54l-2 1c0,-1 2,-4 2,-8 1,-5 -2,-10 -2,-13 1,0 1,1 3,2 1,6 3,13 -1,18zm6 19c-1,1 -2,1 -3,1 0,0 0,-5 -1,-10 -1,-2 -4,-6 -1,-7 4,8 4,7 5,16zm1 -1c1,-4 -1,-12 -4,-15l17 -6c4,-1 5,-1 2,3 -2,4 -10,13 -15,18zm9 14c-3,2 -2,-2 -4,-5 -3,-3 -5,-3 -2,-6 3,3 7,6 6,11zm13 -18c-3,6 -7,13 -11,17 0,-4 -4,-10 -7,-11 7,-7 8,-7 14,-16 1,-2 3,-5 5,-3 5,3 1,9 -1,13zm34 0c4,-5 1,-10 1,-10 5,1 2,11 1,13 -1,0 -2,0 -4,0 0,0 0,0 2,-3zm5 -9c0,0 7,1 11,-1 5,-1 9,-4 10,-6 2,-4 3,5 -9,13 -6,4 -14,6 -14,5 4,-5 1,-11 2,-11zm-3 26l-3 0c0,-1 5,-4 1,-11 0,-2 3,1 3,1 3,3 1,8 -1,10zm21 -9c-7,8 -18,9 -18,9 -1,0 1,-1 1,-4 1,-5 -2,-7 -2,-7 7,-1 18,-8 22,-15 2,-3 3,-4 3,-2 1,2 1,10 -6,19zm14 -11c-1,4 -1,7 -1,11 -2,-1 -4,-1 -8,-2 8,-12 5,-27 -2,-26 -2,0 -1,2 -3,4 -11,10 -22,-1 -25,3 -2,2 1,6 0,10 -17,-7 -31,-13 -32,-19 -1,-5 6,-13 12,-20 9,-11 17,-16 33,-24 19,-10 35,-11 52,-5 -16,9 -21,30 -11,44 -6,5 -12,13 -15,24zm60 -5c-7,7 -39,26 -51,20 -8,-4 -4,-21 0,-28 5,-9 16,-17 15,-19 0,0 -3,2 -6,5 -1,-2 -5,-9 -4,-17 2,-10 8,-19 16,-22 6,2 11,5 12,6 -15,6 -15,24 -6,29 3,3 8,4 12,4 9,0 14,-6 15,-8 2,3 3,11 3,14 -4,0 -7,1 -12,4 -4,3 -5,8 -4,8 2,1 3,-5 11,-6 4,0 7,2 7,2 0,0 -1,2 -8,8z"></path></g></svg>