<svg xmlns="http://www.w3.org/2000/svg" xmlns:xlink="http://www.w3.org/1999/xlink" width="100" height="100" viewBox="0 0 100 100"><g><g transform="translate(50 50) scale(0.69 0.69) rotate(0) translate(-50 -50)" style="fill:#252627"><svg fill="#252627" xmlns="http://www.w3.org/2000/svg" xmlns:xlink="http://www.w3.org/1999/xlink" version="1.1" x="0px" y="0px" viewBox="0 0 64 64" style="enable-background:new 0 0 64 64;" xml:space="preserve"><path d="M49.983,50.521l-0.992-26.775L39.789,5.342L36.67,3.003C35.809,2.356,34.74,2,33.662,2c-1.325,0-2.568,0.513-3.51,1.441  l-1.465-1.293C27.842,1.407,26.758,1,25.634,1C23.079,1,21,3.079,21,5.635v0.663c0,1.38,0.608,2.678,1.667,3.561l4.489,3.74  l2.208,5.888C28.242,19.172,27.079,19,25.905,19c-3.43,0-6.655,1.336-9.08,3.761l-4.496,4.497C11.472,28.114,11,29.254,11,30.465  c0,1.428,0.663,2.703,1.697,3.535C11.663,34.832,11,36.107,11,37.535v0.464c0,0.84,0.232,1.661,0.673,2.378l5.604,9.104  c1.32,2.147,3.344,3.828,5.698,4.734l9.414,3.62l3.831,4.789l1.562-1.25l-4.169-5.211l-9.919-3.815  c-1.947-0.749-3.621-2.14-4.713-3.915l-5.604-9.104c-0.246-0.4-0.376-0.86-0.376-1.33v-0.464C13,36.138,14.138,35,15.536,35h0.735  c0.788,0,1.517,0.356,2.001,0.979l3.664,4.71c1.637,2.104,4.276,3.085,6.894,2.564l1.547-0.31C33.635,42.293,36,39.408,36,36.085  c0-2.254-1.095-4.382-2.929-5.691l-2.837-2.026C28.982,27.473,27.507,27,25.969,27c-2.184,0-4.239,0.962-5.637,2.64l-2.04,2.448  C17.809,32.667,17.099,33,16.344,33h-0.809C14.138,33,13,31.862,13,30.465c0-0.677,0.264-1.313,0.743-1.793l4.496-4.497  C20.286,22.128,23.009,21,25.905,21c2.418,0,4.797,0.822,6.698,2.316l10.78,8.47l1.235-1.572l-10.779-8.47  c-0.615-0.483-1.275-0.902-1.964-1.263l-3.031-8.08l-4.896-4.08C23.345,7.819,23,7.082,23,6.298V5.635C23,4.182,24.182,3,25.634,3  c0.639,0,1.255,0.231,1.735,0.652l6.861,6.003l9.921,15.875l1.696-1.061l-10-16l-4.185-3.695c1.033-0.912,2.701-1.003,3.807-0.173  l2.741,2.056l8.798,17.596l1.008,27.225l13.337,11.285l1.292-1.527L49.983,50.521z M19.828,33.368l2.04-2.447  C22.885,29.7,24.38,29,25.969,29c1.119,0,2.192,0.344,3.103,0.994l2.837,2.026C33.218,32.956,34,34.476,34,36.085  c0,2.373-1.689,4.433-4.016,4.898l-1.547,0.31c-1.865,0.372-3.754-0.328-4.922-1.832l-3.664-4.71  c-0.21-0.27-0.445-0.511-0.701-0.723C19.396,33.835,19.624,33.613,19.828,33.368z"></path></svg></g></g></svg>