<svg fill="#FFFFFF" xmlns="http://www.w3.org/2000/svg" xmlns:xlink="http://www.w3.org/1999/xlink" xml:space="preserve" version="1.1" style="shape-rendering:geometricPrecision;text-rendering:geometricPrecision;image-rendering:optimizeQuality;" viewBox="0 0 50000 50000" x="0px" y="0px" fill-rule="evenodd" clip-rule="evenodd"><defs><style type="text/css">
   
    .fil0 {fill:#FFFFFF}
    .fil1 {fill:#FFFFFF;fill-rule:nonzero}
   
  </style></defs><g><path class="fil0" d="M35303.12 41323.26c496.04,305.87 782.81,740.9 640.52,971.67 -142.3,230.77 -659.78,169.89 -1155.82,-135.98 -496.04,-305.86 -782.81,-740.89 -640.51,-971.66 142.29,-230.77 659.77,-169.89 1155.81,135.97z"></path><path class="fil1" d="M35336.82 34699.9c-66.33,76.39 -165.96,247.2 -272.01,461.38 -93.33,188.48 -189.19,406.17 -270.21,620.17 13.68,-27.01 27.36,-55.09 40.96,-84.17 93.52,-199.96 196.64,-351.46 297.81,-470.64 100.98,-118.95 199.96,-205.65 285.51,-276.28 159.31,-131.51 214.94,-234.25 208.84,-301.57 -1.21,-13.46 -6.42,-24.41 -14.33,-32.35 -10.27,-10.31 -26.23,-17.74 -45.9,-21.52 -65.85,-12.67 -154.36,17.1 -230.67,104.98zm-1172.81 -423.33c-70.54,95.89 -173.91,310.48 -280.65,577.17 -104.01,259.9 -208.78,563.95 -288.07,853.13 -14.95,54.53 -27.68,104.07 -38.37,148.88 51.74,-95.35 106.15,-211.22 158.78,-342.22 196.69,-489.55 464.04,-781.07 657.5,-992.02 39.67,-43.26 76.11,-82.99 104.56,-116.29 98.25,-114.98 123.65,-206.72 103.66,-265.23 -5.75,-16.83 -15.97,-30.52 -29.31,-40.24 -15.91,-11.59 -37.8,-19.04 -63.98,-21.35l0 -0.58c-91.62,-8.12 -213.55,48.43 -324.12,198.75zm-558.39 465.85c115.6,-288.83 232.14,-527.46 316.99,-642.81 180.73,-245.72 407.79,-335.7 591.25,-319.45l0.05 -0.58c79.97,7.08 153.3,34.55 213.98,78.77 63.23,46.09 111.05,109.21 137.13,185.54 51.24,149.92 17.01,348.81 -159.92,555.87 -35.25,41.26 -71.81,81.12 -111.58,124.49 -178.01,194.1 -423.99,462.32 -600.08,900.6 -129.75,322.94 -279.02,574.58 -389.29,684.88l0 0.58c-62.57,62.57 -128.31,95.49 -193.75,94 -100.87,-2.29 -167.44,-60.32 -189.58,-181.76 -18.43,-101.02 3.5,-292.64 86.19,-594.2 83.14,-303.2 191.63,-618.61 298.61,-885.93zm1755.38 6171.48c-79.6,-22.65 -125.77,-105.56 -103.12,-185.16 22.65,-79.6 105.56,-125.77 185.16,-103.12 561.26,160.94 838.29,425.19 1085.14,660.63 148.37,141.53 284.5,271.38 463.4,347.16 475.4,201.39 1371.47,91.37 2353.17,-155.79 1410.04,-355 2978.28,-993.58 3765.74,-1411.78 73.13,-38.83 163.9,-11.02 202.73,62.11 38.83,73.13 11.02,163.9 -62.11,202.73 -802.18,426.02 -2398.94,1076.33 -3833.7,1437.56 -1036.81,261.03 -1998.15,370.9 -2541.85,140.57 -230.71,-97.73 -385.22,-245.11 -553.64,-405.76 -221.52,-211.28 -470.13,-448.42 -960.92,-589.15zm8796.82 -652.92c-1438.18,-3774.68 -4178.66,-5726.77 -6700.16,-7522.69 -2386.31,-1699.61 -4579.71,-3261.86 -5344.27,-6090.35 -577.29,-2135.69 -1382.34,-4444.86 -2343.64,-6301.71 -719.36,-1389.54 -1523.69,-2522.45 -2380.73,-3131.11 -0.78,186.78 93.12,507.67 285.75,968.06 323.32,772.64 636.7,1719.74 853.54,2689.32 184.68,825.77 298.73,1667.93 288.56,2433.11 -21.69,1635.17 -525.17,2289.76 -1314.22,2353.34 -719.19,57.95 -1653.33,-442.93 -2653.46,-1134.14l-139.93 -96.75c-691.63,-478.31 -1324.97,-916.29 -1998.11,-1317.39 -609.22,-363.01 -1105.68,-685.36 -1526.7,-1106.6 -426.47,-426.69 -766.15,-944.88 -1050.74,-1690.76l0.12 -0.04c-253.88,-563.19 -444.97,-823.55 -718.34,-870.88 -316.92,-54.88 -806.74,112.78 -1618.14,404.64 -601.75,216.44 -1040.31,346.28 -1484,414.22 -445.06,68.15 -891.15,73.76 -1507.05,41.66 -2135.55,-111.33 -3443.54,-1890.49 -4819.6,-3762.26 -128.76,-175.15 -257.98,-350.9 -355.07,-481.51 -460.05,-618.9 -885.26,-1208.72 -1298.05,-1781.34 -943.06,-1308.2 -1820.75,-2525.7 -3016.44,-3945.77 -259.26,-307.96 -799.32,-922.44 -1291.19,-1434.21 -318.26,-331.14 -609.53,-612.44 -773.14,-720.66 -116.89,-77.29 -262.55,-185.34 -419.67,-301.87 -405.87,-301.04 -897.94,-666.01 -1053.12,-643.36 -36.51,5.32 63.13,18.65 73.22,87.77 17.2,117.8 197.45,290.5 344.96,431.82 72.25,69.23 138.28,132.48 192.91,197.97 450.58,540.11 318.39,955.46 219.12,1265.78 17.59,-4.65 36.46,-11.05 59,-18.7 50.66,-17.19 112.45,-38.16 205.09,-63.79l243.49 -67.37 64.13 244.12c335.23,1276.12 1275.24,2795.4 2249.42,4369.92 1710.86,2765.17 3524.04,5695.75 2525.97,8016.28 -442.83,1029.54 -1246.33,1606.59 -1880.38,2061.93 -471.91,338.9 -827.02,593.97 -762.06,882.23 1527.68,443.24 2582.44,-407.95 3612.86,-1239.81 934.71,-754.59 1851.25,-1494.51 3104.37,-1389.09 969.33,81.55 1942.26,624.69 2715.75,1376.82 219.55,213.48 423.45,444.42 607.07,686.9 256.7,323.45 488.31,648.76 588.35,789.29l32.11 45.05c341.31,477.06 1764.21,1911.56 3014.5,3172.02 927.7,935.26 1762.92,1777.28 2034.99,2130.37 126.27,124.61 267.48,285.08 439.1,480.14 163.22,185.52 357.72,406.57 569.53,628.15l0.41 -0.41c406.3,407.59 1003.11,916.24 1655.45,1407.24 593.97,447.07 1234.92,879.82 1820.83,1208.45 501.52,281.26 818.11,572.94 985.45,866.62 210.6,369.6 192.75,731.18 8.52,1074.71 -164.35,306.43 -465.76,590.19 -852.54,844.44 -917.37,603.05 -2353.51,1065.25 -3528.42,1257.98 -746.84,122.5 -1220.38,266.41 -1432.52,405.76 239.72,123 762,219.06 1563.34,256.73 1237.48,58.18 2541.79,1.13 3795.99,-235.48 1077.79,-203.32 2118.14,-539.57 3045.63,-1049.84 1908.81,-1050.15 2182.85,-922.4 4635.55,221.02 240.63,112.17 499.89,233.04 619.14,288.09 169.85,78.43 379.99,154.6 601.56,234.91 793.96,287.78 1719.23,623.17 1828.52,1380.34l8.5 58.95 -20.22 58.24c-131.98,379.92 -388.77,594.94 -735.13,730.32 -306.26,119.71 -674.87,169.6 -1089.22,224.59 -727.62,96.58 -1127.91,331.95 -1262.45,612.48 -57.51,119.91 -63.75,252.9 -24.29,388.14 44.51,152.53 145.95,309.69 297.71,459.13 526.27,518.23 1601.05,899.52 2999.2,707.16 1212.83,-166.88 2750.22,-520.61 4192.33,-1022.12 1135.11,-394.75 2208.33,-880.17 3010.96,-1436.2zm-15604.38 -22351.28c526.07,623.08 1022.53,1411.26 1482.33,2299.43 972.24,1877.99 1785.08,4208.36 2367.08,6361.47 736.51,2724.73 2887.78,4256.96 5228.25,5923.93 2540.64,1809.56 5300.33,3775.67 6777.32,7585.15 771.16,-575.69 1436.53,-1215.37 1968.2,-1904.83 539.77,-699.98 942.41,-1452.26 1178.49,-2241.77 148.39,-496.29 129.74,-864.62 4.52,-1116 -79.32,-159.22 -203.66,-272.64 -354.94,-342.02 -161.86,-74.23 -357.88,-101.15 -567.74,-82.72 -433.99,38.12 -910.85,269.57 -1269.25,678.72l-8.79 9.77c-551.32,563.72 -931.72,941.11 -1402.4,1029.54 -479.29,90.05 -975.44,-131.9 -1717.18,-779.13 -590.01,-514.87 -1276.73,-1221.19 -1843.99,-1815.49 -1252.83,-1225.95 -2380.07,-1935.28 -3399.95,-2577 -343.19,-215.94 -674.54,-424.46 -995.21,-642.26 -176.43,-97.41 -348.16,-202.75 -514,-315.49 -574.38,-390.47 -1078.37,-869.32 -1463.34,-1414.71 -440.19,-623.59 -868.45,-1795.48 -1373.04,-3176.3 -937.35,-2565.01 -2144.59,-5868.36 -4096.36,-7480.29zm6882.6 18573.08c-17.31,-84.62 4.67,-224.87 86.82,-427.44l27.22 -68.6c146.41,-370.16 473.74,-1197.67 974.06,-1032.8 65.15,21.47 117.89,54.25 157.83,96.54 42.02,44.5 67.86,97.56 77.39,157.5 8.57,53.95 3.35,110.61 -15.74,168.54 -31.06,94.29 -101.54,197.7 -211.39,301.45 -73.24,69.17 -145.26,152.42 -208.08,232.32 -97.21,123.62 -168.1,232.79 -190.08,273.05 -115.38,211.35 -256.59,367.14 -362.91,428.43 -62.48,36.02 -124.58,48.93 -182.11,35.92 -80.11,-18.12 -133.99,-71.82 -153.01,-164.91zm374.74 -340.15c20.32,-31.33 40.73,-65.5 60.79,-102.25 27.53,-50.43 110.54,-179.8 217.04,-315.25 69.9,-88.9 151.83,-183.23 238.54,-265.12 71.86,-67.87 115.59,-128.3 131.71,-177.25 4.16,-12.62 5.91,-21.8 5.26,-27.3l-0.08 0.08c-5.21,-5.46 -16.36,-11.14 -33.66,-16.84 -231.75,-76.36 -487.16,569.36 -601.4,858.2l-18.2 45.73zm653.34 -887.17l-0.08 -0.6c-0.08,-0.5 0.03,0.49 0,0.68l0.08 -0.08zm8276.67 4120.01c-63.42,53.06 -157.87,44.67 -210.93,-18.75 -53.06,-63.42 -44.67,-157.87 18.75,-210.93 719.02,-602.22 1402.14,-1402.74 1874.13,-2159.75 440.48,-706.48 694.37,-1363.83 612,-1763.81 -16.5,-80.89 35.71,-159.86 116.6,-176.36 80.89,-16.5 159.86,35.71 176.36,116.6 98.8,479.73 -172.44,1214.76 -650.66,1981.77 -487.55,781.96 -1193.31,1608.97 -1936.25,2231.23zm-10405.25 -11241.59c592.79,745.23 1235.36,1266.26 1933.71,1742.26 405.82,221.11 838.33,397.05 1280.83,520.31 359.17,100.03 725.58,165.15 1090.14,191.25 350.59,25.11 699.05,13.57 1037.07,-38.33 169.66,-26.04 207.13,-32.02 249.76,-38.83 289.61,-46.24 709.62,-113.33 1125.45,-171.59l92.48 -13.03c686.15,-96.9 1773.62,-250.47 2022.21,114.38 176.21,258.61 -3.47,640.47 -840.74,1210.96 -379.65,258.7 -844.29,519.52 -1266.55,731.06 -270.97,135.75 -527.36,251.79 -735.97,334.95l139.54 146.73c91.99,96.78 189.06,198.9 289.88,304.53 57.74,56.61 115.74,114.21 174.04,173.02l-4.35 4.33c525.49,547.67 1128.14,1159.84 1644.41,1610.36 611.04,533.19 985.34,722.49 1297.26,663.89 320.22,-60.16 651.54,-390.83 1135.42,-885.57 446.57,-505.44 1045.07,-792.06 1593.86,-840.26 292.24,-25.67 574.22,15.96 817.74,127.64 254.1,116.53 462.61,306.41 595.16,572.48 178.66,358.66 215.03,851.51 26.74,1481.24 -253.68,848.38 -684.99,1654.98 -1262.47,2403.87 -593.26,769.34 -1340.11,1476.76 -2206.16,2104.82 -854.25,619.51 -2021.23,1154.79 -3254.08,1583.53 -1474.51,512.78 -3047.88,874.65 -4289.99,1045.56 -1566.82,215.57 -2796.85,-236.94 -3415.2,-845.84 -212.62,-209.37 -358.03,-440.8 -426.63,-675.91 -73.65,-252.43 -59.31,-506.27 53.59,-741.66 203.55,-424.44 731.19,-770.19 1647.21,-891.78 380.37,-50.48 718.4,-96.15 972.04,-195.29 193.23,-75.52 339.71,-186.86 422.17,-369.47 -119.27,-427.1 -856.04,-694.22 -1492.12,-924.78 -233.96,-84.8 -455.85,-165.23 -640.62,-250.55 -324.66,-149.89 -477.55,-221.17 -621.1,-288.09 -2246.84,-1047.45 -2497.89,-1164.48 -4184.37,-236.64 -975.77,536.83 -2066.45,889.86 -3194.07,1102.58 -1294.24,244.16 -2637.86,303.15 -3911.23,243.28 -896.54,-42.14 -1499.53,-164.88 -1793.44,-325.31 -186.77,-101.95 -287.4,-233.46 -300.58,-388.66 -13.51,-159 66.47,-304.54 241.28,-430.15 258.99,-186.09 812.79,-368.75 1665.28,-508.59 1118.52,-183.48 2477.72,-618.23 3335.06,-1181.82 320.38,-210.61 564.13,-434.6 686.52,-662.8 102.49,-191.11 113.05,-391.17 -2.66,-594.23 -123,-215.86 -377.62,-442.55 -795.99,-677.18 -600.58,-336.86 -1261.12,-783.11 -1875.51,-1245.55 -672.91,-506.49 -1289.46,-1032.09 -1710.15,-1454.12l-2.93 -3.9c-257.61,-269.26 -437.62,-473.84 -588.49,-645.32 -634.75,-721.45 -663.66,-754.29 -1864.99,149.74 -169.72,127.72 -347.87,258.43 -528.84,378.27 -188.82,125.04 -386.97,243.28 -593.62,343.8 -807.49,392.73 -1180.02,364 -1306.67,103.59 -143.28,-294.62 194.85,-803.24 514.47,-1284 102.5,-154.18 202.81,-305.07 280.07,-435.68 134.47,-227.32 261.3,-460.65 370.19,-709.74 108.61,-248.46 201.17,-515.43 268.47,-812.24 106.93,-471.59 39.09,-556.29 -93.33,-721.56 -19.07,-23.8 -39.08,-48.77 -60.18,-75.99 -158.1,76.11 -315.15,163.91 -474.31,252.88 -437.72,244.7 -890.4,497.79 -1485.73,594.65 -851.65,138.49 -1161.94,22.39 -1205.91,-247.91 -35.2,-216.41 141.7,-417.63 344.31,-648.08 113.98,-129.63 238.78,-271.57 311.14,-395.03 79.79,-136.11 149.47,-300.66 195.07,-509.04 46.83,-213.96 67.76,-472.1 48.05,-789.73 -138.84,-851.44 -677.31,-1760.84 -1406.97,-2470.36 -696.15,-676.93 -1560.61,-1164.82 -2409.11,-1236.2 -1055.65,-88.81 -1894.92,588.74 -2750.85,1279.73 -1159.2,935.83 -2346.34,1894.2 -4191.18,1291.55l-97.29 -31.79 -47.24 -91.25c-366.34,-707.82 159.09,-1085.19 881.39,-1603.91 583.69,-419.18 1323.38,-950.4 1712.42,-1854.89 896.03,-2083.3 -846.56,-4899.78 -2490.81,-7557.3 -933.16,-1508.24 -1835.61,-2966.83 -2235.58,-4252.63 -172.96,57.02 -255.44,67.24 -529.61,-27.62l-133.91 -46.33 -29.18 -137.26c-30.41,-143.1 9.35,-267.42 56.04,-413.37 63.65,-198.97 148.88,-465.4 -127.01,-796.11 -31.96,-38.3 -91.08,-94.95 -155.79,-156.95 -203.1,-194.59 -451.27,-432.37 -493.4,-720.88 -61.6,-422.04 81.14,-612.91 350.6,-652.23 356.39,-52.02 939.41,380.4 1420.32,737.1 147.98,109.75 285.17,211.52 398.19,286.25 196.93,130.25 516.4,436.46 857.12,790.98 492.55,512.47 1044.75,1141.35 1312.67,1459.59 1211.81,1439.21 2093.02,2661.61 3039.88,3975.07 405.57,562.61 823.37,1142.15 1294.15,1775.48 142.02,191.04 249.83,337.68 357.01,483.47 1304.16,1773.96 2543.79,3460.15 4442.66,3559.14 578.92,30.17 996.03,25.24 1407.43,-37.76 412.74,-63.2 823.99,-185.17 1390.26,-388.84 890.84,-320.43 1433.11,-503.73 1870.08,-428.06 478.43,82.84 762.3,431.02 1095.18,1172.67l5.86 12.69c257.67,675.34 560.36,1139.65 937.46,1516.94 382.56,382.76 850.98,685.98 1429.04,1030.42 687.01,409.36 1326.78,851.79 2025.45,1334.97l139.93 96.75c915.66,632.83 1750.6,1093.04 2331.2,1046.26 510.78,-41.15 837.94,-557.17 855.24,-1861.16 9.62,-724.42 -99.77,-1528.08 -276.84,-2319.83 -209.05,-934.76 -513.31,-1852.92 -828.16,-2605.34 -225.05,-537.85 -330.91,-932.59 -322.6,-1189.7 6.43,-199.47 75.72,-342.61 206.32,-430.54 123.07,-82.82 279.1,-97.7 467.33,-46.11 281.93,77.29 687.7,327 1210.78,740.89 2114.54,1673.17 3370.72,5110.62 4342.9,7770.95 453.04,1239.74 842.94,2306.67 1216.98,2913.81zm3711.59 2884.26c570.93,373.34 1173.44,796.49 1811.5,1335.38 161.41,-36.53 540.48,-197.02 978.61,-416.52 400.79,-200.79 843.49,-449.49 1207.95,-697.84 534.06,-363.89 719.25,-503.87 709.9,-517.6 -74.11,-108.77 -973.97,18.31 -1541.75,98.5l-92.48 13.03c-436.39,61.14 -838.44,125.36 -1115.69,169.63 -161.9,25.86 -211.54,34.33 -253.66,40.79 -373.24,57.31 -758.47,70.01 -1146.45,42.23 -185.55,-13.28 -371.87,-35.98 -557.93,-67.6zm-17901.17 -1056.44c-344.84,-354.29 -839.27,-853.26 -1375.75,-1394.15 -12,86.86 -30.36,184.97 -55.82,297.23 -75.07,331.06 -177.66,627.36 -297.75,902.08 -119.82,274.11 -255.32,524 -397.55,764.42 -82.37,139.25 -186.91,296.5 -293.73,457.18 -243.12,365.7 -500.33,752.6 -481.27,791.8 5.81,11.95 162.2,-103.31 640.65,-336.01 183.16,-89.09 362.31,-196.22 535.02,-310.6 180.55,-119.56 348.22,-242.4 505.42,-360.69 569.66,-428.68 938.16,-695.42 1220.78,-811.26zm-2379.36 -2407.58c-549.58,-557.19 -1079.3,-1100.28 -1490.11,-1540.75 9.47,47.1 17.94,94.11 25.33,140.98l2.52 15.93 0.41 6.53c23.79,372.09 -1.27,677.83 -57.34,933.97 -57.64,263.4 -148.57,476.25 -253.67,655.54 -100.37,171.25 -239.11,329.04 -365.82,473.15 -119.76,136.21 -229.93,220.7 -227.13,237.92 6.05,37.23 151.15,-85.73 633.65,-164.19 509.58,-82.91 923.45,-314.29 1323.63,-538.01 135.99,-76.03 270.53,-151.23 408.53,-221.07zm2868.02 10830.18c0.71,8.39 2.78,6.16 6.91,1.55 -5.16,-7.57 -7.86,-12.72 -6.91,-1.55zm14161.83 -3355.44c116.58,-235.44 231.34,-429.25 314.19,-524.66 154.37,-177.78 354.3,-233.98 513.11,-203.42 78.37,15.08 148.35,51.16 201.74,104.72 55.76,55.95 92.02,129.32 99.89,216.33 14.07,155.32 -68.86,354.83 -316.66,559.39 -74.06,61.14 -159.71,136.15 -246.83,238.78 -86.93,102.4 -175.46,232.44 -255.63,403.84 -127.28,272.16 -273.18,480.13 -378.07,568.36 -62.6,52.67 -126.56,77.73 -187.86,71.28 -95.35,-10.03 -155.4,-68.98 -169.78,-182.97 -11.53,-91.43 18.6,-258.16 111.01,-513.97 92.09,-254.93 205.73,-517.21 314.89,-737.68z"></path></g></svg>