<svg xmlns="http://www.w3.org/2000/svg" xmlns:xlink="http://www.w3.org/1999/xlink" width="100" height="100" viewBox="0 0 100 100"><g><g transform="translate(50 50) scale(0.69 0.69) rotate(0) translate(-50 -50)" style="fill:#0d2765"><svg fill="#0d2765" xmlns="http://www.w3.org/2000/svg" xmlns:xlink="http://www.w3.org/1999/xlink" version="1.1" x="0px" y="0px" viewBox="0 0 50 50" enable-background="new 0 0 50 50" xml:space="preserve"><g><path fill="#0d2765" d="M25,2.8c-11.9,0-21.6,9.7-21.6,21.6S13.1,45.9,25,45.9s21.6-9.7,21.6-21.6S36.9,2.8,25,2.8z M25,4.2   c11.1,0,20.1,9,20.1,20.1c0,2.8-0.6,5.5-1.6,8c-1.4,0.3-2.6,0.5-3.8,0.5c1-5.8-2.6-11.5-8.4-12.9c-6-1.4-12.1,2.3-13.5,8.3   c0,0.1,0,0.1,0,0.2c-5.4,0.3-9.1,2-11.4,3.4c-0.9-2.3-1.4-4.8-1.4-7.4C4.9,13.3,13.9,4.2,25,4.2z M38.2,32.8c-3-0.2-5.5-1.1-8.1-2   c-3-1.1-6.1-2.3-10.3-2.4c-0.2,0-0.4,0-0.6,0c1.3-5.1,6.5-8.3,11.7-7C36,22.6,39.3,27.7,38.2,32.8z M19.8,29.9   c3.9,0.1,6.9,1.2,9.8,2.3c3.9,1.4,7.6,2.8,13.1,1.8c-0.4,0.8-0.9,1.6-1.5,2.3c-4.5,0.5-7.7-0.7-11.1-1.9c-3-1.1-6.1-2.3-10.3-2.4   c-5.5-0.1-9.5,1.2-12.1,2.6c-0.3-0.5-0.5-1-0.8-1.4C9.2,31.7,13.5,29.7,19.8,29.9z M10.7,38.5c2.3-0.9,5.3-1.5,9-1.4   c3.9,0.1,6.9,1.2,9.8,2.3c2,0.8,4,1.5,6.3,1.9c-0.8,0.5-1.7,1-2.7,1.4c-1.1-0.3-2.1-0.7-3.1-1.1c-3-1.1-6.1-2.3-10.3-2.4   c-2.8-0.1-5.3,0.3-7.4,0.8C11.8,39.6,11.3,39.1,10.7,38.5z M14,41.2c1.7-0.3,3.6-0.5,5.7-0.5c3.9,0.1,6.9,1.2,9.8,2.3   c0.5,0.2,1,0.4,1.5,0.5c-1.9,0.6-3.9,0.9-6,0.9C21,44.5,17.2,43.3,14,41.2z M37.6,40c-2.8-0.2-5.1-1.1-7.5-2   c-3-1.1-6.1-2.3-10.3-2.4c-4.3-0.1-7.6,0.7-10.1,1.7c-0.4-0.5-0.8-1-1.1-1.5c2.5-1.3,6.2-2.5,11.3-2.4c3.9,0.1,6.9,1.2,9.8,2.3   c3.2,1.2,6.2,2.3,10.3,2.2C39.2,38.7,38.4,39.4,37.6,40z"></path><path fill="#0d2765" d="M13.9,21C13.9,21,14,21,13.9,21c0.5,0,0.8-0.3,0.8-0.6c0-0.1,0.4-3.3,3.2-3.3c0.4,0,0.7-0.3,0.7-0.7   c0-0.1,0-2.1,3.4-2.1c0.4,0,0.7-0.3,0.7-0.7c0-0.4-0.3-0.7-0.7-0.7c-3.5,0-4.5,1.8-4.7,2.8c-2.8,0.4-3.9,3.1-4.1,4.6   C13.2,20.6,13.5,21,13.9,21z"></path></g></svg></g></g></svg>