<svg xmlns="http://www.w3.org/2000/svg" xmlns:xlink="http://www.w3.org/1999/xlink" width="100" height="100" viewBox="0 0 100 100"><g><g transform="translate(50 50) scale(0.69 0.69) rotate(0) translate(-50 -50)" style="fill:#252627"><svg fill="#252627" xmlns="http://www.w3.org/2000/svg" xmlns:xlink="http://www.w3.org/1999/xlink" version="1.1" x="0px" y="0px" viewBox="0 0 100 100" enable-background="new 0 0 100 100" xml:space="preserve"><g><path d="M92.086,39.386v-0.631c0-0.829-0.672-1.5-1.5-1.5h-6.287c-3.854-9.257-11.349-16.624-20.687-20.317v-6.42   c0-0.829-0.672-1.5-1.5-1.5h-1.001V8.179c0-2.21-1.798-4.008-4.009-4.008H42.897c-2.211,0-4.009,1.798-4.009,4.008v0.839h-1.001   c-0.828,0-1.5,0.671-1.5,1.5v6.42c-9.338,3.693-16.833,11.06-20.687,20.317H9.413c-0.828,0-1.5,0.671-1.5,1.5v0.632   C5.24,41.12,3.5,44.848,3.5,49.045s1.74,7.925,4.413,9.66v0.632c0,0.829,0.672,1.5,1.5,1.5h4.67   c0.957,3.675,2.458,7.203,4.509,10.45c0.011,0.016,0.024,0.036,0.038,0.056c0.552,0.87,1.093,1.658,1.653,2.404   c2.993,5.12,3.135,10.396,2.271,13.014h-1.405c-2.5,0-4.534,2.034-4.534,4.535s2.034,4.535,4.534,4.535h57.701   c2.5,0,4.534-2.034,4.534-4.535s-2.034-4.535-4.534-4.535h-1.405c-0.863-2.618-0.722-7.894,2.271-13.014   c0.567-0.757,1.116-1.555,1.676-2.439c0.005-0.007,0.01-0.015,0.014-0.022c2.052-3.247,3.553-6.773,4.511-10.448h4.669   c0.828,0,1.5-0.671,1.5-1.5v-0.631c2.673-1.734,4.414-5.462,4.414-9.66S94.759,41.119,92.086,39.386z M41.889,8.179   c0-0.556,0.452-1.008,1.009-1.008h14.205c0.557,0,1.009,0.452,1.009,1.008v0.839H41.889V8.179z M39.388,15.884v-3.866h1.001h19.223   h1.001v3.866c-0.145-0.043-0.293-0.072-0.438-0.113c-0.576-0.165-1.157-0.315-1.744-0.452c-0.218-0.05-0.434-0.104-0.651-0.15   c-0.752-0.161-1.512-0.302-2.28-0.417c-0.16-0.024-0.322-0.04-0.483-0.062c-0.643-0.087-1.289-0.157-1.941-0.211   c-0.223-0.018-0.445-0.037-0.669-0.051c-0.796-0.051-1.596-0.086-2.404-0.086s-1.608,0.035-2.404,0.086   c-0.224,0.014-0.447,0.033-0.671,0.051c-0.649,0.054-1.295,0.124-1.936,0.21c-0.163,0.022-0.327,0.038-0.489,0.062   c-0.768,0.115-1.525,0.255-2.276,0.416c-0.22,0.047-0.438,0.101-0.657,0.152c-0.585,0.137-1.165,0.287-1.739,0.451   C39.682,15.812,39.533,15.84,39.388,15.884z M6.5,49.045c0-2.078,0.532-4.016,1.413-5.428v10.856   C7.032,53.061,6.5,51.123,6.5,49.045z M13.415,57.837h-2.502c0-0.002,0.001-0.004,0.001-0.006v-17.57   c0-0.002-0.001-0.004-0.001-0.006h3.686c-0.006,0.017-0.009,0.035-0.015,0.052c-0.255,0.807-0.477,1.628-0.678,2.458   c-0.041,0.171-0.08,0.344-0.119,0.516c-0.185,0.817-0.352,1.641-0.481,2.477c-0.002,0.013-0.005,0.026-0.007,0.04   c-0.128,0.829-0.219,1.669-0.29,2.515c-0.018,0.206-0.033,0.412-0.048,0.619c-0.057,0.842-0.097,1.69-0.097,2.547   c0,0.772,0.033,1.544,0.081,2.316c0.012,0.178,0.021,0.355,0.035,0.533c0.056,0.717,0.13,1.433,0.228,2.146   c0.028,0.213,0.064,0.425,0.097,0.637C13.342,57.353,13.373,57.596,13.415,57.837z M80.385,91.295c0,0.846-0.688,1.535-1.534,1.535   H21.149c-0.846,0-1.534-0.688-1.534-1.535s0.688-1.535,1.534-1.535h2.401h52.898h2.401C79.696,89.76,80.385,90.449,80.385,91.295z    M78.896,69.646c-0.013,0.019-0.025,0.038-0.038,0.058c-0.532,0.841-1.052,1.596-1.589,2.308c-0.033,0.045-0.065,0.092-0.094,0.141   c-2.976,5.043-3.688,10.803-2.836,14.609H25.661c0.853-3.806,0.14-9.566-2.836-14.609c-0.028-0.049-0.061-0.096-0.094-0.141   c-0.537-0.712-1.057-1.467-1.589-2.308c-0.003-0.005-0.006-0.009-0.009-0.014c-0.002-0.002-0.003-0.004-0.005-0.007   c-2.108-3.336-3.601-6.99-4.447-10.803c-0.067-0.304-0.121-0.611-0.181-0.917c-0.079-0.413-0.156-0.826-0.221-1.242   c-0.048-0.308-0.09-0.617-0.129-0.925c-0.058-0.454-0.105-0.91-0.146-1.367c-0.022-0.26-0.049-0.52-0.065-0.781   c-0.046-0.721-0.076-1.444-0.076-2.17c0-0.558,0.016-1.113,0.042-1.665c0.01-0.188,0.026-0.374,0.038-0.562   c0.024-0.363,0.049-0.726,0.083-1.086c0.021-0.224,0.051-0.447,0.077-0.67c0.037-0.319,0.075-0.638,0.121-0.954   c0.035-0.242,0.076-0.483,0.117-0.724c0.049-0.293,0.1-0.585,0.156-0.875c0.05-0.254,0.104-0.508,0.159-0.762   c0.059-0.271,0.121-0.54,0.187-0.808c0.064-0.265,0.132-0.529,0.203-0.793c0.069-0.253,0.142-0.504,0.216-0.755   c0.078-0.267,0.159-0.534,0.244-0.8c0.082-0.252,0.168-0.502,0.255-0.752c0.089-0.253,0.177-0.506,0.271-0.757   c3.865-10.292,12.561-18.238,23.312-21.058c0.248-0.064,0.497-0.121,0.746-0.18c0.24-0.057,0.479-0.115,0.722-0.167   c0.338-0.072,0.679-0.137,1.019-0.199c0.148-0.027,0.296-0.054,0.443-0.08c0.392-0.065,0.784-0.125,1.178-0.177   c0.088-0.012,0.177-0.023,0.265-0.034c0.439-0.055,0.879-0.104,1.319-0.142c0.01-0.001,0.021-0.001,0.03-0.002   c1.952-0.166,3.918-0.166,5.87,0c0.007,0,0.013,0.001,0.02,0.001c0.443,0.038,0.886,0.087,1.327,0.142   c0.086,0.011,0.172,0.021,0.257,0.033c0.396,0.053,0.792,0.113,1.187,0.179c0.144,0.024,0.286,0.051,0.43,0.077   c0.345,0.062,0.689,0.128,1.033,0.202c0.235,0.051,0.469,0.107,0.702,0.163c0.255,0.06,0.51,0.118,0.763,0.184   c10.752,2.821,19.447,10.766,23.312,21.058c0.094,0.251,0.182,0.504,0.27,0.757c0.088,0.25,0.174,0.5,0.256,0.753   c0.085,0.265,0.165,0.531,0.244,0.797c0.074,0.252,0.147,0.505,0.216,0.759c0.071,0.263,0.139,0.527,0.203,0.791   c0.065,0.269,0.128,0.538,0.187,0.809c0.056,0.253,0.109,0.507,0.159,0.762c0.057,0.29,0.107,0.582,0.157,0.875   c0.04,0.241,0.081,0.481,0.116,0.724c0.046,0.317,0.084,0.636,0.122,0.956c0.025,0.223,0.055,0.444,0.076,0.667   c0.034,0.362,0.06,0.726,0.083,1.091c0.012,0.186,0.028,0.372,0.038,0.558c0.026,0.552,0.042,1.107,0.042,1.665   c0,0.725-0.03,1.447-0.076,2.167c-0.017,0.26-0.043,0.519-0.065,0.778c-0.039,0.457-0.087,0.913-0.145,1.367   c-0.039,0.307-0.081,0.613-0.129,0.919c-0.064,0.418-0.141,0.834-0.221,1.249c-0.059,0.302-0.112,0.605-0.179,0.906   C82.479,62.667,80.994,66.314,78.896,69.646z M89.086,57.837h-2.501c0.043-0.245,0.074-0.491,0.112-0.736   c0.031-0.208,0.066-0.414,0.094-0.622c0.098-0.716,0.173-1.434,0.229-2.153c0.014-0.176,0.023-0.353,0.034-0.529   c0.049-0.773,0.082-1.546,0.082-2.318c0-0.857-0.04-1.705-0.097-2.547c-0.015-0.207-0.03-0.413-0.048-0.619   c-0.071-0.846-0.162-1.687-0.29-2.515c-0.002-0.014-0.005-0.027-0.007-0.04c-0.13-0.836-0.297-1.66-0.481-2.477   c-0.039-0.172-0.078-0.344-0.119-0.516c-0.201-0.83-0.423-1.651-0.678-2.458c-0.006-0.018-0.01-0.035-0.015-0.052h3.685v0.006   v17.57V57.837z M92.086,54.476v-10.86c0.882,1.413,1.414,3.352,1.414,5.43S92.968,53.062,92.086,54.476z"></path><path d="M50,25.658c-13.178,0-23.898,10.721-23.898,23.899S36.822,73.456,50,73.456s23.898-10.721,23.898-23.898   S63.178,25.658,50,25.658z M50,70.456c-11.523,0-20.898-9.375-20.898-20.898c0-11.524,9.375-20.899,20.898-20.899   s20.898,9.375,20.898,20.899C70.898,61.081,61.523,70.456,50,70.456z"></path><path d="M61.751,37.806c-0.167-0.167-0.343-0.321-0.524-0.466C58.266,34.617,54.33,32.938,50,32.938   c-4.332,0-8.27,1.68-11.23,4.404c-0.181,0.145-0.355,0.298-0.521,0.463c-0.168,0.167-0.321,0.343-0.467,0.524   c-2.723,2.961-4.401,6.897-4.401,11.227c0,4.331,1.679,8.267,4.402,11.228c0.145,0.181,0.299,0.356,0.466,0.523   c0.165,0.166,0.34,0.318,0.521,0.463c2.961,2.725,6.898,4.404,11.23,4.404c4.33,0,8.266-1.678,11.227-4.401   c0.182-0.146,0.357-0.299,0.524-0.466c0.169-0.169,0.324-0.346,0.47-0.528c2.721-2.96,4.397-6.895,4.397-11.223   c0-4.328-1.677-8.262-4.396-11.222C62.075,38.153,61.92,37.975,61.751,37.806z M59.63,44.696l-2.74,2.74l-4.769-4.769l2.74-2.74   c0.633-0.633,1.479-0.982,2.385-0.982c0.858,0,1.659,0.323,2.28,0.897c0.062,0.061,0.123,0.122,0.184,0.184   C60.935,41.347,60.914,43.412,59.63,44.696z M59.71,59.088c-0.056,0.057-0.111,0.113-0.168,0.169   c-1.278,1.188-3.442,1.168-4.681-0.07l-2.74-2.74l4.769-4.769l2.74,2.74C60.914,55.702,60.935,57.768,59.71,59.088z M50,54.326   l-4.769-4.769L50,44.789l4.769,4.769L50,54.326z M40.45,59.251c-0.052-0.05-0.103-0.102-0.153-0.153   c-1.232-1.32-1.214-3.393,0.073-4.68l2.74-2.74l4.769,4.769l-2.74,2.74C43.897,60.429,41.728,60.444,40.45,59.251z M40.297,40.017   c0.056-0.057,0.111-0.112,0.168-0.167c0.622-0.579,1.427-0.904,2.29-0.904c0.904,0,1.751,0.349,2.384,0.982l2.74,2.74l-4.769,4.769   l-2.74-2.74C39.083,43.409,39.064,41.337,40.297,40.017z M54.321,36.653c-0.576,0.297-1.11,0.682-1.581,1.153L50,40.546l-2.74-2.74   c-0.471-0.471-1.005-0.855-1.581-1.153c1.359-0.457,2.81-0.714,4.321-0.714S52.962,36.196,54.321,36.653z M37.096,45.236   c0.293,0.569,0.677,1.104,1.153,1.581l2.74,2.74l-2.74,2.74c-0.477,0.477-0.86,1.011-1.154,1.581   c-0.456-1.36-0.714-2.81-0.714-4.321S36.639,46.596,37.096,45.236z M45.678,62.461c0.577-0.297,1.111-0.682,1.582-1.153l2.74-2.74   l2.74,2.74c0.471,0.471,1.005,0.855,1.581,1.153c-1.359,0.457-2.81,0.715-4.321,0.715S47.038,62.918,45.678,62.461z M62.904,53.876   c-0.294-0.569-0.677-1.103-1.153-1.58l-2.74-2.74l2.74-2.74c0.477-0.477,0.859-1.011,1.153-1.58   c0.456,1.359,0.714,2.809,0.714,4.32C63.618,51.068,63.36,52.518,62.904,53.876z"></path></g></svg></g></g></svg>