<svg xmlns="http://www.w3.org/2000/svg" xmlns:xlink="http://www.w3.org/1999/xlink" width="100" height="100" viewBox="0 0 100 100"><g><g transform="translate(50 50) scale(0.69 0.69) rotate(0) translate(-50 -50)" style="fill:#252627"><svg fill="#252627" xmlns="http://www.w3.org/2000/svg" xmlns:xlink="http://www.w3.org/1999/xlink" version="1.1" x="0px" y="0px" viewBox="0 0 64 64" style="enable-background:new 0 0 64 64;" xml:space="preserve"><g><rect x="27" y="53" width="2" height="2"></rect><rect x="31" y="55" width="2" height="2"></rect><rect x="35" y="53" width="2" height="2"></rect><rect x="27" y="57" width="2" height="2"></rect><rect x="35" y="57" width="2" height="2"></rect><rect x="26" y="41" width="12" height="2"></rect><path d="M47,1c-0.716,0-1.366,0.263-1.882,0.683C44.651,1.263,44.04,1,43.364,1C42.091,1,41,1.91,40.771,3.164l-0.453,2.499   c-0.852,4.679-2.232,9.264-4.104,13.632C36.072,19.628,36,19.98,36,20.341C36,21.807,37.193,23,38.659,23h3.169   c-0.235,0.332-0.482,0.656-0.753,0.965C38.833,26.529,35.592,28,32.185,28h-0.369c-3.407,0-6.648-1.471-8.892-4.035   c-0.27-0.309-0.518-0.633-0.753-0.965h3.169C26.807,23,28,21.807,28,20.341c0-0.36-0.072-0.712-0.215-1.048   c-1.871-4.366-3.252-8.951-4.103-13.629l-0.455-2.5C23,1.91,21.909,1,20.635,1c-0.676,0-1.286,0.263-1.753,0.683   C18.365,1.262,17.716,1,17,1c-1.654,0-3,1.346-3,3v12c0,4.095,1.409,8.111,3.967,11.31l0.504,0.63   c2.068,2.585,3.28,5.772,3.487,9.065C20.875,37.028,20,37.912,20,39v6c0,1.103,0.897,2,2,2h4v2c-1.654,0-3,1.346-3,3v8   c0,1.654,1.346,3,3,3h12c1.654,0,3-1.346,3-3v-8c0-1.654-1.346-3-3-3v-2h4c1.103,0,2-0.897,2-2v-6c0-1.088-0.875-1.972-1.957-1.996   c0.206-3.293,1.418-6.48,3.487-9.065l0.504-0.63C48.591,24.111,50,20.095,50,16V4C50,2.346,48.654,1,47,1z M38.659,21   C38.296,21,38,20.704,38,20.341c0-0.09,0.019-0.178,0.053-0.26c1.931-4.503,3.355-9.234,4.233-14.06l0.453-2.499   C42.795,3.219,43.058,3,43.365,3C43.715,3,44,3.285,44,3.635h0.037C44.022,3.756,44,3.875,44,4v12.185   c0,1.674-0.365,3.311-1.037,4.815H38.659z M20.636,3c0.307,0,0.569,0.219,0.624,0.521l0.455,2.5   c0.877,4.826,2.302,9.557,4.231,14.058C25.981,20.163,26,20.251,26,20.341C26,20.704,25.704,21,25.341,21h-4.304   C20.365,19.496,20,17.859,20,16.185V4c0-0.125-0.022-0.244-0.037-0.365H20C20,3.285,20.285,3,20.636,3z M39,52v8   c0,0.551-0.448,1-1,1H26c-0.552,0-1-0.449-1-1v-8c0-0.551,0.448-1,1-1h12C38.552,51,39,51.449,39,52z M36,49h-8v-2h8V49z M22,45v-2   h2v-2h-2v-2h20l0,2h-2v2h2.001l0,2H22z M48,16c0,3.643-1.253,7.215-3.529,10.061l-0.504,0.63c-2.349,2.937-3.714,6.566-3.924,10.31   H23.957c-0.21-3.744-1.575-7.373-3.924-10.31l-0.504-0.63C17.253,23.215,16,19.643,16,16V4c0-0.551,0.448-1,1-1s1,0.449,1,1v12.185   c0,3.347,1.214,6.578,3.418,9.097C24.042,28.28,27.831,30,31.815,30h0.369c3.984,0,7.773-1.72,10.397-4.718   c2.204-2.52,3.418-5.75,3.418-9.097V4c0-0.551,0.448-1,1-1s1,0.449,1,1V16z"></path></g></svg></g></g></svg>