<svg xmlns="http://www.w3.org/2000/svg" xmlns:xlink="http://www.w3.org/1999/xlink" width="100" height="100" viewBox="0 0 100 100"><g><g transform="translate(50 50) scale(0.69 0.69) rotate(0) translate(-50 -50)" style="fill:#000000"><svg fill="#000000" xmlns="http://www.w3.org/2000/svg" xmlns:xlink="http://www.w3.org/1999/xlink" version="1.1" x="0px" y="0px" viewBox="0 0 100 100" style="enable-background:new 0 0 100 100;" xml:space="preserve"><g><path d="M49.86235,55.3102c-10.28611,0-18.38757-8.97158-21.68518-24.04287c-0.1986-0.90846,0.37754-1.80611,1.28601-2.00472   c0.90257-0.20254,1.80513,0.37459,2.0057,1.28503c1.0992,5.03097,5.67103,21.39416,18.39741,21.39416   c0.04916,0,0.09635,0,0.14748,0c12.83257-0.06489,17.41815-16.39268,18.51932-21.39613   c0.20058-0.90847,1.1051-1.47773,2.00571-1.28306c0.90846,0.19959,1.48264,1.09822,1.28207,2.00669   c-3.29761,15.00148-11.44037,23.98781-21.7835,24.03893C49.98034,55.3102,49.92134,55.3102,49.86235,55.3102z M70.80228,17.06715   c-0.74722,0-1.42956-0.50143-1.6262-1.25848C67.16842,8.13489,59.83384,3.3684,50.0295,3.3684   c-9.83974,0-17.19791,4.76649-19.20558,12.44027c-0.234,0.9006-1.14836,1.43939-2.05486,1.20342   c-0.89863-0.23498-1.43742-1.15524-1.20145-2.05486C29.94101,5.8716,38.75824,0,50.0295,0   c11.2339,0,20.0295,5.8716,22.40291,14.95723c0.23597,0.89962-0.30282,1.81988-1.20145,2.05486   C71.0874,17.04945,70.94386,17.06715,70.80228,17.06715z"></path><path d="M7.16252,100c-0.9301,0-1.68322-0.75312-1.68322-1.68322c0-12.5612,3.27008-23.98584,8.9706-31.34205   c3.12457-4.09399,7.81241-4.73306,11.94769-5.29545c3.50605-0.47783,6.81742-0.9301,9.2282-3.22289   c1.70878-1.67142,1.64979-4.80975,1.3627-9.40714c-0.05702-0.92813,0.64891-1.72648,1.57703-1.78449   c0.92223-0.07079,1.72648,0.64694,1.78547,1.57605c0.27922,4.4971,0.57025,9.14954-2.38914,12.04012   c-3.21306,3.05968-7.2284,3.60633-11.11002,4.13332c-3.99371,0.54469-7.44273,1.01465-9.73159,4.01337   c-5.26202,6.78793-8.27451,17.45944-8.27451,29.28915C8.84574,99.24688,8.09262,100,7.16252,100z"></path><path d="M92.83748,100c-0.93009,0-1.68322-0.75312-1.68322-1.68322c0-11.82971-3.01248-22.50123-8.26664-29.27735   c-2.29672-3.01052-5.74574-3.48048-9.73946-4.02517c-3.88162-0.52699-7.89696-1.07364-11.09428-4.11956   c-2.97119-2.9004-2.6841-7.64133-2.40488-12.22495c0.05703-0.9301,0.84357-1.66552,1.7835-1.57801   c0.92813,0.05604,1.63406,0.85439,1.579,1.78252c-0.28709,4.70357-0.34608,7.91269,1.37843,9.59591   c2.39504,2.27903,5.70642,2.73129,9.21247,3.20912c4.13528,0.56239,8.82312,1.20146,11.95556,5.30725   c5.69266,7.34441,8.96274,18.76904,8.96274,31.33025C94.5207,99.24688,93.76758,100,92.83748,100z"></path><path d="M92.83748,100H7.16252c-0.9301,0-1.68322-0.75312-1.68322-1.68322c0-0.93009,0.75312-1.68321,1.68322-1.68321h85.67496   c0.9301,0,1.68322,0.75312,1.68322,1.68321C94.5207,99.24688,93.76758,100,92.83748,100z"></path><path d="M68.92046,32.76276H56.99243c-2.29082,0-4.21394-1.06381-5.146-2.84436l-1.8307-3.53653l-1.86412,3.54046   c-0.9301,1.77662-2.85321,2.84043-5.14404,2.84043H31.07954c-3.18553,0-5.67889-2.14433-5.67889-4.88054v-9.64605   c0-2.72245,2.54646-4.93757,5.67889-4.93757h37.84092c3.13243,0,5.67889,2.21512,5.67889,4.93757v9.64605   C74.59935,30.61843,72.10599,32.76276,68.92046,32.76276z M50.0295,21.06086c0.00197,0,0.00393,0,0.0059,0   c0.62727,0.00295,1.20145,0.35296,1.48854,0.91043l3.30941,6.39268c0.33232,0.63317,1.16016,1.03038,2.15908,1.03038h11.92804   c1.38235,0,2.31245-0.78163,2.31245-1.51214v-9.64605c0-0.74231-0.94976-1.56917-2.31245-1.56917H31.07954   c-1.3627,0-2.31246,0.82686-2.31246,1.56917v9.64605c0,0.73051,0.9301,1.51214,2.31246,1.51214h11.92803   c0.99892,0,1.82676-0.39721,2.16105-1.03726l3.37037-6.39662C48.83197,21.40694,49.40419,21.06086,50.0295,21.06086z"></path><path d="M50.0295,48.97257c-3.47852,0-6.30813-2.82961-6.30813-6.30715s2.82962-6.30715,6.30813-6.30715   c3.44706,0,6.24914,2.82961,6.24914,6.30715S53.47655,48.97257,50.0295,48.97257z M50.0295,39.72667   c-1.64979,0-2.9417,1.29092-2.9417,2.93875c0,1.62029,1.31944,2.93875,2.9417,2.93875c1.5613,0,2.88271-1.34598,2.88271-2.93875   C52.9122,41.04513,51.61833,39.72667,50.0295,39.72667z"></path><path d="M61.39514,72.36456c-1.20342,0-2.36358-0.2163-3.46869-0.65283c-6.17835-2.43634-9.58018-11.11199-9.58018-24.42336   c0-0.9301,0.75312-1.6842,1.68322-1.6842s1.68322,0.7541,1.68322,1.6842c0,11.49248,2.78635,19.4504,7.4506,21.29092   c3.61026,1.42759,8.42789-0.80621,13.55029-6.28846c0.6371-0.6784,1.70484-0.71379,2.38128-0.08062   c0.6784,0.63514,0.71576,1.70092,0.08062,2.38128C70.40114,69.70013,65.62875,72.36456,61.39514,72.36456z"></path><path d="M30.27922,100c-0.93009,0-1.68322-0.75312-1.68322-1.68322V62.98496c0-0.9301,0.75312-1.68322,1.68322-1.68322   c0.9301,0,1.68322,0.75312,1.68322,1.68322v35.33182C31.96244,99.24688,31.20932,100,30.27922,100z"></path><path d="M69.72077,100c-0.93009,0-1.68321-0.75312-1.68321-1.68322V74.68685c0-0.93009,0.75312-1.68321,1.68321-1.68321   c0.9301,0,1.68322,0.75312,1.68322,1.68321v23.62993C71.40399,99.24688,70.65087,100,69.72077,100z"></path><path d="M69.72077,82.30459H30.27922c-0.93009,0-1.68322-0.75312-1.68322-1.68321c0-0.9301,0.75312-1.68322,1.68322-1.68322   h39.44155c0.9301,0,1.68322,0.75312,1.68322,1.68322C71.40399,81.55147,70.65087,82.30459,69.72077,82.30459z"></path><path d="M69.72077,88.01298H30.27922c-0.93009,0-1.68322-0.75312-1.68322-1.68322c0-0.93009,0.75312-1.68321,1.68322-1.68321   h39.44155c0.9301,0,1.68322,0.75312,1.68322,1.68321C71.40399,87.25986,70.65087,88.01298,69.72077,88.01298z"></path><path d="M21.09035,100c-0.9301,0-1.68322-0.75312-1.68322-1.68322v-7.07895c0-0.93009,0.75312-1.68321,1.68322-1.68321   s1.68322,0.75312,1.68322,1.68321v7.07895C22.77357,99.24688,22.02045,100,21.09035,100z"></path><path d="M78.90965,100c-0.93009,0-1.68322-0.75312-1.68322-1.68322v-7.07895c0-0.93009,0.75313-1.68321,1.68322-1.68321   s1.68322,0.75312,1.68322,1.68321v7.07895C80.59286,99.24688,79.83974,100,78.90965,100z"></path><path d="M31.82086,59.01681H13.61223c-0.9301,0-1.68322-0.75312-1.68322-1.68322s0.75312-1.68322,1.68322-1.68322h18.20863   c0.93009,0,1.68322,0.75312,1.68322,1.68322S32.75096,59.01681,31.82086,59.01681z"></path><path d="M24.97198,59.01681c-0.9301,0-1.68322-0.75312-1.68322-1.68322V44.035c0-0.93009,0.75312-1.6842,1.68322-1.6842   s1.68322,0.75411,1.68322,1.6842v13.2986C26.6552,58.26369,25.90207,59.01681,24.97198,59.01681z"></path><path d="M13.61223,72.77357c-0.9301,0-1.68322-0.75313-1.68322-1.68322V57.3336c0-7.19103,5.84997-13.04198,13.04296-13.04198   c4.12152,0,8.04641,2.03323,10.49848,5.43801c0.54272,0.75312,0.37164,1.80513-0.38344,2.34982   c-0.75116,0.54469-1.80513,0.37361-2.34982-0.38344c-1.84839-2.56416-4.67801-4.03598-7.76521-4.03598   c-5.33478,0-9.67653,4.33881-9.67653,9.67358v13.75676C15.29545,72.02045,14.54233,72.77357,13.61223,72.77357z"></path><path d="M86.38777,59.01681H68.17914c-0.9301,0-1.68322-0.75312-1.68322-1.68322s0.75312-1.68322,1.68322-1.68322h18.20863   c0.93009,0,1.68321,0.75312,1.68321,1.68322S87.31786,59.01681,86.38777,59.01681z"></path><path d="M75.02802,59.01681c-0.9301,0-1.68322-0.75312-1.68322-1.68322V44.035c0-0.93009,0.75312-1.6842,1.68322-1.6842   c0.93009,0,1.68321,0.75411,1.68321,1.6842v13.2986C76.71124,58.26369,75.95811,59.01681,75.02802,59.01681z"></path><path d="M86.38777,72.77357c-0.9301,0-1.68322-0.75313-1.68322-1.68322V57.3336c0-5.33477-4.34176-9.67358-9.67653-9.67358   c-3.08721,0-5.91682,1.47183-7.76521,4.03598c-0.54272,0.75509-1.59866,0.92616-2.34982,0.38344   c-0.75509-0.54469-0.92616-1.59669-0.38345-2.34982c2.45207-3.40478,6.37696-5.43801,10.49848-5.43801   c7.193,0,13.04296,5.85095,13.04296,13.04198v13.75676C88.07098,72.02045,87.31786,72.77357,86.38777,72.77357z"></path></g></svg></g></g></svg>