<svg xmlns="http://www.w3.org/2000/svg" xmlns:xlink="http://www.w3.org/1999/xlink" width="100" height="100" viewBox="0 0 100 100"><g><g transform="translate(50 50) scale(0.69 0.69) rotate(0) translate(-50 -50)" style="fill:#252627"><svg fill="#252627" xmlns="http://www.w3.org/2000/svg" viewBox="0 0 24 34" x="0px" y="0px"><g fill="#252627" fill-rule="evenodd"><path fill-rule="nonzero" d="M6.86278856 2.5854242C6.19428537 3.2935758 5.52197335 4.16218375 4.89222964 5.19557101 3.40411088 7.6375215 2.39396325 10.5907448 2.08506786 14.087983 2.01754618 14.8524469 1.99069088 15.6425684 2.00282498 16.4561618 2.05434856 19.9108278 2.79398314 23.6390183 3.99652213 27.3811165 4.43519924 28.7462056 4.90521211 30.0158576 5.37467445 31.1555405 5.50219026 31.4651023 5.62240763 31.7472628 5.73344046 32L8.44398572 32C8.55500865 31.7468504 8.67521806 31.4642261 8.802727 31.1541548 9.27202373 30.0129374 9.74186907 28.74166 10.1803895 27.374924 11.3804912 23.634569 12.1194719 19.9084297 12.1731336 16.4555352 12.1857793 15.6418354 12.1595396 14.8516068 12.0927407 14.0870363 11.7869116 10.5865579 10.776053 7.63135002 9.28481704 5.18848942 8.65541022 4.15742984 7.98345015 3.29075502 7.3152935 2.58416447 7.23589081 2.50019436 7.16048394 2.42246197 7.08946884 2.35093337 7.01820113 2.42282493 6.94250762 2.50097705 6.86278856 2.5854242zM7.69764938.20660221C8.55195709.862036471 9.77922046 2.15989484 10.9918852 4.14641543 12.6398952 6.84609448 13.7517101 10.0964446 14.085151 13.9129637 14.1580685 14.7475668 14.1865762 15.6060985 14.1728921 16.4866136 14.115764 20.1625523 13.3402083 24.0731127 12.0847661 27.9859477 11.6291975 29.4058174 11.1410904 30.7265063 10.6524347 31.9148002 10.4808569 32.3320364 10.3211958 32.7034696 10.1774412 33.0249143 10.0900287 33.2203741 10.0265358 33.3573783 9.9909501 33.4317272 9.82473925 33.7789902 9.47393633 34 9.08894588 34L5.08894588 34C4.70420859 34 4.35358935 33.7792776 4.18724454 33.4323595 4.15163362 33.3580916 4.08810405 33.2212517 4.00064524 33.0260305 3.85681972 32.7049904 3.69708144 32.3340185 3.52542173 31.9172914 3.03653737 30.7304588 2.54820355 29.4113163 2.09242375 27.9930065.834264342 24.077827.0579101785 20.1645482.00304737274 16.4859869-.0100863932 15.6053655.0190977319 14.7467267.0928239032 13.912017.429522721 10.0999953 1.54023755 6.85275811 3.18436519 4.15480252 4.39739035 2.16427094 5.6250446.863805446 6.47960845.20708897 6.83867704-.0688485804 7.33836036-.0690482665 7.69764938.20660221zM18 1.5C18 1.76887826 17.7747282 2 17.4904785 2L20.5095215 2C20.2185153 2 20 1.77475743 20 1.5 20 1.23112174 20.2252718 1 20.5095215 1L17.4904785 1C17.7814847 1 18 1.22524257 18 1.5zM16 1.5C16 .675621462 16.6585206 0 17.4904785 0L20.5095215 0C21.3368834 0 22 .683531334 22 1.5 22 2.32437854 21.3414794 3 20.5095215 3L17.4904785 3C16.6631166 3 16 2.31646867 16 1.5z"></path><path fill-rule="nonzero" d="M20.8044045,24.0779565 C21.1268232,24.3187851 21.4495444,24.576122 21.7537635,24.8417285 C22.0527145,25.1027357 22.3188069,25.3588628 22.5448279,25.6091671 C22.8496158,25.946701 23.0791195,26.2692232 23.2234445,26.5963614 C23.3921231,26.9787014 23.5326027,27.461943 23.6567367,28.0346483 C23.7470245,28.4512005 23.8235188,28.8924168 23.8871514,29.3329256 C23.9253064,29.5970617 23.9509472,29.8041832 23.9582294,29.8813052 C24.3067676,32.1262994 22.6843076,34 20.4120354,34 L17.5878054,34 C15.3200298,34 13.7054833,32.1391968 14.032955,29.9428681 C14.046336,29.8198253 14.0720827,29.6122925 14.1103234,29.3476013 C14.1740988,28.9061671 14.2506104,28.4640328 14.3407251,28.046674 C14.4656956,27.4678834 14.6068942,26.9805679 14.7763963,26.5963614 C14.9207212,26.2692232 15.150225,25.946701 15.4550129,25.6091671 C15.6810339,25.3588628 15.9471262,25.1027357 16.2460773,24.8417285 C16.5502964,24.576122 16.8730175,24.3187851 17.1954363,24.0779565 C17.3894411,23.9330458 17.5421954,23.8244518 17.6013565,23.7849651 C17.7941586,23.641449 17.9999204,23.2335449 17.9999204,22.9969294 L17.9999204,1 L19.9999204,1 L19.9999204,22.9969294 C19.9999204,23.2354383 20.19807,23.6304541 20.3838184,23.7740127 C20.4769283,23.8381876 20.6225422,23.9421155 20.8044045,24.0779565 Z M17.9999204,22.9969294 L17.9999204,1 C17.9999204,-0.333333333 19.9999204,-0.333333333 19.9999204,1 L19.9999204,22.9969294 C19.9999204,23.7709141 19.5997559,24.6495957 18.9964158,25.2167374 C18.4068828,24.6703055 17.9999204,23.7839886 17.9999204,22.9969294 Z M18.7629588,25.4125631 C18.6928913,25.4604807 18.5624297,25.5532266 18.3922998,25.680304 C18.1078273,25.892789 17.8236572,26.1193853 17.5614445,26.3483171 C17.3178643,26.5609813 17.1068827,26.7640616 16.9393961,26.9495427 C16.765031,27.1426412 16.6501613,27.304068 16.6062333,27.4036386 C16.5021072,27.6396589 16.3945305,28.0109359 16.2956743,28.4687801 C16.2163918,28.8359703 16.1474391,29.2344243 16.0897721,29.6335784 C16.0551475,29.8732401 16.0322283,30.0579818 16.0162114,30.1981069 C15.8638999,31.2220945 16.5388582,32 17.5878054,32 L20.4120354,32 C21.4624051,32 22.1414522,31.2158013 21.975881,30.1423924 C21.9649783,30.0417242 21.942193,29.8576685 21.9076969,29.6188624 C21.8502441,29.2211341 21.781412,28.8241134 21.7021242,28.4583111 C21.6040919,28.0060287 21.4973046,27.6386865 21.3936075,27.4036386 C21.3496795,27.304068 21.2348098,27.1426412 21.0604447,26.9495427 C20.8929581,26.7640616 20.6819765,26.5609813 20.4383963,26.3483171 C20.1761836,26.1193853 19.8920135,25.892789 19.607541,25.680304 C19.4374111,25.5532266 19.3069495,25.4604807 19.236882,25.4125631 L19.2104132,25.3938246 C19.1368224,25.3399139 19.0653702,25.2806506 18.9964158,25.2167374 C18.921596,25.2870682 18.8436518,25.352608 18.7629588,25.4125631 Z"></path><path d="M18.9999701,27 C18.9999701,27 17.9246834,27.8888889 17.759243,28.3333333 C17.5938027,28.7777778 17.4677311,30.0033315 17.4677311,30.0033315 C17.4003172,30.5537763 17.7918806,31 18.3383581,31 L19.6615822,31 C20.2098302,31 20.6027494,30.5616455 20.5322092,30.0033315 C20.5322092,30.0033315 20.4061376,28.7777778 20.2406973,28.3333333 C20.0752569,27.8888889 18.9999701,27 18.9999701,27 Z"></path><path fill-rule="nonzero" d="M6 27L6 29C6 29.5522847 6.44771525 30 7 30 7.55228475 30 8 29.5522847 8 29L8 27C8 26.4477153 7.55228475 26 7 26 6.44771525 26 6 26.4477153 6 27zM8 21L8 23C8 23.5522847 8.44771525 24 9 24 9.55228475 24 10 23.5522847 10 23L10 21C10 20.4477153 9.55228475 20 9 20 8.44771525 20 8 20.4477153 8 21zM4 21L4 23C4 23.5522847 4.44771525 24 5 24 5.55228475 24 6 23.5522847 6 23L6 21C6 20.4477153 5.55228475 20 5 20 4.44771525 20 4 20.4477153 4 21z"></path></g></svg></g></g></svg>