<svg xmlns="http://www.w3.org/2000/svg" xmlns:xlink="http://www.w3.org/1999/xlink" width="100" height="100" viewBox="0 0 100 100"><g><g transform="translate(50 50) scale(0.69 0.69) rotate(0) translate(-50 -50)" style="fill:#000000"><svg fill="#000000" xmlns="http://www.w3.org/2000/svg" data-name="Layer 1" viewBox="0 0 90 90" x="0px" y="0px"><title>New_Camping</title><path d="M59,29c-.39,1.19-.74,2.38-1.17,3.55a7.32,7.32,0,0,1-7.77,5,1.15,1.15,0,0,0-1.39.89c-.58,1.84-1.17,3.67-1.75,5.51-1.2,3.78-2.44,7.55-3.59,11.35s-2.1,7.53-3.25,11.27c-1,3.18-2.11,6.33-3.23,9.47a3,3,0,0,1-2.17,2A2,2,0,0,1,32,76.48a6.31,6.31,0,0,1,.35-3.84c2.75-8,5.56-16.07,8.25-24.13,1.15-3.44,2.06-7,3.1-10.43a1.44,1.44,0,0,0-.47-1.81c-2.15-1.53-2.6-3.85-2.53-6.19.1-3.11.47-6.21.86-9.3A17.49,17.49,0,0,1,44,14.32c1-1.69,1.88-2.09,3.83-1.72a43,43,0,0,1,11.27,4.19,12.81,12.81,0,0,1,1.12.76,2.22,2.22,0,0,1,1.06,2.62c-.72,3-1.42,5.95-2.13,8.92Zm-9.58,6.74A5.13,5.13,0,0,0,56,33.11c2-4,2.85-8.36,4-12.63A2,2,0,0,0,59,18.13a11.23,11.23,0,0,0-1.75-1c-1.77-.76-3.54-1.53-5.36-2.15a37.38,37.38,0,0,0-4.43-1.14,1.84,1.84,0,0,0-2.13,1,36.53,36.53,0,0,0-1.66,3.34,29.29,29.29,0,0,0-1.63,10,24.55,24.55,0,0,0,.24,4.23,3.51,3.51,0,0,0,2,2.91c.24-.62.45-1.12.62-1.64.74-2.14,1.39-4.32,2.25-6.4a9.48,9.48,0,0,1,1.91-2.77,1.14,1.14,0,0,1,2,.41,5.17,5.17,0,0,1,.28,2.48c-.2,1.39-.64,2.76-1,4.13S49.75,34.4,49.41,35.78Zm.9-9.8-.5-.22a8.64,8.64,0,0,0-1.21,1.71c-.77,1.94-1.5,3.91-2.12,5.91-1.91,6.12-3.67,12.28-5.65,18.38C38.48,59,36,66.16,33.52,73.36a4.75,4.75,0,0,0-.29,1.32c0,.77-.19,1.66.65,2.14.52.3,1.27-.29,1.75-1.52.87-2.21,1.76-4.43,2.46-6.71,1.86-6.08,3.5-12.22,5.45-18.26C45.91,43,48.18,35.61,50,28.11A19.11,19.11,0,0,0,50.32,26Z"></path></svg></g></g></svg>