<svg fill="#FFFFFF" xmlns="http://www.w3.org/2000/svg" data-name="Layer 1" viewBox="0 0 100 100" x="0px" y="0px"><title>Stingray</title><path d="M91.37,67c-1.06-7.52-9.21-8.39-15.25-8.39-1.18,0-2.46,0-3.8.12-7,.41-11-1.8-13-3.39a3.91,3.91,0,0,0,3.22-1.93c1.1-2.16-.61-5.13-1.3-6.19,3.36-19,18.36-29.41,18.51-29.51l.21-.19a1.51,1.51,0,0,0,.21-1.44c-.34-1-1.71-2.59-9.58-4.5a22.36,22.36,0,0,0-5.17-.53c-9.32,0-22.69,3.88-29.11,5.75-1.51.44-2.7.78-3.35.94a11.57,11.57,0,0,1-2.66.27A31,31,0,0,1,23,17l-1.32-.38,0,1.37c0,.06.16,5.82,0,8.68-.07,1.22-1.64,4.41-3.45,8.11a159.54,159.54,0,0,0-7,15.77C7,62.21,11.76,73,12,73.44l.7,1.55,1-1.36c8.08-10.79,28.79-14.48,32.32-15,2.36,2.55,4.29,3.79,5.9,3.79,1.8,0,2.74-1.42,3.17-2.91,3.48,3,8.75,4.8,14.28,4.8A28.24,28.24,0,0,0,73.53,64c5.42-.82,9.91,0,11.91,2a3.85,3.85,0,0,1,1.11,2.91c-.15,4.32-4.12,8.47-6.93,9.8a7.46,7.46,0,0,1-3.21.67A9.81,9.81,0,0,1,73.72,79h0a10.37,10.37,0,0,0-3.56-.68,6.86,6.86,0,0,0-5,2l-.89,1,1.22.56a24,24,0,0,0,9.93,2.43h0a15.09,15.09,0,0,0,11.68-5.33C90.45,75.06,91.79,70,91.37,67Zm-5.8,10.59a13.14,13.14,0,0,1-10.17,4.64h0A20.63,20.63,0,0,1,68,80.73a7.33,7.33,0,0,1,5.09.15,11.6,11.6,0,0,0,3.34.48,9.42,9.42,0,0,0,4.07-.86C83.62,79,88.36,74.32,88.55,69a5.86,5.86,0,0,0-1.67-4.37C84.4,62,79.32,61.06,73.23,62a26.11,26.11,0,0,1-3.88.3c-6.93,0-11.88-2.86-14.21-5.54l-1.71-2,0,2.6s-.14,3-1.48,3c-.61,0-2-.46-4.77-3.52l-.35-.39-.52.07c-1,.13-23.07,3.22-33,14.51-1.1-3.32-3.12-11.43-.05-19.84a157.94,157.94,0,0,1,6.9-15.57c2.15-4.37,3.56-7.26,3.66-8.88.12-2.11.07-5.63,0-7.53a30.76,30.76,0,0,0,6.57.84,13.52,13.52,0,0,0,3.13-.33c.71-.17,1.85-.5,3.45-1,6.33-1.84,19.51-5.67,28.55-5.67a20.35,20.35,0,0,1,4.7.47c5.66,1.37,7.41,2.46,7.94,2.94-2.92,2.16-15.81,12.63-18.86,30.83l-.07.41.24.34c.7,1,2,3.34,1.39,4.46-.39.76-1.7.92-2.73.92-.29,0-.6,0-.94,0l-2-.16L56.21,55c.17.25,4.44,6.5,16.23,5.79,1.3-.08,2.54-.12,3.68-.12C87,60.66,89,64.22,89.39,67.32,89.74,69.79,88.51,74.24,85.57,77.63Z"></path><path d="M30.81,44.56a66.77,66.77,0,0,1-6.1-8.46,16.39,16.39,0,0,0,1.59,5.2,19.86,19.86,0,0,0,3,4.58,16.12,16.12,0,0,0,4.3,3.49,11.4,11.4,0,0,0,5.26,1.5,27.66,27.66,0,0,1-4.41-2.8A28.83,28.83,0,0,1,30.81,44.56Z"></path><path d="M50.52,28.77a23.38,23.38,0,0,0-4.23-4A19.17,19.17,0,0,0,41.21,22,87.59,87.59,0,0,1,49,30,34.47,34.47,0,0,1,52.1,34.5a28.6,28.6,0,0,1,2.28,5.1,12.44,12.44,0,0,0-.87-5.76A18.66,18.66,0,0,0,50.52,28.77Z"></path><ellipse cx="26.22" cy="28.99" rx="1.22" ry="2.15" transform="translate(-12.64 24.73) rotate(-41.61)"></ellipse><ellipse cx="34.36" cy="22.6" rx="1.22" ry="2.15" transform="translate(-6.34 28.52) rotate(-41.61)"></ellipse></svg>