<svg xmlns="http://www.w3.org/2000/svg" xmlns:xlink="http://www.w3.org/1999/xlink" width="100" height="100" viewBox="0 0 100 100"><g><g transform="translate(50 50) scale(0.69 0.69) rotate(0) translate(-50 -50)" style="fill:#252627"><svg fill="#252627" xmlns="http://www.w3.org/2000/svg" xmlns:xlink="http://www.w3.org/1999/xlink" version="1.1" x="0px" y="0px" viewBox="0 0 100 100" enable-background="new 0 0 100 100" xml:space="preserve"><g><path d="M42.897,62.828c3.411,4.494,8.787,7.213,14.493,7.213c7.919,0,14.672-5.086,17.166-12.162h4.693   c0.777,0,1.407-0.631,1.407-1.408s-0.63-1.408-1.407-1.408h-0.501v-7.714h0.501c0.777,0,1.407-0.631,1.407-1.408   s-0.63-1.408-1.407-1.408h-5.091c-0.035,0-0.071,0.003-0.107,0.006c-2.82-6.404-9.227-10.887-16.661-10.887H28.394   c-7.436,0-13.842,4.482-16.662,10.887c-0.035-0.003-0.071-0.006-0.107-0.006h-5.09c-0.777,0-1.408,0.631-1.408,1.408   s0.631,1.408,1.408,1.408h0.5v7.714h-0.5c-0.777,0-1.408,0.631-1.408,1.408s0.631,1.408,1.408,1.408h4.693   c2.494,7.076,9.246,12.162,17.166,12.162C34.103,70.041,39.482,67.322,42.897,62.828z M75.932,47.348v7.714h-0.631   c0.187-1.045,0.284-2.119,0.284-3.217c0-1.552-0.196-3.058-0.563-4.498H75.932z M9.851,55.062v-7.714h0.91   c-0.367,1.439-0.562,2.945-0.562,4.498c0,1.098,0.098,2.172,0.284,3.217H9.851z M28.394,67.225c-8.48,0-15.38-6.898-15.38-15.379   c0-8.48,6.899-15.378,15.38-15.378H57.39c8.48,0,15.38,6.898,15.38,15.378c0,8.48-6.899,15.379-15.38,15.379   c-5.441,0-10.529-2.924-13.275-7.631c-0.002-0.004-0.004-0.006-0.006-0.008c-0.017-0.029-0.035-0.057-0.055-0.084   c-0.008-0.012-0.015-0.023-0.022-0.033c-0.019-0.025-0.038-0.049-0.058-0.072c-0.011-0.012-0.021-0.025-0.031-0.039   c-0.016-0.016-0.032-0.031-0.049-0.047c-0.017-0.018-0.033-0.035-0.052-0.053c-0.011-0.01-0.022-0.018-0.034-0.027   c-0.024-0.021-0.049-0.043-0.075-0.061c-0.009-0.008-0.02-0.014-0.029-0.021c-0.028-0.02-0.058-0.039-0.089-0.057   c-0.002-0.002-0.004-0.004-0.006-0.004c-0.012-0.008-0.022-0.012-0.033-0.018c-0.027-0.016-0.055-0.029-0.082-0.043   c-0.02-0.01-0.039-0.018-0.059-0.025c-0.022-0.008-0.044-0.018-0.066-0.025c-0.024-0.01-0.049-0.016-0.074-0.023   c-0.018-0.006-0.036-0.012-0.055-0.016c-0.026-0.006-0.053-0.012-0.08-0.018c-0.018-0.002-0.035-0.006-0.054-0.01   c-0.026-0.004-0.052-0.006-0.079-0.008c-0.02-0.002-0.039-0.004-0.059-0.006c-0.023,0-0.048,0-0.072,0c-0.021,0-0.044,0-0.066,0   c-0.021,0.002-0.043,0.004-0.063,0.006c-0.024,0.002-0.05,0.004-0.074,0.008c-0.02,0.004-0.038,0.008-0.058,0.01   c-0.025,0.006-0.051,0.012-0.076,0.018c-0.02,0.004-0.039,0.01-0.06,0.016c-0.023,0.008-0.047,0.014-0.069,0.023   c-0.023,0.008-0.047,0.018-0.069,0.027c-0.019,0.008-0.038,0.014-0.056,0.023c-0.029,0.014-0.057,0.027-0.085,0.043   c-0.011,0.006-0.021,0.01-0.031,0.016c-0.002,0.002-0.004,0.004-0.007,0.006c-0.03,0.018-0.061,0.037-0.09,0.059   c-0.009,0.006-0.019,0.012-0.027,0.018c-0.026,0.02-0.051,0.041-0.076,0.062c-0.012,0.01-0.023,0.018-0.033,0.027   c-0.019,0.016-0.035,0.033-0.052,0.051c-0.017,0.016-0.034,0.033-0.049,0.049c-0.011,0.012-0.021,0.025-0.03,0.037   c-0.02,0.023-0.041,0.047-0.06,0.072c-0.007,0.01-0.013,0.021-0.021,0.031c-0.02,0.029-0.039,0.057-0.057,0.088   c-0.002,0.002-0.004,0.004-0.005,0.006C38.931,64.301,33.839,67.225,28.394,67.225z"></path><path d="M93.395,43.387L73.961,7.407c-0.395-0.731-0.941-1.348-1.625-1.831c-0.478-0.338-1.04-0.517-1.626-0.517   c-0.245,0-0.488,0.031-0.726,0.095C69.174,5.37,68.508,5.93,68.156,6.69l-2.549,5.494c-0.372,0.802-0.344,1.745,0.076,2.523   L83.936,48.5c0.133,0.434,0.84,3.321-2,8.444c-4.841,8.74-12.925,22.682-13.004,22.816c-0.074,0.129-0.135,0.244-0.194,0.369   c-0.12,0.242-2.096,4.059-6.519,4.059c-2.443,0-4.893-0.117-7.072-0.332c0.193-0.584,0.293-1.197,0.293-1.826v-0.822   c0-3.201-2.605-5.807-5.809-5.807H34.167c-3.202,0-5.808,2.605-5.808,5.807v0.822c0,3.203,2.605,5.809,5.808,5.809h3.721   c1.056,2.002,2.614,3.605,4.64,4.768c3.775,2.168,16.026,2.336,19.692,2.336c4.449,0,8.555-1.57,11.871-4.541   c2.429-2.176,3.753-4.467,4.225-5.387c0.938-1.617,8.465-14.623,13.027-22.859C97.269,51.455,94.105,44.665,93.395,43.387z    M70.71,7.875c0.326,0.23,0.587,0.523,0.773,0.87l6.271,11.608l-4.15,3.092l-1.646-3.05l1.785-1.322   c0.625-0.463,0.756-1.345,0.293-1.97s-1.346-0.756-1.97-0.293l-1.461,1.082l-0.678-1.255l1.702-1.261   c0.625-0.463,0.757-1.345,0.294-1.97s-1.345-0.756-1.97-0.293l-1.378,1.021l-0.413-0.766L70.71,7.875z M74.955,25.948   c0.008-0.005,0.015-0.008,0.021-0.014l4.129-3.077l11.816,21.877c0.003,0.006,0.006,0.012,0.01,0.018   c0.264,0.474,0.961,1.925,1.117,4.278l-5.211-0.415c-0.094-0.618-0.23-1.024-0.303-1.209c-0.024-0.061-0.053-0.119-0.084-0.175   L74.955,25.948z M75.86,83.635c-0.013,0.021-0.024,0.043-0.036,0.066c-0.301,0.59-1.447,2.662-3.613,4.602   c-2.791,2.5-6.247,3.822-9.992,3.822c-7.164,0-15.942-0.613-18.29-1.961c-1.639-0.941-2.876-2.25-3.68-3.891   c-0.627-1.279-1.001-2.732-1.145-4.443c-0.065-0.773-0.744-1.352-1.521-1.283c-0.775,0.064-1.35,0.746-1.285,1.52   c0.089,1.055,0.255,2.035,0.499,2.955h-2.631c-1.649,0-2.991-1.342-2.991-2.992v-0.822c0-1.648,1.342-2.99,2.991-2.99H49.63   c1.651,0,2.993,1.342,2.993,2.99v0.822c0,0.516-0.131,1.012-0.379,1.455c-0.055-0.01-0.112-0.02-0.167-0.027   c-4.269-0.719-4.97-1.652-5.029-1.742c-0.115-0.758-0.816-1.287-1.579-1.186c-0.771,0.104-1.312,0.811-1.21,1.582   c0.262,1.951,2.449,3.234,6.888,4.041c2.979,0.541,7.015,0.852,11.071,0.852c4.953,0,8.018-3.543,9.049-5.637   c0.002-0.006,0.006-0.012,0.008-0.02c0.029-0.061,0.056-0.109,0.092-0.174c0.07-0.119,6.489-11.189,11.323-19.803l4.688,2.107   C82.808,71.635,76.623,82.318,75.86,83.635z M88.879,60.789c-0.041,0.074-0.082,0.146-0.122,0.221l-4.688-2.105   c0.111-0.201,0.222-0.4,0.33-0.596c1.559-2.812,2.216-5.111,2.439-6.869l5.134,0.408C91.693,54.266,90.835,57.258,88.879,60.789z"></path><path d="M42.892,50.383c0.919,0,1.666,0.748,1.666,1.667c0,0.053,0.004,0.105,0.01,0.156c0.192,6.773,5.759,12.227,12.579,12.227   c6.941,0,12.589-5.646,12.589-12.588c0-6.675-5.223-12.15-11.796-12.56c-0.09-0.019-0.182-0.028-0.277-0.028H28.121   c-0.095,0-0.188,0.01-0.277,0.028c-6.572,0.41-11.795,5.886-11.795,12.56c0,6.941,5.646,12.588,12.588,12.588   c6.82,0,12.387-5.453,12.579-12.227c0.005-0.051,0.009-0.104,0.009-0.156C41.224,51.131,41.972,50.383,42.892,50.383z    M28.636,61.617c-5.389,0-9.771-4.383-9.771-9.771c0-5.388,4.383-9.772,9.771-9.772h28.51c5.389,0,9.772,4.384,9.772,9.772   c0,5.389-4.384,9.771-9.772,9.771c-5.388,0-9.772-4.383-9.772-9.771c0-0.084-0.008-0.164-0.022-0.244   c-0.226-2.261-2.14-4.034-4.46-4.034c-2.321,0-4.235,1.772-4.461,4.034c-0.014,0.08-0.023,0.16-0.023,0.244   C38.408,57.234,34.025,61.617,28.636,61.617z"></path></g></svg></g></g></svg>