<svg xmlns="http://www.w3.org/2000/svg" xmlns:xlink="http://www.w3.org/1999/xlink" width="100" height="100" viewBox="0 0 100 100"><g><g transform="translate(50 50) scale(0.69 0.69) rotate(0) translate(-50 -50)" style="fill:#252627"><svg fill="#252627" xmlns="http://www.w3.org/2000/svg" xmlns:xlink="http://www.w3.org/1999/xlink" version="1.1" x="0px" y="0px" viewBox="0 0 100 100" enable-background="new 0 0 100 100" xml:space="preserve"><path d="M94.056,76.13c-0.586-0.586-1.536-0.586-2.121,0l-4.375,4.376l-5.72-5.718l9.106-9.105c0.586-0.585,0.586-1.535,0-2.121  c-0.585-0.586-1.535-0.586-2.121,0l-1.896,1.896L68.201,46.731c4.008-5.231,6.063-10.886,6.063-16.839  c-0.003-10.727-8.734-19.454-19.464-19.454c-5.807,0-11.246,2.572-14.922,6.971c-3.682-4.398-9.122-6.971-14.921-6.971  c-10.728,0-19.454,8.727-19.454,19.454c0,24.094,32.531,34.992,33.917,35.444c0.15,0.05,0.308,0.073,0.465,0.073  c0.159,0,0.319-0.024,0.472-0.075c0.178-0.059,4.184-1.391,9.326-4.036l20.703,20.699l-1.896,1.895  c-0.586,0.586-0.586,1.535,0,2.121c0.292,0.293,0.677,0.439,1.061,0.439s0.768-0.146,1.061-0.439l9.105-9.104l5.72,5.717  l-4.374,4.375c-0.586,0.586-0.586,1.535,0,2.121c0.293,0.293,0.677,0.439,1.061,0.439s0.769-0.146,1.061-0.439l10.871-10.872  C94.642,77.665,94.642,76.715,94.056,76.13z M39.888,62.324C35.957,60.92,8.504,50.366,8.504,29.893  c0-9.073,7.381-16.454,16.454-16.454c5.493,0,10.606,2.73,13.676,7.304c0.278,0.415,0.745,0.664,1.245,0.664  c0.001,0,0.001,0,0.002,0c0.5,0,0.967-0.25,1.245-0.666c3.062-4.572,8.174-7.302,13.675-7.302c9.076,0,16.461,7.381,16.464,16.454  c0,5.158-1.762,10.094-5.2,14.702l-1.127-1.126c-2.208-2.211-5.145-3.428-8.271-3.428c-2.618,0-5.099,0.865-7.135,2.442  l-8.589-8.589c-0.586-0.586-1.535-0.586-2.121,0c-0.586,0.585-0.586,1.535,0,2.121l8.59,8.591  c-3.27,4.239-3.236,10.222,0.114,14.425C43.895,60.844,40.987,61.935,39.888,62.324z M72.507,79.876L50.52,57.892  c-3.389-3.396-3.39-8.914-0.001-12.303c1.642-1.644,3.825-2.548,6.148-2.548s4.507,0.905,6.149,2.549l1.377,1.377l-4.374,4.375  c-0.586,0.586-0.586,1.535,0,2.121c0.293,0.293,0.677,0.439,1.061,0.439s0.769-0.146,1.061-0.439l4.375-4.376l4.75,4.75  l-4.376,4.374c-0.587,0.585-0.587,1.535-0.002,2.121c0.293,0.293,0.678,0.439,1.062,0.439s0.768-0.146,1.06-0.439l4.379-4.374  l4.747,4.747l-4.376,4.376c-0.586,0.585-0.586,1.536,0,2.121c0.293,0.293,0.677,0.439,1.061,0.439s0.768-0.146,1.061-0.439  l4.377-4.376l4.752,4.752L72.507,79.876z"></path></svg></g></g></svg>