<svg xmlns="http://www.w3.org/2000/svg" xmlns:xlink="http://www.w3.org/1999/xlink" width="100" height="100" viewBox="0 0 100 100"><g><g transform="translate(50 50) scale(0.69 0.69) rotate(0) translate(-50 -50)" style="fill:#252627"><svg fill="#252627" xmlns="http://www.w3.org/2000/svg" xmlns:xlink="http://www.w3.org/1999/xlink" version="1.1" x="0px" y="0px" viewBox="0 0 100 100" enable-background="new 0 0 100 100" xml:space="preserve"><path d="M4.715,75.268c-0.298,0-0.598-0.114-0.833-0.346c-0.497-0.486-0.524-1.306-0.063-1.828l4.423-5.021  c0.46-0.522,1.235-0.553,1.73-0.065c0.497,0.485,0.525,1.304,0.064,1.827l-4.423,5.021C5.373,75.128,5.044,75.268,4.715,75.268"></path><path d="M85.734,97.468c-5.911,0-10.721-5.075-10.721-11.317c0-4.327,2.313-8.094,5.7-9.998l-0.785-2.116  c-0.379,0.177-0.75,0.382-1.112,0.62c-6.144,4.037-5.627,10.897-5.469,12.197c0.094,0.229,0.131,0.484,0.098,0.743  c-0.117,0.925-0.219,1.724-8.532,3.563c-5.031,1.113-11.299,0.974-15.675,0.66c-3.895-0.28-7.765-1.532-11.191-3.621l-7.135-4.353  c0.15,0.756,0.227,1.527,0.227,2.305c0,6.242-4.81,11.317-10.723,11.317c-5.912,0-10.722-5.075-10.722-11.317  c0-5.006,3.095-9.262,7.37-10.75l-8.731-5.326c-0.345-0.211-0.572-0.587-0.606-1.007c-0.036-0.42,0.125-0.831,0.431-1.103  c0.086-0.078,2.238-2.082,2.238-5.692c0-3.083-2.472-6.27-3.424-7.236c-0.361-0.366-0.474-0.928-0.286-1.417  c0.187-0.488,0.637-0.81,1.137-0.81h29.264c0.009,0,0.017,0,0.027,0c0.258,0.006,2.566,0.098,3.799,1.471  c0.534,0.595,0.801,1.346,0.776,2.171c-0.085,2.676-1.291,5.577-3.001,7.22c-0.001,0.002-0.003,0.004-0.004,0.005  c-1.403,1.347-2.341,3.043,0.256,6.302c3.346,4.197,8.636,4.513,8.689,4.516c3.651,0.243,13.807,0.509,17.149-1.142  c3.857-1.903,6.429-8.433,5.984-12.569c-0.301-2.825-6.273-14.342-9.843-21.223c-2.345-4.525-3.584-6.927-3.883-7.821  c-0.324-0.968-0.272-1.925,0.149-2.764c0.467-0.926,1.293-1.522,1.977-1.881l-1.815-8.711c-0.473-0.028-0.946-0.174-1.381-0.449  l-0.456-0.291c-0.692-0.438-1.182-1.135-1.377-1.962c-0.195-0.827-0.073-1.683,0.341-2.414l2.907-5.108  c0.416-0.73,1.075-1.246,1.859-1.453c0.783-0.207,1.597-0.078,2.287,0.36l0.458,0.29c1.429,0.907,1.893,2.871,1.034,4.377  l-2.906,5.107c-0.129,0.228-0.281,0.433-0.451,0.612l1.942,9.319c1.074,0.21,2.998,0.622,4.598,1.149  c2.455,0.81,5.597,2.947,7.045,6.517c0.439,1.081,0.438,2.169-0.001,3.15c-0.325,0.728-0.854,1.306-1.419,1.755  c2.726,1.551,7.589,4.947,13.848,11.942c9.856,11.015,8.544,22.129,8.483,22.598c-0.053,0.406-0.285,0.762-0.627,0.959  c-0.343,0.197-0.753,0.21-1.105,0.036c-0.063-0.03-5.23-2.513-10.141-1.589l0.711,1.919c0.876-0.245,1.795-0.374,2.74-0.374  c5.914,0,10.723,5.076,10.723,11.316C96.457,92.393,91.648,97.468,85.734,97.468 M81.614,78.583c-2.479,1.51-4.15,4.336-4.15,7.567  c0,4.814,3.71,8.731,8.271,8.731c4.562,0,8.272-3.917,8.272-8.731c0-4.813-3.711-8.73-8.272-8.73c-0.632,0-1.247,0.074-1.84,0.217  l1.152,3.108c0.226-0.032,0.455-0.049,0.688-0.049c2.85,0,5.168,2.447,5.168,5.454c0,3.008-2.318,5.455-5.168,5.455  c-2.849,0-5.167-2.447-5.167-5.455c0-1.842,0.87-3.473,2.198-4.462L81.614,78.583z M20.364,77.421  c-4.538,0.029-8.219,3.935-8.219,8.729c0,4.814,3.709,8.731,8.271,8.731s8.272-3.917,8.272-8.731c0-1.512-0.377-2.999-1.095-4.32  l-2.671-1.629l-1.012,1.936c1.028,0.998,1.672,2.429,1.672,4.014c0,3.008-2.318,5.455-5.167,5.455c-2.849,0-5.167-2.447-5.167-5.455  c0-3.007,2.318-5.454,5.167-5.454c0.467,0,0.921,0.066,1.35,0.189l1.035-1.979L20.364,77.421z M10.86,68.628l28.412,17.33  c3.106,1.894,6.609,3.028,10.133,3.28c4.218,0.302,10.247,0.442,15.005-0.61c4.082-0.903,5.787-1.49,6.478-1.788  c-0.2-2.33-0.252-9.857,6.634-14.38c5.029-3.305,11.299-1.699,14.257-0.623c-0.066-3.342-1.04-11.124-7.888-18.775  c-9.169-10.247-15.184-12.409-15.244-12.429c-0.511-0.177-0.855-0.686-0.846-1.252c0.009-0.568,0.365-1.062,0.881-1.221  c0.479-0.15,1.95-0.785,2.349-1.681c0.092-0.207,0.171-0.509-0.038-1.022c-1.12-2.762-3.588-4.429-5.524-5.066  c-1.747-0.578-4.014-1.023-4.8-1.169c-0.436,0.168-1.1,0.525-1.32,0.97c-0.065,0.13-0.123,0.325-0.003,0.688  c0.247,0.737,1.935,3.993,3.723,7.44c5.346,10.308,9.799,19.094,10.128,22.175c0.555,5.183-2.483,12.784-7.381,15.201  c-4.592,2.267-17.767,1.419-18.324,1.382c-0.242-0.013-6.402-0.381-10.43-5.434c-2.182-2.736-2.742-5.332-1.682-7.633H24.293  c-4.07,0-7.381-3.494-7.381-7.791v-0.822h-6.472c1.138,1.69,2.404,4.176,2.404,6.876C12.845,65.212,11.75,67.362,10.86,68.628   M83.71,84.24c-0.43,0.508-0.691,1.177-0.691,1.91c0,1.581,1.219,2.867,2.716,2.867c1.5,0,2.717-1.286,2.717-2.867  c0-1.488-1.08-2.717-2.459-2.854l0.885,2.384c0.246,0.665-0.065,1.416-0.695,1.676c-0.633,0.261-1.341-0.068-1.588-0.733  L83.71,84.24z M20.416,83.283c-1.498,0-2.716,1.287-2.716,2.867c0,1.581,1.219,2.867,2.716,2.867c1.5,0,2.717-1.286,2.717-2.867  c0-0.598-0.175-1.155-0.474-1.616l-1.17,2.241c-0.326,0.625-1.072,0.853-1.665,0.509c-0.593-0.346-0.808-1.132-0.48-1.757  l1.169-2.242C20.481,83.284,20.449,83.283,20.416,83.283 M19.363,55.396v0.822c0,2.871,2.212,5.205,4.93,5.205h13.059  c1.069-1.237,1.827-3.241,1.885-5.059c0.004-0.133-0.024-0.213-0.106-0.305c-0.375-0.42-1.448-0.644-2.064-0.664H19.363z   M59.971,9.196c-0.056,0-0.104,0.01-0.139,0.019c-0.086,0.022-0.247,0.088-0.354,0.275l-2.904,5.107  c-0.106,0.187-0.087,0.367-0.065,0.458c0.021,0.089,0.085,0.258,0.261,0.37l0.456,0.291c0.083,0.053,0.174,0.081,0.266,0.085  c0.141-0.123,0.311-0.215,0.5-0.261c0.007-0.01,0.013-0.021,0.02-0.031l2.905-5.107c0.163-0.286,0.075-0.658-0.195-0.829  l-0.456-0.29C60.159,9.217,60.057,9.196,59.971,9.196"></path></svg></g></g></svg>