<svg xmlns="http://www.w3.org/2000/svg" xmlns:xlink="http://www.w3.org/1999/xlink" width="100" height="100" viewBox="0 0 100 100"><g><g transform="translate(50 50) scale(0.69 0.69) rotate(0) translate(-50 -50)" style="fill:#252627"><svg fill="#252627" xmlns="http://www.w3.org/2000/svg" xmlns:xlink="http://www.w3.org/1999/xlink" version="1.1" x="0px" y="0px" viewBox="0 0 100 60.333" enable-background="new 0 0 100 60.333" xml:space="preserve"><g><g><path d="M69.476,17.799c0-0.002-0.001-0.004-0.001-0.007c0-0.025-0.009-0.048-0.015-0.073c-0.006-0.026-0.008-0.052-0.018-0.076    c-0.001-0.002-0.001-0.004-0.002-0.007c-0.008-0.018-0.023-0.03-0.034-0.046c-0.016-0.024-0.03-0.049-0.051-0.069    c-0.019-0.018-0.041-0.029-0.063-0.042c-0.02-0.013-0.038-0.028-0.06-0.036c-0.028-0.011-0.057-0.013-0.086-0.017    c-0.018-0.003-0.035-0.011-0.054-0.011c-0.002,0-0.004,0.001-0.007,0.001c-0.025,0-0.049,0.009-0.073,0.015    c-0.026,0.006-0.052,0.008-0.076,0.018c-0.002,0.001-0.004,0.001-0.007,0.002l-13.36,6.232c0,0,0,0,0,0l-0.012,0.006    c-0.016,0.008-0.027,0.021-0.041,0.03c-0.026,0.017-0.053,0.032-0.074,0.054c-0.017,0.018-0.027,0.039-0.04,0.059    c-0.014,0.021-0.03,0.041-0.039,0.065c-0.01,0.026-0.012,0.054-0.017,0.082c-0.003,0.019-0.011,0.037-0.011,0.057v8.843    c0,0.002,0.001,0.004,0.001,0.007c0,0.024,0.009,0.047,0.014,0.07c0.006,0.027,0.008,0.054,0.019,0.078    c0.001,0.002,0.001,0.004,0.001,0.006c0.002,0.005,0.008,0.007,0.011,0.012c0.028,0.053,0.067,0.096,0.115,0.131    c0.013,0.01,0.025,0.019,0.039,0.026c0.055,0.03,0.115,0.052,0.182,0.052c0.056,0,0.108-0.013,0.156-0.035    c0.002-0.001,0.004,0,0.006-0.001l13.361-6.221c0,0,0,0,0.001,0L69.254,27c0.01-0.004,0.015-0.013,0.024-0.018    c0.013-0.007,0.024-0.016,0.036-0.025c0.019-0.014,0.039-0.025,0.055-0.041c0.017-0.018,0.027-0.039,0.04-0.059    c0.007-0.011,0.017-0.022,0.023-0.034c0.002-0.004,0.007-0.006,0.009-0.011c0.001-0.002,0-0.003,0.001-0.005    c0.002-0.005,0.004-0.01,0.006-0.015c0.009-0.024,0.011-0.049,0.015-0.074c0.004-0.02,0.011-0.04,0.012-0.06    c0-0.002,0.001-0.003,0.001-0.005V17.799z M68.45,23.424v2.866l-3.706,1.726L68.45,23.424z M59.339,30.534l-3.237,1.508v-0.454    l9.202-11.462c0.037-0.046,0.034-0.104,0.046-0.158l3.061-1.428L59.339,30.534z M56.102,27.997v-3.716l4.986-2.326L56.102,27.997z    "></path><path d="M80.233,24.787c-0.02-0.012-0.043-0.014-0.064-0.023l0.004-0.008l-9.453-4.132v-5.359    c0.037-0.042,0.085-0.073,0.108-0.127c0.119-0.271-0.005-0.588-0.276-0.707L40.637,1.328c-0.006-0.003-0.013-0.002-0.019-0.004    c-0.034-0.014-0.07-0.016-0.106-0.023c-0.033-0.006-0.065-0.016-0.098-0.016c-0.029,0-0.057,0.011-0.087,0.016    c-0.04,0.007-0.08,0.012-0.117,0.028c-0.005,0.002-0.011,0.001-0.016,0.004L24.411,8.696c-0.269,0.125-0.385,0.444-0.26,0.713    c0.023,0.05,0.068,0.078,0.103,0.116v0.952L5.848,19.064l0.002,0.003c-0.182,0.086-0.311,0.268-0.311,0.483    c0,0.936,0.022,1.871,0.054,2.807c0,0.008,0.005,0.015,0.005,0.023c0,0.012-0.006,0.022-0.005,0.034    c0.136,3.315,0.548,13.399,6.456,15.915c0.002,0.001,0.003,0.003,0.006,0.004l43.871,19.2c0,0,0.001,0,0.001,0l0.47,0.201    l2.249,0.573c0.019,0.005,0.038,0.004,0.057,0.007c0.008,0.001,0.015,0.006,0.023,0.007c3.327,0.324,6.727,0.536,10.392,0.651    c1.662,0.052,3.395,0.077,5.304,0.077c0.002,0,0.003,0,0.005,0l2.731-0.033c0.9-0.022,1.799-0.044,2.699-0.076c0,0,0,0,0.001,0    c8.902-0.283,13.316-3.788,14.312-11.358c0.009-0.026,0.034-0.043,0.038-0.072c0.106-0.866,0.109-1.703,0.046-2.546    c0.054-0.074,0.096-0.156,0.107-0.253l0.033-0.298C95.077,37.421,90.313,30.818,80.233,24.787z M40.428,2.409L69.221,15.02    l-14.663,6.844L25.755,9.253L40.428,2.409z M25.021,9.768l29.235,12.801v14.372L25.021,24.14V9.768z M54.869,22.565l15.083-7.04    v14.364l-15.083,7.04V22.565z M24.638,24.69c0.027,0,0.051-0.01,0.076-0.015L54.44,37.691c0.04,0.017,0.082,0.026,0.123,0.026    c0.044,0,0.088-0.01,0.13-0.029l15.576-7.27c0.023,0.004,0.043,0.014,0.067,0.014c0.212,0,0.383-0.172,0.383-0.383v-5.555    l9.006,3.938c8.106,5.01,12.47,10.179,13.34,15.782c-13.882,0.462-26.691-1.054-39.125-4.651c-1.101-0.31-2.202-0.642-3.304-0.995    L10.209,20.859l14.045-6.546v9.994C24.254,24.519,24.426,24.69,24.638,24.69z M50.292,39.42c0.008,0.003,0.016,0.002,0.023,0.005    c0.008,0.003,0.013,0.009,0.021,0.012c1.119,0.358,2.238,0.695,3.353,1.01c11.072,3.203,22.431,4.774,34.567,4.774    c1.708,0,3.433-0.033,5.172-0.095c-0.019,0.669-0.06,1.314-0.128,1.944c-0.004,0.003-0.007,0.009-0.011,0.012    c-16.11,0.197-29.681-1.578-42.654-5.582L6.663,22.238c-0.022-0.648-0.03-1.297-0.037-1.945L50.292,39.42z M79.707,25.724    c8.516,5.1,13.082,10.556,13.62,16.244c-1.572-5.024-5.919-9.694-13.222-14.202c-0.008-0.005-0.017-0.005-0.024-0.009    c-0.009-0.005-0.014-0.012-0.023-0.016l-9.338-4.084v-1.861L79.707,25.724z M24.254,13.468L9.274,20.45l-1.989-0.871l16.97-7.917    V13.468z"></path><path d="M35.465,19.879c-0.004-0.019-0.004-0.038-0.009-0.057c-0.155-0.798-0.48-1.62-0.911-2.304    c-0.169-0.289-0.345-0.544-0.519-0.751c-0.21-0.259-0.44-0.497-0.659-0.683c-0.798-0.708-1.669-1.098-2.451-1.098    c-0.959,0-1.722,0.591-2.148,1.664c-0.481,1.21-0.259,2.489,0.011,3.345c0.185,0.611,0.466,1.222,0.812,1.773    c0.149,0.229,0.298,0.446,0.457,0.639c0.309,0.378,0.659,0.716,1.045,1.009c0.695,0.504,1.408,0.77,2.063,0.77    c0.969,0,1.733-0.592,2.15-1.664c0.301-0.763,0.353-1.67,0.161-2.62C35.469,19.894,35.466,19.888,35.465,19.879z M29.48,16.935    c0.311-0.784,0.794-1.181,1.436-1.181c0.51,0,1.11,0.261,1.689,0.708l-3.207,2.84C29.199,18.426,29.216,17.598,29.48,16.935z     M30.423,21.617l3.667-3.306c0.243,0.461,0.436,0.951,0.554,1.454l-3.327,2.838c-0.241-0.206-0.471-0.428-0.676-0.68    C30.565,21.83,30.495,21.72,30.423,21.617z"></path><path d="M49.185,26.013c-0.018-0.036-0.045-0.063-0.072-0.09c-0.098-0.525-0.253-1.069-0.483-1.603    c-0.272-0.59-0.603-1.136-0.959-1.584c-0.264-0.325-0.554-0.611-0.857-0.846c-0.746-0.601-1.55-0.932-2.265-0.932    c-0.963,0-1.726,0.59-2.15,1.664c-0.335,0.867-0.36,1.884-0.086,2.933c0,0.004,0.002,0.007,0.002,0.01    c0.007,0.025,0.008,0.049,0.015,0.074c0.208,0.864,0.606,1.729,1.127,2.444c0,0,0,0,0,0c0,0,0,0,0,0    c0.001,0.001,0.001,0.002,0.002,0.003l0.071,0.095c0.053,0.071,0.105,0.14,0.152,0.193c0.309,0.382,0.671,0.726,1.044,0.997    c0.699,0.513,1.417,0.784,2.076,0.784c0.964,0,1.728-0.592,2.151-1.667c0.248-0.631,0.323-1.369,0.233-2.141    C49.233,26.246,49.241,26.124,49.185,26.013z M47.771,24.333L43.858,27.3c-0.31-0.493-0.556-1.048-0.719-1.621l3.444-2.972    c0.171,0.155,0.337,0.321,0.489,0.509C47.326,23.535,47.56,23.924,47.771,24.333z M46.801,29.391    c-0.362,0-0.774-0.126-1.191-0.359c0.676-0.511,2.044-1.511,2.846-2.094c0.001,0.46-0.068,0.893-0.216,1.272    C47.93,28.994,47.447,29.391,46.801,29.391z"></path></g></g></svg></g></g></svg>