<svg xmlns="http://www.w3.org/2000/svg" xmlns:xlink="http://www.w3.org/1999/xlink" width="100" height="100" viewBox="0 0 100 100"><g><g transform="translate(50 50) scale(0.69 0.69) rotate(0) translate(-50 -50)" style="fill:#252627"><svg fill="#252627" xmlns="http://www.w3.org/2000/svg" xmlns:xlink="http://www.w3.org/1999/xlink" version="1.1" x="0px" y="0px" viewBox="0 0 64 64" style="enable-background:new 0 0 64 64;" xml:space="preserve"><path d="M45.295,30h5.866l-2.419-16.13c-0.516-3.429-2.994-6.289-6.315-7.286L38,5.256V1H26v4.292l-4.427,1.292  c-3.321,0.997-5.8,3.856-6.315,7.286L12.839,30h5.866l4.47-12.517l0.809,11.322C23.401,30.04,21,35.465,21,41  c0,5.964,0.992,20.916,1.002,21.066L22.064,63h7.853l2-23h0.166l2,23h7.853l0.062-0.934C42.008,61.916,43,46.964,43,41  c0-5.535-2.401-10.96-2.983-12.194l0.809-11.322L45.295,30z M28,3h8v2h-8V3z M17.295,28h-2.134l2.075-13.833  c0.4-2.667,2.328-4.892,4.911-5.667l2.822-0.847C26.02,9.179,28,12.4,28,15c0,1.583-0.746,3.244-1.61,5.166  c-0.289,0.645-0.59,1.312-0.875,2.008l-0.518-7.245h0L24.931,14h-2.636L17.295,28z M23.938,61C23.721,57.63,23,46.038,23,41  c0-1.488,0.199-2.982,0.489-4.383c1.852,3.06,5.075,9.068,5.465,14.363L28.083,61H23.938z M30.083,38l-0.568,6.535  c-1.718-4.868-4.422-9.187-5.344-10.585c0.796-2.622,1.707-4.471,1.724-4.503l0.122-0.245l-0.016-0.221  c0.005-3.08,1.127-5.579,2.213-7.996C29.133,18.942,30,17.012,30,15c0-2.833-1.747-6.007-3.024-7.949L27.146,7h9.707l0.17,0.051  C35.747,8.992,34,12.166,34,15c0,2.012,0.867,3.942,1.786,5.985c1.086,2.417,2.208,4.916,2.213,7.996l-0.016,0.221l0.122,0.245  c0.016,0.033,0.928,1.882,1.724,4.503c-0.921,1.398-3.626,5.717-5.344,10.585L33.917,38H30.083z M40.062,61h-4.146l-0.871-10.019  c0.39-5.296,3.613-11.304,5.465-14.364C40.801,38.018,41,39.512,41,41C41,46.037,40.279,57.63,40.062,61z M39.069,14l-0.584,8.177  C38.2,21.48,37.9,20.811,37.61,20.166C36.746,18.244,36,16.583,36,15c0-2.602,1.98-5.822,3.03-7.347L41.853,8.5  c2.583,0.775,4.511,2.999,4.911,5.667L48.839,28h-2.134l-5-14H39.069z"></path></svg></g></g></svg>