<svg fill="#FFFFFF" xmlns:dc="http://purl.org/dc/elements/1.1/" xmlns:cc="http://creativecommons.org/ns#" xmlns:rdf="http://www.w3.org/1999/02/22-rdf-syntax-ns#" xmlns:svg="http://www.w3.org/2000/svg" xmlns="http://www.w3.org/2000/svg" xmlns:sodipodi="http://sodipodi.sourceforge.net/DTD/sodipodi-0.dtd" xmlns:inkscape="http://www.inkscape.org/namespaces/inkscape" version="1.1" x="0px" y="0px" viewBox="0 0 100 100"><g transform="translate(0,-952.36218)"><g transform="translate(2.0071968,981.33856)"><path d="M 48.47244,0.21259842 C 45.531495,2.1614172 43.582677,5.0314959 42.448818,7.9370076 37.133858,6.9803147 27.708661,6.3070864 18.92126,7.0511809 14.350393,7.4055116 10.027559,8.149606 6.6259842,9.4960627 3.2244094,10.842519 0.6023622,12.826771 0,15.803149 c 0,2.551181 1.5590551,4.216535 3.3307086,5.492126 2.0551181,1.417323 4.7480314,2.586614 7.2637794,3.614173 1.488189,1.204724 3.401575,1.948819 4.925197,2.515748 2.586614,0.992126 5.988189,1.984252 9.850393,2.515748 -1.381889,3.047244 -1.346456,6.519685 -1.346456,9.070866 0,0.531496 0.46063,1.027559 0.992126,1.027559 0.992126,0 1.665354,-0.566929 2.444882,-1.240158 2.763779,-2.480315 5.350393,-5.598425 8.220472,-7.476377 6.590551,0.673228 13.712598,1.133858 20.161417,1.452755 4.110236,0.212599 7.61811,0.389764 10.807086,0.531496 1.098425,1.452756 2.409449,2.409449 3.862205,3.259843 0.531496,0.248031 0.956693,0.46063 1.559055,0.46063 0.673228,0 1.169291,-0.850394 0.850394,-1.452756 -0.425197,-0.885827 -0.637796,-1.452756 -0.744095,-1.948819 1.629922,0.106299 2.940945,0.212599 3.437008,0.354331 2.728347,2.551181 4.96063,5.102362 7.901575,7.051181 0.885827,0.566929 1.629921,0.992126 2.551181,0.992126 0.602362,0 1.098425,-0.637796 0.956693,-1.204725 L 85.110235,32.31496 95.775589,20.692913 c 0.566929,-0.637796 -0.106299,-1.84252 -0.92126,-1.665355 -5.031496,1.027559 -11.799212,3.933071 -17.751968,7.830709 -2.551181,-1.700788 -5.102362,-3.437008 -7.688976,-5.173228 2.267716,-0.177166 4.216535,-0.354331 5.633858,-0.637796 -1.559055,0 -4.181102,-0.212598 -7.228346,-0.425196 C 62.539369,17.043307 57.047243,13.464566 50.952755,10.381889 L 49.996062,0.92125981 C 49.960629,0.56692911 49.748031,0.28346456 49.464566,0.10629921 49.074802,-0.07086614 48.720472,0.07086614 48.47244,0.21259842 z m -0.248031,2.90551168 0.81496,8.0078739 c 0.03543,0.318897 0.248032,0.637795 0.531496,0.779527 5.102363,2.551181 9.814961,5.456693 14.350394,8.468504 -5.527559,-0.318898 -11.799213,-0.425197 -16.688976,0.425197 -1.665355,-0.531496 -3.472441,-1.133858 -5.350394,-1.700787 -0.248031,-0.956693 -0.389764,-1.807087 -0.354331,-3.472441 -0.460629,1.629921 -0.496063,2.338582 -0.460629,3.259842 -0.248032,-0.07087 -0.46063,-0.141732 -0.708662,-0.212598 -0.177165,-1.133859 -0.318898,-2.161418 -0.283464,-3.68504 -0.496063,1.629922 -0.531497,2.444882 -0.496063,3.437008 -0.248032,-0.07087 -0.425197,-0.106299 -0.637796,-0.177165 -0.106299,-1.062992 -0.177165,-2.125984 0.1063,-4.251968 -0.637796,1.877952 -0.885827,2.976377 -0.956693,4.039369 C 27.81496,15.165354 15.661417,12.543307 5.7401574,12.082677 6.2362204,11.834645 6.7677164,11.586614 7.3346456,11.338582 10.452756,10.133858 14.633858,9.3897635 19.062992,8.9999997 c 8.8937,-0.7440945 18.921259,0.035433 23.740157,0.9921259 0.496063,0.1062994 1.027559,-0.1771653 1.169291,-0.6377952 1.062992,-2.4448818 2.586614,-4.7125983 4.251969,-6.2362203 z M 19.771653,11.409448 c -0.850393,0 -1.523622,0.46063 -1.523622,0.992126 0,0.566929 0.673229,1.027559 1.523622,1.027559 0.814961,0 1.488189,-0.46063 1.488189,-1.027559 0,-0.531496 -0.673228,-0.992126 -1.488189,-0.992126 z M 3.0826771,14.031496 c 10.3110239,0.03543 24.2007869,2.976377 35.5039369,6.200787 5.669291,1.594488 10.700787,3.295275 14.279527,4.677165 1.73622,0.708661 3.472441,1.38189 5.031496,2.338583 -0.46063,0.921259 -1.523622,1.523622 -2.338583,2.019685 -1.027559,0.602362 -2.232283,1.027559 -3.295275,1.27559 -8.964567,-0.496063 -18.708661,-1.204724 -26.07874,-2.515748 -3.437008,-0.531496 -6.944882,-1.311023 -9.956693,-2.444882 -1.240157,-0.46063 -2.267716,-0.92126 -3.047244,-1.346456 1.452756,-4.216536 7.086614,-4.251969 11.834646,-5.208662 -4.677166,0 -12.897638,-0.885826 -13.925197,3.933071 C 8.7165353,22.003936 6.2362204,20.870078 4.4645669,19.665354 3.1181102,18.744094 2.1968504,17.681102 1.9842519,16.228346 2.1614173,15.377952 2.6574803,14.669291 3.0826771,14.031496 z m 63.0708649,7.830708 c 3.472441,2.338583 6.874016,4.712598 10.346457,6.980315 0.318897,0.212598 0.779527,0.212598 1.098425,0 4.641732,-3.11811 9.744094,-5.279528 14.137795,-6.661417 l -8.433071,9.177165 c -0.212598,0.212598 -0.318897,0.566929 -0.248031,0.885826 l 1.594488,7.122047 C 81.779526,37.311022 79.157479,34.688975 76.74803,32.31496 76.606298,32.173227 76.464566,32.102361 76.2874,32.066928 75.01181,31.74803 72.531495,31.606298 68.988188,31.3937 c -3.295276,-0.177166 -7.582677,-0.354331 -12.11811,-0.566929 0.744094,-0.46063 1.452756,-0.956693 2.019685,-1.523622 0.637795,-0.637796 1.169291,-1.346457 1.169291,-2.267717 -0.03543,-0.637795 -0.46063,-0.956693 -0.81496,-1.311023 -1.771654,-1.133859 -3.968504,-2.019685 -5.633859,-2.657481 -0.283464,-0.106299 -0.673228,-0.212598 -0.992126,-0.35433 4.641733,-0.354331 9.389764,-0.602363 13.535433,-0.850394 z m -38.728346,8.397637 c 1.700788,0.248032 3.472441,0.531497 5.314961,0.744095 -2.480315,1.984252 -4.322835,4.216535 -6.590551,6.271653 0.07087,-2.232283 0.354331,-5.173228 1.27559,-7.015748 z" style="" fill="#FFFFFF" fill-opacity="1" fill-rule="nonzero" stroke="none"></path></g></g></svg>