<svg xmlns="http://www.w3.org/2000/svg" xmlns:xlink="http://www.w3.org/1999/xlink" width="100" height="100" viewBox="0 0 100 100"><g><g transform="translate(50 50) scale(0.69 0.69) rotate(0) translate(-50 -50)" style="fill:#252627"><svg fill="#252627" xmlns:dc="http://purl.org/dc/elements/1.1/" xmlns:cc="http://creativecommons.org/ns#" xmlns:rdf="http://www.w3.org/1999/02/22-rdf-syntax-ns#" xmlns:svg="http://www.w3.org/2000/svg" xmlns="http://www.w3.org/2000/svg" xmlns:sodipodi="http://sodipodi.sourceforge.net/DTD/sodipodi-0.dtd" xmlns:inkscape="http://www.inkscape.org/namespaces/inkscape" version="1.1" x="0px" y="0px" viewBox="0 0 128 128" enable-background="new 0 0 128 128" xml:space="preserve"><path style="" d="M 101.59961 30.800781 C 99.899608 30.800781 98.599609 32.100781 98.599609 33.800781 L 98.599609 74.400391 C 96.899609 72.900391 94.899219 71.700391 92.699219 70.900391 C 92.099219 64.400391 87.800781 57.400391 80.800781 51.900391 C 72.900781 45.700391 62.900781 42.300781 52.800781 42.300781 C 31.300781 42.300781 13.900781 58.3 12.800781 72 C 7.3007814 75.1 3.5996094 80.999219 3.5996094 87.699219 L 3.5996094 106.5 C 3.5996094 108 4.6 109.29961 6 109.59961 C 7.9 109.99961 9.5996094 108.49922 9.5996094 106.69922 L 9.5996094 87.699219 C 9.5996094 81.099219 14.999609 75.699219 21.599609 75.699219 L 85.599609 75.699219 C 89.299609 78.399219 91.599609 82.799219 91.599609 87.699219 L 91.599609 102.69922 C 91.599609 103.89922 91.499219 104.99961 91.199219 106.09961 C 90.199219 109.99961 93.200781 113.69922 97.300781 113.69922 C 99.300781 113.69922 101.20039 112.79961 102.40039 111.09961 C 102.50039 110.99961 102.59961 110.90078 102.59961 110.80078 C 103.89961 108.30078 104.59961 105.49961 104.59961 102.59961 L 104.59961 102.19922 L 104.59961 87.699219 L 104.59961 36.699219 L 110.09961 36.699219 L 110.09961 106.59961 C 110.09961 108.09961 111.1 109.39922 112.5 109.69922 C 114.4 110.09922 116.09961 108.60078 116.09961 106.80078 L 116.09961 33.800781 C 116.09961 32.100781 114.79961 30.800781 113.09961 30.800781 L 101.59961 30.800781 z M 52.699219 48.300781 C 54.099219 48.300781 55.500781 48.4 56.800781 48.5 C 67.000781 53 74.399219 61.899219 76.199219 69.699219 L 21.5 69.699219 C 20.7 69.699219 19.999219 69.800391 19.199219 69.900391 C 21.899219 60.300391 35.399219 48.300781 52.699219 48.300781 z M 54.199219 98.199219 C 50.899219 98.199219 48.000781 100.19922 46.800781 103.19922 L 45.199219 107.09961 C 44.599219 108.59961 45.300391 110.4 46.900391 111 C 48.200391 111.6 49.899609 110.80078 50.599609 109.30078 L 52.199219 105.40039 C 52.699219 104.30039 53.599609 104.09961 54.099609 104.09961 C 54.499609 104.09961 55.5 104.20039 56 105.40039 L 57.599609 109.40039 C 58.099609 110.60039 59.200391 111.30078 60.400391 111.30078 C 60.800391 111.30078 61.1 111.19961 61.5 111.09961 C 63 110.49961 63.799219 108.69922 63.199219 107.19922 L 61.599609 103.19922 C 60.399609 100.09922 57.499219 98.199219 54.199219 98.199219 z M 108.5625 114.77539 C 107.60059 114.7041 106.625 115.08789 106 115.90039 C 104 118.30039 101.1 119.69922 98 119.69922 C 94.9 119.69922 91.9 118.30039 90 115.90039 C 89.9 115.70039 89.7 115.60039 89.5 115.40039 L 89.400391 115.30078 C 89.300391 115.20078 89.1 115.09961 89 115.09961 C 88.9 115.09961 88.900781 115 88.800781 115 C 88.700781 114.9 88.600391 114.90039 88.400391 114.90039 L 88.199219 114.90039 L 87.800781 114.90039 L 87.699219 114.90039 L 87.599609 114.90039 L 87.199219 114.90039 C 87.099219 114.90039 87.000391 114.9 86.900391 115 C 86.800391 115 86.699609 115.09961 86.599609 115.09961 C 86.499609 115.09961 86.400781 115.19922 86.300781 115.19922 C 86.200781 115.19922 86.1 115.30039 86 115.40039 C 85.9 115.50039 85.800781 115.49961 85.800781 115.59961 C 85.600781 115.69961 85.500391 115.9 85.400391 116 L 85 116.40039 C 83 118.80039 80.1 120.09961 77 120.09961 C 73.9 120.09961 70.999609 118.70078 69.099609 116.30078 L 68.900391 116.09961 C 68.300391 115.39961 67.499609 115 66.599609 115 C 65.699609 115 64.800781 115.39961 64.300781 116.09961 C 62.300781 118.49961 59.400781 119.90039 56.300781 119.90039 C 53.200781 119.90039 50.200781 118.49961 48.300781 116.09961 C 47.700781 115.39961 46.9 115 46 115 C 45.1 115 44.199219 115.39961 43.699219 116.09961 C 41.699219 118.49961 38.799219 119.90039 35.699219 119.90039 C 32.599219 119.90039 29.599219 118.49961 27.699219 116.09961 C 27.099219 115.39961 26.300391 115 25.400391 115 C 24.500391 115 23.599609 115.39961 23.099609 116.09961 C 21.099609 118.49961 18.199609 119.90039 15.099609 119.90039 C 11.999609 119.90039 9.0996094 118.49961 7.0996094 116.09961 C 6.0996094 114.79961 4.2003906 114.59961 2.9003906 115.59961 C 1.6003906 116.59961 1.4003906 118.50078 2.4003906 119.80078 C 5.5003906 123.70078 10.099609 125.90039 15.099609 125.90039 C 18.999609 125.90039 22.6 124.59922 25.5 122.19922 C 28.4 124.59922 32.000391 125.90039 35.900391 125.90039 C 39.700391 125.90039 43.400781 124.59922 46.300781 122.19922 C 49.200781 124.59922 52.799219 125.90039 56.699219 125.90039 C 60.499219 125.90039 64.1 124.59922 67 122.19922 C 69.9 124.69922 73.6 126.09961 77.5 126.09961 L 77.699219 126.09961 C 81.599219 126.09961 85.400781 124.69922 88.300781 122.19922 L 88.400391 122.30078 L 88.699219 122.59961 C 88.999219 122.79961 89.399219 123.10078 89.699219 123.30078 C 89.799219 123.40078 89.999219 123.49961 90.199219 123.59961 C 90.499219 123.79961 90.900781 123.99922 91.300781 124.19922 C 91.400781 124.29922 91.599219 124.30039 91.699219 124.40039 L 93.199219 125 C 93.299219 125 93.4 125.09961 93.5 125.09961 C 93.9 125.19961 94.300781 125.4 94.800781 125.5 C 95.000781 125.5 95.100781 125.59961 95.300781 125.59961 C 95.700781 125.69961 96.1 125.70078 96.5 125.80078 C 96.7 125.80078 96.8 125.80039 97 125.90039 C 97.6 126.00039 98.099219 126 98.699219 126 C 103.69922 126 108.30039 123.80039 111.40039 119.90039 C 111.70039 118.40039 111.49922 116.50039 110.19922 115.40039 C 109.71172 115.02539 109.13965 114.81816 108.5625 114.77539 z M 120 119.875 C 119.225 119.875 118.45039 120.14922 117.90039 120.69922 C 117.30039 121.19922 117 122.00078 117 122.80078 C 117 123.60078 117.30039 124.40039 117.90039 124.90039 C 118.50039 125.40039 119.2 125.80078 120 125.80078 C 120.8 125.80078 121.59961 125.50039 122.09961 124.90039 C 122.69961 124.30039 123 123.60078 123 122.80078 C 123 122.00078 122.69961 121.19922 122.09961 120.69922 C 121.54961 120.14922 120.775 119.875 120 119.875 z " fill="#252627" stroke="none"></path></svg></g></g></svg>