<svg xmlns="http://www.w3.org/2000/svg" xmlns:xlink="http://www.w3.org/1999/xlink" width="100" height="100" viewBox="0 0 100 100"><g><g transform="translate(50 50) scale(0.69 0.69) rotate(0) translate(-50 -50)" style="fill:#000000"><svg fill="#000000" xmlns="http://www.w3.org/2000/svg" data-name="Layer 1" viewBox="0 0 64 64" x="0px" y="0px"><title>sea</title><path d="M61.63,44.07l-4.45,1.78A13.07,13.07,0,0,1,47,45.61a15.06,15.06,0,0,0-12-.19l-1,.41a13.09,13.09,0,0,1-10,0l-1.61-.67a15,15,0,0,0-10.82-.28l-8.9,3.18a1,1,0,1,0,.67,1.88l8.9-3.18a13,13,0,0,1,9.38.24l1.61.67a15.1,15.1,0,0,0,11.55,0l1-.41a13.06,13.06,0,0,1,10.39.17,15.08,15.08,0,0,0,11.79.27l4.45-1.78a1,1,0,0,0-.74-1.86Z"></path><path d="M51.37,53.07,45.1,50.56a12,12,0,0,0-8.23-.24L33,51.61a9.91,9.91,0,0,1-7.62-.54,11.92,11.92,0,0,0-8.88-.73L7.71,53A1,1,0,1,0,8.29,55l8.8-2.71a9.94,9.94,0,0,1,7.4.61,11.89,11.89,0,0,0,9.14.65l3.87-1.29a10,10,0,0,1,6.86.2l6.27,2.51a1,1,0,1,0,.74-1.86Z"></path><path d="M49.74,45.23h.12a1,1,0,0,0,1-.88A19,19,0,1,0,13,42a1,1,0,0,0,2,0,17,17,0,0,1,34,0,17.21,17.21,0,0,1-.13,2.11A1,1,0,0,0,49.74,45.23Z"></path><path d="M19,36.78a1,1,0,0,0-1.26.65,14.79,14.79,0,0,0-.49,2A1,1,0,0,0,18,40.6h.17a1,1,0,0,0,1-.83A12.78,12.78,0,0,1,19.62,38,1,1,0,0,0,19,36.78Z"></path><path d="M20.74,35.5A13.06,13.06,0,0,1,32,29a1,1,0,0,0,0-2,15.07,15.07,0,0,0-13,7.5,1,1,0,0,0,1.73,1Z"></path><path d="M3,43h7a1,1,0,0,0,0-2H3a1,1,0,0,0,0,2Z"></path><path d="M54,43h7a1,1,0,0,0,0-2H54a1,1,0,0,0,0,2Z"></path><path d="M52.92,36.2a1,1,0,0,0,.31,0L59.89,34a1,1,0,0,0-.62-1.9l-6.66,2.16a1,1,0,0,0,.31,2Z"></path><path d="M56.27,24.37a1,1,0,0,0-1.4-.22l-5.66,4.11a1,1,0,0,0,1.18,1.62L56,25.76A1,1,0,0,0,56.27,24.37Z"></path><path d="M44.34,25a1,1,0,0,0,1.4-.22l4.11-5.66A1,1,0,0,0,48.24,18l-4.11,5.66A1,1,0,0,0,44.34,25Z"></path><path d="M40,14.11l-2.16,6.66a1,1,0,1,0,1.9.62l2.16-6.66a1,1,0,0,0-1.9-.62Z"></path><path d="M32,12a1,1,0,0,0-1,1v7a1,1,0,0,0,2,0V13A1,1,0,0,0,32,12Z"></path><path d="M24.25,21.39a1,1,0,0,0,1.9-.62L24,14.11a1,1,0,0,0-1.9.62Z"></path><path d="M18.26,24.79a1,1,0,1,0,1.62-1.18L15.76,18a1,1,0,0,0-1.62,1.18Z"></path><path d="M14.2,30.07a1,1,0,0,0,.59-1.81L9.13,24.15A1,1,0,0,0,8,25.76l5.66,4.11A1,1,0,0,0,14.2,30.07Z"></path><path d="M4.73,32.09A1,1,0,0,0,4.11,34l6.66,2.16a1,1,0,0,0,.62-1.9Z"></path></svg></g></g></svg>