<svg fill="#FFFFFF" xmlns="http://www.w3.org/2000/svg" xmlns:xlink="http://www.w3.org/1999/xlink" version="1.1" x="0px" y="0px" viewBox="0 0 100 100" style="enable-background:new 0 0 100 100;" xml:space="preserve"><title>sea</title><path d="M85.5,55.4c-0.8-0.5-1.7-1.1-2.7-1.7l-1.2-1.8c0.4-0.3,0.8-0.7,0.9-1.2c0.3-0.9-0.1-1.9-1-2.3c-0.9-0.7-1.7-1.4-2.5-2.2  c-3.4-3.2-9.1-8.5-17.6-12.1c-11.8-4.9-28.2-0.2-28.9,0l-1.2,0.3l0.1,0.8c-0.8-0.5-1.7-1-2.5-1.6c-2.3-1.6-5-3.5-9.3-3.7  c-4.4-0.4-8.5,2.5-9.7,6.7L10,37.2l0.1,0.4c2.1,6.4,11.9,7.9,13.2,8.1c2.6,0.8,5.1,1.8,7.5,3c0.9,6,4.3,11.1,9,13.8  c1.6,0.9,3.1,1.9,4.6,2.9c3.3,2.3,6.5,4.4,10.5,4.6c0.5,0,1,0,1.5,0c2.8,0,4.3-0.6,5-1.9c0.9-1.6-0.2-3.4-1.4-5.1  c-1.1-1.3-2.4-2.4-3.8-3.4c-0.9-0.7-1.9-1.5-2.9-2.3c5,1.1,12.9,2.4,19.7,1.3c1.1,1.8,2.9,3,5,3.4c1.1,0.3,2.2,0.6,3.3,1  c3.2,1.1,6.7,2.3,8.1-0.4C91.3,58.9,88.6,57.3,85.5,55.4z M60.4,36.9c8,3.3,13.4,8.4,16.7,11.5c0.6,0.6,1.1,1.1,1.6,1.5  c-3.1,0.9-10.7,1.7-20.4-0.8c-8.4-2.1-11.9-4.7-14.2-6.4c-1.8-1.3-3.2-2.3-5.5-2.3c-0.1,0-0.2,0-0.2,0c-2.3,0.1-3.2-2.2-3.6-3.7  C38.8,35.7,51.4,33.1,60.4,36.9z M86.7,61.3c-0.6,0.3-3.1-0.6-4.5-1c-1.2-0.4-2.4-0.8-3.7-1.1c-1.5-0.2-2.7-1.2-3.3-2.6l-0.4-1.3  l-1.4,0.3c-10.2,2-24.3-2.3-24.4-2.4l-3.9-1.2l2.2,3.5c1.6,2.5,4.5,4.8,6.8,6.6c1.2,0.8,2.3,1.8,3.3,2.9c0.5,0.6,0.9,1.2,1.1,1.9  c-1.2,0.3-2.4,0.4-3.6,0.2c-3.2-0.2-5.9-2-9-4.1c-1.5-1-3.1-2.1-4.8-3c-4.1-2.3-7-6.9-7.6-12.3l-0.1-0.8l-0.7-0.4  c-2.8-1.4-5.8-2.6-8.8-3.6l-0.2-0.1c-2.5-0.3-9-1.9-10.7-5.7c1-2.7,3.7-4.4,6.5-4.1c3.4,0.2,5.5,1.7,7.7,3.2c1.5,1.2,3.2,2.1,5,2.7  c1,2.3,2.8,4.6,6.1,4.5c1.4,0,2.2,0.5,3.9,1.7c2.5,1.8,6.2,4.6,15.2,6.8c4.6,1.1,9.4,1.7,14.2,1.7c2.4,0,4.8-0.2,7.1-0.7l1.8,2.8  l0.2,0.2c1.1,0.8,2.1,1.4,3,2C87.3,60,87.3,60.2,86.7,61.3z"></path><rect x="19.6" y="34.9" width="3" height="3"></rect></svg>